<svg width="94" height="488" viewBox="0 0 94 488" fill="none" xmlns="http://www.w3.org/2000/svg">
<g opacity="0.5" clip-path="url(#clip0_1132_2001)">
<path d="M50.1 487.1C49.7 487.2 49.3 487 49.2 486.6C49.1 486.2 49.3 485.8 49.7 485.7C50.1 485.6 50.5 485.8 50.6 486.2C50.7 486.6 50.4 486.9 50.1 487.1ZM56.2 485.1C55.9 485.2 55.4 485 55.3 484.7C55.2 484.4 55.4 483.9 55.7 483.8C56 483.7 56.5 483.9 56.6 484.2C56.7 484.6 56.5 485 56.2 485.1ZM62.2 483.1C61.9 483.2 61.4 483.1 61.3 482.7C61.2 482.4 61.3 481.9 61.7 481.8C62 481.7 62.5 481.8 62.6 482.2C62.8 482.5 62.6 482.9 62.2 483.1ZM68.1 480.8C67.7 481 67.3 480.8 67.2 480.4C67 480 67.2 479.6 67.6 479.5C68 479.3 68.4 479.5 68.5 479.9C68.6 480.2 68.5 480.6 68.1 480.8ZM73.9 478.3C73.5 478.5 73.2 478.3 73 477.9C72.8 477.5 73 477.2 73.4 477C73.8 476.8 74.1 477 74.3 477.4C74.5 477.7 74.3 478.1 73.9 478.3ZM79.7 475.5C79.3 475.7 78.9 475.5 78.8 475.2C78.6 474.8 78.8 474.4 79.1 474.3C79.5 474.1 79.9 474.3 80 474.6C80.2 474.8 80 475.3 79.7 475.5ZM85.3 472.4C84.9 472.6 84.5 472.4 84.3 472.2C84.1 471.8 84.3 471.4 84.5 471.2C84.9 471 85.3 471.2 85.5 471.4C85.8 471.8 85.6 472.2 85.3 472.4ZM90.7 469C90.4 469.2 89.9 469.1 89.7 468.8C89.5 468.5 89.6 468 89.9 467.8C90.2 467.6 90.7 467.7 90.9 468C91.1 468.4 91 468.8 90.7 469ZM93.1 233.3C92.7 233.4 92.3 233.2 92.2 232.9C92.1 232.5 92.3 232.1 92.6 232M91.7 226.3C91.8 226.7 91.6 227.1 91.3 227.2C90.9 227.3 90.5 227.1 90.4 226.8C90.3 226.4 90.5 226 90.8 225.9C91.1 225.7 91.6 225.9 91.7 226.3ZM89.8 220.2C89.9 220.6 89.7 221 89.4 221.1C89 221.2 88.6 221 88.5 220.7C88.4 220.3 88.6 219.9 88.9 219.8C89.3 219.6 89.7 219.8 89.8 220.2ZM87.9 214.2C88 214.6 87.8 215 87.5 215.1C87.1 215.2 86.7 215 86.6 214.7C86.5 214.3 86.7 213.9 87 213.8C87.4 213.6 87.8 213.8 87.9 214.2ZM86.1 208.1C86.2 208.5 86 208.9 85.7 209C85.3 209.1 84.9 208.9 84.8 208.6C84.7 208.2 84.9 207.8 85.2 207.7C85.6 207.5 86 207.7 86.1 208.1ZM84.3 202.1C84.4 202.5 84.2 202.9 83.9 203C83.5 203.1 83.1 202.9 83 202.6C82.9 202.2 83.1 201.8 83.4 201.7C83.7 201.4 84.2 201.7 84.3 202.1ZM82.4 196C82.5 196.4 82.3 196.8 82 196.9C81.6 197 81.2 196.8 81.1 196.5C81 196.1 81.2 195.7 81.5 195.6C82 195.4 82.3 195.6 82.4 196ZM80.6 189.9C80.7 190.3 80.5 190.7 80.1 190.8C79.7 190.9 79.3 190.7 79.2 190.3C79.1 189.9 79.3 189.5 79.7 189.4C80.1 189.3 80.6 189.5 80.6 189.9ZM78.9 183.8C79 184.2 78.8 184.6 78.4 184.7C78 184.8 77.6 184.6 77.5 184.2C77.4 183.8 77.6 183.4 78 183.3C78.4 183.2 78.8 183.4 78.9 183.8ZM77.1 177.7C77.2 178.1 77 178.5 76.6 178.6C76.2 178.7 75.8 178.5 75.7 178.1C75.6 177.7 75.8 177.3 76.2 177.2C76.5 177.1 77 177.4 77.1 177.7ZM75.3 171.6C75.4 172 75.2 172.4 74.8 172.5C74.4 172.6 74 172.4 73.9 172C73.8 171.6 74 171.2 74.4 171.1C74.8 171 75.2 171.2 75.3 171.6ZM73.6 165.5C73.7 165.9 73.5 166.3 73.1 166.4C72.7 166.5 72.3 166.3 72.2 165.9C72.1 165.5 72.3 165.1 72.7 165C73.1 164.9 73.5 165.2 73.6 165.5ZM71.9 159.4C72 159.8 71.8 160.2 71.4 160.3C71 160.4 70.6 160.2 70.5 159.8C70.4 159.4 70.6 159 71 158.9C71.4 158.8 71.7 159 71.9 159.4ZM70.2 153.3C70.3 153.7 70.1 154.1 69.7 154.2C69.3 154.3 68.9 154.1 68.8 153.7C68.7 153.3 68.9 152.9 69.3 152.8C69.7 152.6 70.1 152.9 70.2 153.3ZM68.5 147.2C68.6 147.6 68.4 148 68 148.1C67.6 148.2 67.2 148 67.1 147.6C67 147.2 67.2 146.8 67.6 146.7C68 146.6 68.4 146.7 68.5 147.2ZM66.9 141.1C67 141.5 66.8 141.9 66.4 142C66 142.1 65.6 141.9 65.5 141.5C65.4 141.1 65.6 140.7 66 140.6C66.4 140.5 66.8 140.7 66.9 141.1ZM65.3 134.9C65.4 135.3 65.2 135.7 64.8 135.8C64.4 135.9 64 135.7 63.9 135.3C63.8 134.9 64 134.5 64.4 134.4C64.8 134.3 65.2 134.5 65.3 134.9ZM63.7 128.8C63.8 129.2 63.6 129.6 63.2 129.7C62.8 129.8 62.4 129.6 62.3 129.2C62.2 128.8 62.4 128.4 62.8 128.3C63.3 128.2 63.6 128.4 63.7 128.8ZM62.2 122.6C62.3 123 62.1 123.4 61.7 123.5C61.3 123.6 60.9 123.4 60.8 123C60.7 122.6 60.9 122.2 61.3 122.1C61.7 122 62.1 122.2 62.2 122.6ZM60.7 116.4C60.8 116.8 60.5 117.2 60.2 117.3C59.8 117.4 59.4 117.1 59.3 116.8C59.2 116.4 59.5 116 59.8 115.9C60.1 115.8 60.6 116.1 60.7 116.4ZM59.2 110.3C59.3 110.7 59 111.1 58.7 111.2C58.3 111.3 57.9 111 57.8 110.7C57.7 110.3 58 109.9 58.3 109.8C58.7 109.6 59.1 109.9 59.2 110.3ZM57.7 104.1C57.8 104.5 57.5 104.9 57.2 105C56.8 105.1 56.4 104.8 56.3 104.5C56.2 104.1 56.5 103.7 56.8 103.6C57.3 103.4 57.7 103.7 57.7 104.1ZM56.4 97.8996C56.5 98.2996 56.2 98.6996 55.9 98.7996C55.5 98.8996 55.1 98.5996 55 98.2996C54.9 97.8996 55.2 97.4996 55.5 97.3996C55.9 97.2996 56.3 97.4996 56.4 97.8996ZM55 91.6996C55.1 92.0996 54.8 92.4996 54.4 92.5996C54 92.6996 53.6 92.3996 53.6 91.9996C53.5 91.5996 53.8 91.1996 54.2 91.1996C54.5 91.0996 54.9 91.2996 55 91.6996ZM53.7 85.4996C53.8 85.8996 53.5 86.2996 53.1 86.3996C52.7 86.4996 52.3 86.1996 52.3 85.7996C52.2 85.3996 52.5 84.9996 52.9 84.9996C53.3 84.9996 53.6 85.0996 53.7 85.4996ZM52.4 79.2996C52.5 79.6996 52.2 80.0996 51.8 80.1996C51.4 80.2996 51 79.9996 51 79.5996C50.9 79.1996 51.2 78.7996 51.6 78.7996C52 78.5996 52.3 78.8996 52.4 79.2996ZM51.1 73.0996C51.2 73.4996 50.9 73.8996 50.5 73.9996C50.1 74.0996 49.7 73.7996 49.7 73.3996C49.6 72.9996 49.9 72.5996 50.3 72.5996C50.7 72.4996 51.1 72.6996 51.1 73.0996ZM50 66.8996C50.1 67.2996 49.8 67.6996 49.4 67.7996C49 67.8996 48.6 67.5996 48.6 67.1996C48.5 66.7996 48.8 66.3996 49.2 66.3996C49.5 66.2996 49.9 66.4996 50 66.8996ZM48.8 60.5996C48.9 60.9996 48.6 61.3996 48.2 61.3996C47.8 61.4996 47.4 61.1996 47.4 60.7996C47.3 60.3996 47.6 59.9996 48 59.9996C48.3 59.9996 48.7 60.1996 48.8 60.5996ZM47.7 54.3996C47.8 54.7996 47.5 55.1996 47.1 55.2996C46.7 55.3996 46.3 55.0996 46.3 54.6996C46.2 54.2996 46.5 53.8996 46.9 53.8996C47.2 53.6996 47.6 53.9996 47.7 54.3996ZM46.6 48.0996C46.7 48.4996 46.4 48.8996 46 48.9996C45.6 49.0996 45.2 48.7996 45.2 48.3996C45.1 47.9996 45.4 47.5996 45.8 47.5996C46.1 47.3996 46.5 47.6996 46.6 48.0996ZM45.5 41.8996C45.6 42.2996 45.3 42.6996 44.9 42.6996C44.5 42.6996 44.1 42.4996 44.1 42.0996C44 41.6996 44.3 41.2996 44.7 41.2996C45.1 41.2996 45.5 41.4996 45.5 41.8996ZM44.6 35.5996C44.6 35.9996 44.4 36.3996 44 36.3996C43.6 36.3996 43.2 36.1996 43.2 35.7996C43.2 35.3996 43.4 34.9996 43.8 34.9996C44.1 34.8996 44.5 35.1996 44.6 35.5996ZM43.6 29.3996C43.6 29.7996 43.4 30.0996 43 30.1996C42.6 30.1996 42.3 29.9996 42.2 29.5996C42.2 29.1996 42.4 28.8996 42.8 28.7996C43.2 28.6996 43.6 28.9996 43.6 29.3996ZM42.8 23.0996C42.8 23.4996 42.6 23.7996 42.2 23.8996C41.8 23.8996 41.5 23.6996 41.4 23.2996C41.4 22.8996 41.6 22.5996 42 22.4996C42.3 22.3996 42.7 22.6996 42.8 23.0996ZM41.9 16.7996C41.9 17.1996 41.7 17.4996 41.3 17.5996C40.9 17.5996 40.6 17.3996 40.5 16.9996C40.5 16.5996 40.7 16.2996 41.1 16.1996C41.5 16.0996 41.8 16.3996 41.9 16.7996ZM41.1 10.4996C41.1 10.8996 40.9 11.1996 40.5 11.2996C40.1 11.2996 39.8 11.0996 39.7 10.6996C39.7 10.2996 39.9 9.99961 40.3 9.89961C40.7 9.79961 41.1 10.0996 41.1 10.4996ZM40.4 4.19961C40.4 4.59961 40.2 4.89961 39.8 4.99961C39.4 4.99961 39.1 4.79961 39 4.39961C39 3.99961 39.2 3.69961 39.6 3.59961C40 3.59961 40.3 3.79961 40.4 4.19961Z" fill="#FDFDFD"/>
<path d="M46.1018 487.6C45.7018 487.7 45.3018 487.5 45.2018 487.2C45.1018 486.8 45.3018 486.4 45.6018 486.3C46.0018 486.2 46.4018 486.4 46.5018 486.7C46.7018 487.1 46.4018 487.5 46.1018 487.6ZM52.0018 485.7C51.7018 485.8 51.2018 485.6 51.1018 485.3C51.0018 485 51.2018 484.5 51.5018 484.4C51.8018 484.3 52.3018 484.5 52.4018 484.8C52.5018 485.1 52.4018 485.6 52.0018 485.7ZM57.8018 483.6C57.5018 483.7 57.0018 483.6 56.9018 483.2C56.8018 482.9 56.9018 482.4 57.3018 482.3C57.6018 482.2 58.1018 482.3 58.2018 482.7C58.4018 483.1 58.2018 483.5 57.8018 483.6ZM63.7018 481.4C63.3018 481.6 62.9018 481.4 62.8018 481C62.7018 480.7 62.8018 480.2 63.2018 480.1C63.6018 479.9 64.0018 480.1 64.1018 480.5C64.1018 480.8 64.0018 481.2 63.7018 481.4ZM69.4018 478.9C69.0018 479.1 68.7018 478.9 68.5018 478.5C68.3018 478.1 68.5018 477.8 68.9018 477.6C69.3018 477.4 69.6018 477.6 69.8018 478C69.8018 478.3 69.7018 478.7 69.4018 478.9ZM75.0018 476.2C74.6018 476.4 74.2018 476.2 74.1018 475.9C73.9018 475.5 74.1018 475.1 74.4018 475C74.8018 474.8 75.2018 475 75.3018 475.3C75.5018 475.7 75.3018 476.1 75.0018 476.2ZM80.4018 473.4C80.0018 473.6 79.6018 473.4 79.4018 473.2C79.2018 472.8 79.4018 472.4 79.6018 472.2C80.0018 472 80.4018 472.2 80.6018 472.4C80.9018 472.7 80.8018 473.2 80.4018 473.4ZM85.8018 470.1C85.4018 470.3 85.0018 470.2 84.8018 469.9C84.6018 469.5 84.7018 469.1 85.0018 468.9C85.4018 468.7 85.8018 468.8 86.0018 469.1C86.2018 469.5 86.1018 470 85.8018 470.1ZM91.0018 466.7C90.7018 466.9 90.2018 466.8 90.0018 466.5C89.8018 466.2 89.9018 465.7 90.2018 465.5C90.5018 465.3 91.0018 465.4 91.2018 465.7C91.4018 466 91.3018 466.5 91.0018 466.7ZM92.8018 211.7C92.4018 211.8 92.0018 211.6 91.9018 211.2C91.8018 210.8 92.0018 210.4 92.4018 210.3C92.8018 210.2 93.2018 210.4 93.3018 210.8M91.6018 204.8C91.7018 205.2 91.5018 205.6 91.1018 205.7C90.7018 205.8 90.3018 205.6 90.2018 205.2C90.1018 204.8 90.3018 204.4 90.7018 204.3C91.1018 204.2 91.5018 204.4 91.6018 204.8ZM90.0018 198.9C90.1018 199.3 89.9018 199.7 89.5018 199.8C89.1018 199.9 88.7018 199.7 88.6018 199.3C88.5018 198.9 88.7018 198.5 89.1018 198.4C89.5018 198.3 89.9018 198.5 90.0018 198.9ZM88.3018 192.9C88.4018 193.3 88.2018 193.7 87.8018 193.8C87.4018 193.9 87.0018 193.7 86.9018 193.3C86.8018 192.9 87.0018 192.5 87.4018 192.4C87.9018 192.3 88.2018 192.5 88.3018 192.9ZM86.7018 186.9C86.8018 187.3 86.6018 187.7 86.2018 187.8C85.8018 187.9 85.4018 187.7 85.3018 187.3C85.2018 186.9 85.4018 186.5 85.8018 186.4C86.2018 186.3 86.6018 186.5 86.7018 186.9ZM85.1018 180.9C85.2018 181.3 85.0018 181.7 84.6018 181.8C84.2018 181.9 83.8018 181.7 83.7018 181.3C83.6018 180.9 83.8018 180.5 84.2018 180.4C84.6018 180.3 85.0018 180.6 85.1018 180.9ZM83.5018 175C83.6018 175.4 83.4018 175.8 83.0018 175.9C82.6018 176 82.2018 175.8 82.1018 175.4C82.0018 175 82.2018 174.6 82.6018 174.5C83.0018 174.4 83.4018 174.6 83.5018 175ZM81.9018 169C82.0018 169.4 81.8018 169.8 81.4018 169.9C81.0018 170 80.6018 169.8 80.5018 169.4C80.4018 169 80.6018 168.6 81.0018 168.5C81.5018 168.4 81.9018 168.6 81.9018 169ZM80.4018 163C80.5018 163.4 80.3018 163.8 79.9018 163.9C79.5018 164 79.1018 163.8 79.0018 163.4C78.9018 163 79.1018 162.6 79.5018 162.5C79.9018 162.4 80.3018 162.6 80.4018 163ZM78.8018 157C78.9018 157.4 78.7018 157.8 78.3018 157.9C77.9018 158 77.5018 157.8 77.4018 157.4C77.3018 157 77.5018 156.6 77.9018 156.5C78.4018 156.4 78.8018 156.6 78.8018 157ZM77.3018 151C77.4018 151.4 77.2018 151.8 76.8018 151.9C76.4018 152 76.0018 151.8 75.9018 151.4C75.8018 151 76.0018 150.6 76.4018 150.5C76.9018 150.4 77.2018 150.6 77.3018 151ZM75.8018 145C75.9018 145.4 75.7018 145.8 75.3018 145.9C74.9018 146 74.5018 145.8 74.4018 145.4C74.3018 145 74.5018 144.6 74.9018 144.5C75.4018 144.4 75.7018 144.6 75.8018 145ZM74.4018 139C74.5018 139.4 74.2018 139.8 73.9018 139.9C73.5018 140 73.1018 139.7 73.0018 139.4C72.9018 139 73.2018 138.6 73.5018 138.5C73.9018 138.4 74.3018 138.6 74.4018 139ZM72.9018 133C73.0018 133.4 72.7018 133.8 72.4018 133.9C72.0018 134 71.6018 133.7 71.5018 133.4C71.4018 133 71.7018 132.6 72.0018 132.5C72.5018 132.4 72.9018 132.6 72.9018 133ZM71.5018 126.9C71.6018 127.3 71.3018 127.7 71.0018 127.8C70.6018 127.9 70.2018 127.6 70.1018 127.3C70.0018 126.9 70.3018 126.5 70.6018 126.4C71.0018 126.3 71.4018 126.5 71.5018 126.9ZM70.1018 120.9C70.2018 121.3 69.9018 121.7 69.6018 121.8C69.3018 121.9 68.8018 121.6 68.7018 121.3C68.6018 120.9 68.9018 120.5 69.2018 120.4C69.5018 120.3 70.1018 120.5 70.1018 120.9ZM68.7018 114.8C68.8018 115.2 68.5018 115.6 68.2018 115.7C67.8018 115.8 67.4018 115.5 67.3018 115.2C67.2018 114.8 67.5018 114.4 67.8018 114.3C68.3018 114.2 68.7018 114.4 68.7018 114.8ZM67.4018 108.8C67.5018 109.2 67.2018 109.6 66.8018 109.6C66.4018 109.7 66.0018 109.4 66.0018 109C65.9018 108.6 66.2018 108.2 66.6018 108.1C67.0018 108.2 67.4018 108.4 67.4018 108.8ZM66.1018 102.8C66.2018 103.2 65.9018 103.6 65.5018 103.6C65.1018 103.7 64.7018 103.4 64.7018 103C64.6018 102.6 64.9018 102.2 65.3018 102.1C65.7018 102.1 66.1018 102.4 66.1018 102.8ZM64.8018 96.6998C64.9018 97.0998 64.6018 97.4998 64.2018 97.5998C63.8018 97.6998 63.4018 97.3998 63.4018 96.9998C63.3018 96.5998 63.6018 96.1998 64.0018 96.1998C64.4018 96.0998 64.8018 96.2998 64.8018 96.6998ZM63.6018 90.5998C63.7018 90.9998 63.4018 91.3998 63.0018 91.4998C62.6018 91.5998 62.2018 91.2999 62.2018 90.8998C62.1018 90.4998 62.4018 90.0998 62.8018 90.0998C63.2018 89.9998 63.6018 90.1998 63.6018 90.5998ZM62.4018 84.5998C62.5018 84.9998 62.2018 85.3998 61.8018 85.3998C61.4018 85.4998 61.0018 85.1999 61.0018 84.7999C60.9018 84.3998 61.2018 83.9998 61.6018 83.8998C62.0018 83.8998 62.3018 84.1998 62.4018 84.5998ZM61.3018 78.4998C61.4018 78.8998 61.1018 79.2999 60.7018 79.2999C60.3018 79.3998 59.9018 79.0998 59.9018 78.6998C59.8018 78.2998 60.1018 77.8998 60.5018 77.7999C60.9018 77.8998 61.2018 78.0998 61.3018 78.4998ZM60.1018 72.3998C60.2018 72.7999 59.9018 73.1999 59.5018 73.2999C59.1018 73.3998 58.7018 73.0998 58.7018 72.6998C58.6018 72.2998 58.9018 71.8998 59.3018 71.8998C59.8018 71.7999 60.1018 71.9998 60.1018 72.3998ZM59.1018 66.2999C59.2018 66.6999 58.9018 67.0998 58.5018 67.1998C58.1018 67.2998 57.7018 66.9999 57.7018 66.5998C57.6018 66.1998 57.9018 65.7999 58.3018 65.7999C58.7018 65.5999 59.0018 65.8999 59.1018 66.2999ZM58.1018 60.2999C58.2018 60.6999 57.9018 61.0998 57.5018 61.0998C57.1018 61.1998 56.7018 60.8999 56.7018 60.4999C56.6018 60.0998 56.9018 59.6998 57.3018 59.5998C57.6018 59.5998 58.0018 59.8998 58.1018 60.2999ZM57.0018 54.0998C57.1018 54.4999 56.8018 54.8999 56.4018 54.8999C56.0018 54.8999 55.6018 54.6999 55.6018 54.2999C55.5018 53.8998 55.8018 53.4999 56.2018 53.4999C56.6018 53.4999 56.9018 53.6998 57.0018 54.0998ZM56.1018 47.9999C56.2018 48.3999 55.9018 48.7999 55.5018 48.7999C55.1018 48.7999 54.7018 48.5999 54.7018 48.1999C54.6018 47.7999 54.9018 47.3999 55.3018 47.3999C55.6018 47.3999 56.0018 47.5998 56.1018 47.9999ZM55.1018 41.8999C55.1018 42.2999 54.9018 42.5999 54.5018 42.6999C54.1018 42.6999 53.8018 42.4999 53.7018 42.0998C53.7018 41.6998 53.9018 41.3998 54.3018 41.2999C54.7018 41.1999 55.1018 41.4999 55.1018 41.8999ZM54.2018 35.7998C54.2018 36.1998 54.0018 36.4999 53.6018 36.5998C53.2018 36.5998 52.9018 36.3998 52.8018 35.9998C52.8018 35.5998 53.0018 35.2999 53.4018 35.1999C53.8018 35.1999 54.2018 35.3998 54.2018 35.7998ZM53.3018 29.6999C53.3018 30.0998 53.1018 30.3998 52.7018 30.4998C52.3018 30.4998 52.0018 30.2998 51.9018 29.8998C51.9018 29.4998 52.1018 29.1999 52.5018 29.0998C53.0018 28.9998 53.3018 29.2999 53.3018 29.6999ZM52.6018 23.4998C52.6018 23.8998 52.4018 24.1998 52.0018 24.2998C51.6018 24.2998 51.3018 24.0998 51.2018 23.6999C51.2018 23.2999 51.4018 22.9998 51.8018 22.8998C52.2018 22.7998 52.5018 23.0998 52.6018 23.4998ZM51.8018 17.3998C51.8018 17.7998 51.6018 18.0999 51.2018 18.1999C50.8018 18.1999 50.5018 17.9999 50.4018 17.5999C50.4018 17.1999 50.6018 16.8998 51.0018 16.7998C51.4018 16.6998 51.8018 16.9999 51.8018 17.3998ZM51.1018 11.1999C51.1018 11.5999 50.9018 11.8999 50.5018 11.9999C50.1018 11.9999 49.8018 11.7998 49.7018 11.3998C49.7018 10.9998 49.9018 10.6999 50.3018 10.5999C50.7018 10.5999 51.1018 10.7998 51.1018 11.1999ZM50.4018 5.09985C50.4018 5.49985 50.2018 5.79985 49.8018 5.89985C49.4018 5.89985 49.1018 5.69985 49.0018 5.29985C49.0018 4.89985 49.2018 4.59985 49.6018 4.49985C50.1018 4.39985 50.4018 4.69985 50.4018 5.09985Z" fill="#FDFDFD"/>
<path d="M48.9009 486.1C48.6009 486.2 48.1009 486.1 48.0009 485.7C47.9009 485.4 48.0009 484.9 48.4009 484.8C48.7009 484.7 49.2009 484.8 49.3009 485.2C49.4009 485.5 49.3009 485.9 48.9009 486.1ZM54.6009 483.9C54.3009 484 53.8009 483.9 53.7009 483.5C53.6009 483.2 53.7009 482.7 54.1009 482.6C54.4009 482.5 54.9009 482.6 55.0009 483C55.1009 483.4 55.0009 483.8 54.6009 483.9ZM60.3009 481.7C59.9009 481.9 59.6009 481.7 59.4009 481.3C59.2009 480.9 59.4009 480.6 59.8009 480.4C60.2009 480.2 60.5009 480.4 60.7009 480.8C60.9009 481.1 60.7009 481.5 60.3009 481.7ZM65.9009 479.2C65.5009 479.4 65.1009 479.2 65.0009 478.8C64.8009 478.4 65.0009 478 65.4009 477.9C65.8009 477.7 66.2009 477.9 66.3009 478.3C66.4009 478.6 66.3009 479.1 65.9009 479.2ZM71.4009 476.5C71.0009 476.7 70.6009 476.5 70.5009 476.2C70.3009 475.8 70.5009 475.4 70.8009 475.3C71.2009 475.1 71.6009 475.3 71.7009 475.6C71.9009 476 71.8009 476.4 71.4009 476.5ZM76.9009 473.7C76.5009 473.9 76.1009 473.7 75.9009 473.5C75.7009 473.2 75.9009 472.7 76.1009 472.5C76.5009 472.3 76.9009 472.5 77.1009 472.7C77.3009 473.1 77.1009 473.5 76.9009 473.7ZM82.1009 470.6C81.7009 470.8 81.3009 470.7 81.1009 470.4C80.9009 470 81.0009 469.6 81.3009 469.4C81.7009 469.2 82.1009 469.3 82.3009 469.6C82.5009 470 82.4009 470.4 82.1009 470.6ZM87.3009 467.2C87.0009 467.4 86.5009 467.3 86.3009 467C86.1009 466.7 86.2009 466.2 86.5009 466C86.8009 465.8 87.3009 465.9 87.5009 466.2C87.6009 466.6 87.6009 467 87.3009 467.2ZM92.1009 463.6C91.8009 463.9 91.4009 463.8 91.1009 463.5C90.8009 463.2 90.9009 462.8 91.2009 462.5C91.5009 462.2 91.9009 462.3 92.2009 462.6C92.5009 462.9 92.5009 463.4 92.1009 463.6ZM93.0009 187.2C92.6009 187.3 92.2009 187.1 92.1009 186.7C92.0009 186.3 92.2009 185.9 92.6009 185.8M92.1009 180.4C92.2009 180.8 91.9009 181.2 91.6009 181.3C91.2009 181.4 90.8009 181.1 90.7009 180.8C90.6009 180.4 90.9009 180 91.2009 179.9C91.6009 179.8 92.0009 180.1 92.1009 180.4ZM90.6009 174.5C90.7009 174.9 90.4009 175.3 90.1009 175.4C89.8009 175.5 89.3009 175.2 89.2009 174.9C89.1009 174.5 89.4009 174.1 89.7009 174C90.2009 173.9 90.6009 174.1 90.6009 174.5ZM89.3009 168.6C89.4009 169 89.1009 169.4 88.8009 169.5C88.4009 169.6 88.0009 169.3 87.9009 169C87.8009 168.6 88.1009 168.2 88.4009 168.1C88.7009 167.9 89.2009 168.2 89.3009 168.6ZM87.8009 162.6C87.9009 163 87.6009 163.4 87.3009 163.5C86.9009 163.6 86.5009 163.3 86.4009 163C86.3009 162.6 86.6009 162.2 86.9009 162.1C87.3009 162 87.7009 162.3 87.8009 162.6ZM86.4009 156.7C86.5009 157.1 86.2009 157.5 85.9009 157.6C85.5009 157.7 85.1009 157.4 85.0009 157.1C84.9009 156.7 85.2009 156.3 85.5009 156.2C85.9009 156 86.3009 156.3 86.4009 156.7ZM85.0009 150.7C85.1009 151.1 84.8009 151.5 84.5009 151.6C84.1009 151.7 83.7009 151.4 83.6009 151.1C83.5009 150.7 83.8009 150.3 84.1009 150.2C84.6009 150.1 85.0009 150.4 85.0009 150.7ZM83.7009 144.8C83.8009 145.2 83.5009 145.6 83.2009 145.7C82.8009 145.8 82.4009 145.5 82.3009 145.2C82.2009 144.8 82.5009 144.4 82.8009 144.3C83.3009 144.2 83.6009 144.4 83.7009 144.8ZM82.4009 138.9C82.5009 139.3 82.2009 139.7 81.8009 139.8C81.4009 139.9 81.0009 139.6 81.0009 139.2C80.9009 138.8 81.2009 138.4 81.6009 138.4C82.0009 138.2 82.3009 138.5 82.4009 138.9ZM81.1009 132.9C81.2009 133.3 80.9009 133.7 80.5009 133.7C80.1009 133.8 79.7009 133.5 79.7009 133.1C79.6009 132.7 79.9009 132.3 80.3009 132.3C80.6009 132.3 81.0009 132.6 81.1009 132.9ZM79.8009 127C79.9009 127.4 79.6009 127.8 79.2009 127.8C78.8009 127.9 78.4009 127.6 78.4009 127.2C78.3009 126.8 78.6009 126.4 79.0009 126.3C79.3009 126.3 79.7009 126.6 79.8009 127ZM78.6009 121C78.7009 121.4 78.4009 121.8 78.0009 121.8C77.6009 121.9 77.2009 121.6 77.2009 121.2C77.1009 120.8 77.4009 120.4 77.8009 120.3C78.1009 120.3 78.5009 120.6 78.6009 121ZM77.3009 115.1C77.4009 115.5 77.1009 115.9 76.7009 116C76.3009 116.1 75.9009 115.8 75.9009 115.4C75.8009 115 76.1009 114.6 76.5009 114.6C76.9009 114.4 77.2009 114.7 77.3009 115.1ZM76.1009 109C76.2009 109.4 75.9009 109.8 75.5009 109.8C75.1009 109.9 74.7009 109.6 74.7009 109.2C74.6009 108.8 74.9009 108.4 75.3009 108.4C75.7009 108.4 76.0009 108.7 76.1009 109ZM75.0009 103.1C75.1009 103.5 74.8009 103.9 74.4009 103.9C74.0009 104 73.6009 103.7 73.6009 103.3C73.5009 102.9 73.8009 102.5 74.2009 102.4C74.5009 102.4 74.9009 102.7 75.0009 103.1ZM73.8009 97.1C73.9009 97.5 73.6009 97.9 73.2009 97.9C72.8009 98 72.4009 97.7 72.4009 97.3C72.3009 96.9 72.6009 96.5 73.0009 96.5C73.4009 96.5 73.7009 96.7 73.8009 97.1ZM72.7009 91.1C72.8009 91.5 72.5009 91.9 72.1009 91.9C71.7009 92 71.3009 91.7 71.3009 91.3C71.2009 90.9 71.5009 90.5 71.9009 90.4C72.2009 90.5 72.6009 90.7 72.7009 91.1ZM71.6009 85.1C71.7009 85.5 71.4009 85.9 71.0009 86C70.6009 86.1 70.2009 85.8 70.2009 85.4C70.1009 85 70.4009 84.6 70.8009 84.6C71.2009 84.4 71.5009 84.7 71.6009 85.1ZM70.5009 79.1C70.6009 79.5 70.3009 79.9 69.9009 79.9C69.5009 80 69.1009 79.7 69.1009 79.3C69.1009 78.9 69.3009 78.5 69.7009 78.4C70.1009 78.4 70.4009 78.7 70.5009 79.1ZM69.5009 73.1C69.6009 73.5 69.3009 73.9 68.9009 74C68.5009 74.1 68.1009 73.8 68.1009 73.4C68.0009 73 68.3009 72.6 68.7009 72.6C69.0009 72.4 69.4009 72.7 69.5009 73.1ZM68.5009 67.1C68.6009 67.5 68.3009 67.9 67.9009 67.9C67.5009 68 67.1009 67.7 67.1009 67.3C67.0009 66.9 67.3009 66.5 67.7009 66.5C68.1009 66.4 68.5009 66.7 68.5009 67.1ZM67.6009 61.1C67.7009 61.5 67.4009 61.9 67.0009 61.9C66.6009 62 66.2009 61.7 66.2009 61.3C66.1009 60.9 66.4009 60.5 66.8009 60.5C67.1009 60.4 67.5009 60.7 67.6009 61.1ZM66.6009 55.1C66.6009 55.5 66.4009 55.8 66.0009 55.9C65.6009 55.9 65.3009 55.7 65.2009 55.3C65.2009 54.9 65.4009 54.6 65.8009 54.5C66.2009 54.4 66.5009 54.7 66.6009 55.1ZM65.7009 49.1C65.7009 49.5 65.5009 49.8 65.1009 49.9C64.7009 49.9 64.4009 49.7 64.3009 49.3C64.3009 48.9 64.5009 48.6 64.9009 48.5C65.3009 48.4 65.7009 48.7 65.7009 49.1ZM64.9009 43C64.9009 43.4 64.7009 43.7 64.3009 43.8C63.9009 43.8 63.6009 43.6 63.5009 43.2C63.5009 42.8 63.7009 42.5 64.1009 42.4C64.5009 42.4 64.9009 42.6 64.9009 43ZM64.1009 36.9C64.1009 37.3 63.9009 37.6 63.5009 37.7C63.1009 37.7 62.8009 37.5 62.7009 37.1C62.7009 36.7 62.9009 36.4 63.3009 36.3C63.7009 36.3 64.0009 36.6 64.1009 36.9ZM63.3009 30.9C63.3009 31.3 63.1009 31.6 62.7009 31.7C62.3009 31.7 62.0009 31.5 61.9009 31.1C61.9009 30.7 62.1009 30.4 62.5009 30.3C62.9009 30.3 63.3009 30.5 63.3009 30.9ZM62.5009 24.9C62.5009 25.3 62.3009 25.6 61.9009 25.7C61.5009 25.7 61.2009 25.5 61.1009 25.1C61.1009 24.7 61.3009 24.4 61.7009 24.3C62.2009 24.2 62.5009 24.5 62.5009 24.9ZM61.9009 18.8C61.9009 19.2 61.7009 19.5 61.3009 19.6C60.9009 19.6 60.6009 19.4 60.5009 19C60.5009 18.6 60.7009 18.3 61.1009 18.2C61.5009 18.2 61.8009 18.4 61.9009 18.8ZM61.2009 12.7C61.2009 13.1 61.0009 13.4 60.6009 13.5C60.2009 13.5 59.9009 13.3 59.8009 12.9C59.8009 12.5 60.0009 12.2 60.4009 12.1C60.8009 12.1 61.2009 12.4 61.2009 12.7ZM60.6009 6.7C60.6009 7.1 60.4009 7.4 60.0009 7.5C59.6009 7.5 59.3009 7.3 59.2009 6.9C59.2009 6.5 59.4009 6.2 59.8009 6.1C60.2009 6 60.6009 6.3 60.6009 6.7ZM60.0009 0.6C60.0009 1 59.8009 1.3 59.4009 1.4C59.0009 1.4 58.7009 1.2 58.6009 0.8C58.6009 0.4 58.8009 0.1 59.2009 0C59.6009 0 60.0009 0.2 60.0009 0.6Z" fill="#FDFDFD"/>
<path d="M45.2993 486.8C44.9993 486.9 44.4993 486.8 44.3993 486.4C44.2993 486 44.3993 485.6 44.7993 485.5C45.0993 485.4 45.5993 485.5 45.6993 485.9C45.8993 486.3 45.6993 486.6 45.2993 486.8ZM50.8993 484.7C50.4993 484.9 50.0993 484.7 49.9993 484.3C49.7993 483.9 49.9993 483.5 50.3993 483.4C50.7993 483.2 51.1993 483.4 51.2993 483.8C51.3993 484.1 51.1993 484.5 50.8993 484.7ZM56.3993 482.4C55.9993 482.6 55.6993 482.4 55.4993 482C55.2993 481.6 55.4993 481.3 55.8993 481.1C56.2993 480.9 56.5993 481.1 56.7993 481.5C56.8993 481.9 56.7993 482.3 56.3993 482.4ZM61.7993 480C61.3993 480.2 60.9993 480 60.8993 479.7C60.6993 479.3 60.8993 478.9 61.1993 478.8C61.4993 478.7 61.9993 478.8 62.0993 479.1C62.2993 479.4 62.1993 479.8 61.7993 480ZM67.1993 477.4C66.7993 477.6 66.3994 477.4 66.2994 477.1C66.0993 476.7 66.2993 476.3 66.5993 476.2C66.9993 476 67.3993 476.2 67.4993 476.5C67.6993 476.7 67.5993 477.2 67.1993 477.4ZM72.4993 474.6C72.0993 474.8 71.6993 474.6 71.4993 474.4C71.2993 474 71.4993 473.6 71.6993 473.4C72.0993 473.2 72.4993 473.4 72.6993 473.6C72.8993 473.9 72.8993 474.4 72.4993 474.6ZM77.5993 471.5C77.1993 471.7 76.7993 471.6 76.5993 471.3C76.3993 470.9 76.4994 470.5 76.7994 470.3C77.1994 470.1 77.5993 470.2 77.7994 470.5C78.0993 471 77.9993 471.4 77.5993 471.5ZM82.6993 468.4C82.3993 468.6 81.8993 468.5 81.6993 468.2C81.4993 467.9 81.5993 467.4 81.8993 467.2C82.1993 467 82.6993 467.1 82.8993 467.4C83.0993 467.7 82.9993 468.1 82.6993 468.4ZM87.5993 464.9C87.2993 465.1 86.8993 465.1 86.5993 464.7C86.3993 464.4 86.3993 464 86.7994 463.7C87.0993 463.5 87.4994 463.5 87.7994 463.9C87.9994 464.3 87.8993 464.7 87.5993 464.9ZM92.2994 461.2C91.9994 461.5 91.5993 461.4 91.2994 461.1C90.9994 460.8 91.0993 460.4 91.3993 460.1C91.6993 459.8 92.0993 459.9 92.3993 460.2C92.5993 460.5 92.5993 461 92.2994 461.2ZM93.0993 155.4C92.6993 155.5 92.2994 155.2 92.2994 154.8C92.1994 154.4 92.4993 154 92.8993 153.9M92.4993 148.7C92.5993 149.1 92.2994 149.5 91.8993 149.6C91.4993 149.7 91.0993 149.4 91.0993 149C90.9993 148.6 91.2993 148.2 91.6993 148.2C92.0993 148 92.3993 148.3 92.4993 148.7ZM91.2994 142.9C91.3993 143.3 91.0993 143.7 90.6993 143.7C90.2993 143.8 89.8993 143.5 89.8993 143.1C89.8993 142.7 90.0993 142.3 90.4993 142.2C90.8993 142.2 91.1994 142.5 91.2994 142.9ZM90.0993 137C90.1993 137.4 89.8993 137.8 89.4993 137.8C89.0993 137.9 88.6993 137.6 88.6993 137.2C88.5993 136.8 88.8993 136.4 89.2994 136.4C89.6994 136.5 90.0993 136.7 90.0993 137ZM88.9993 131.2C89.0993 131.6 88.7994 132 88.3993 132C87.9993 132.1 87.5993 131.8 87.5993 131.4C87.4993 131 87.7993 130.6 88.1993 130.5C88.4993 130.6 88.8993 130.8 88.9993 131.2ZM87.8993 125.4C87.9993 125.8 87.6994 126.2 87.2994 126.3C86.8993 126.4 86.4993 126.1 86.4993 125.7C86.3993 125.3 86.6993 124.9 87.0993 124.9C87.3993 124.7 87.7994 125 87.8993 125.4ZM86.6993 119.5C86.7993 119.9 86.4993 120.3 86.0993 120.3C85.6993 120.4 85.2994 120.1 85.2994 119.7C85.1994 119.3 85.4993 118.9 85.8993 118.8C86.2994 118.9 86.6993 119.1 86.6993 119.5ZM85.5993 113.7C85.6993 114.1 85.3993 114.5 84.9993 114.6C84.5993 114.7 84.1993 114.4 84.1993 114C84.0993 113.6 84.3993 113.2 84.7994 113.2C85.1994 113 85.5993 113.3 85.5993 113.7ZM84.5993 107.9C84.6993 108.3 84.3993 108.7 83.9993 108.8C83.5993 108.9 83.1993 108.6 83.1993 108.2C83.0993 107.8 83.3993 107.4 83.7994 107.4C84.0993 107.2 84.4993 107.5 84.5993 107.9ZM83.4993 102C83.5993 102.4 83.2994 102.8 82.8993 102.8C82.4993 102.8 82.0993 102.6 82.0993 102.2C81.9993 101.8 82.2993 101.4 82.6993 101.3C83.0993 101.4 83.4993 101.6 83.4993 102ZM82.4993 96.1C82.5993 96.5 82.2994 96.9 81.8993 97C81.4993 97.1 81.0993 96.8 81.0993 96.4C80.9993 96 81.2993 95.6 81.6993 95.6C81.9993 95.5 82.4993 95.8 82.4993 96.1ZM81.4993 90.3C81.5993 90.7001 81.2994 91.1 80.8993 91.2C80.4993 91.3 80.0993 91 80.0993 90.6C79.9993 90.2 80.2993 89.8 80.6993 89.8C81.0993 89.6001 81.3993 89.9 81.4993 90.3ZM80.5993 84.4C80.6993 84.8 80.3993 85.2 79.9993 85.2C79.5993 85.3 79.1993 85 79.1993 84.6C79.0993 84.2 79.3993 83.8 79.7994 83.8C80.1994 83.8 80.4993 84 80.5993 84.4ZM79.5993 78.5C79.6993 78.9 79.3993 79.3 78.9993 79.3C78.5993 79.3 78.1993 79.1 78.1993 78.7C78.0993 78.3 78.3993 77.9 78.7994 77.9C79.1994 77.9 79.4993 78.1 79.5993 78.5ZM78.6993 72.7C78.6993 73.1 78.4993 73.5 78.0993 73.5C77.6993 73.5 77.2994 73.3 77.2994 72.9C77.2994 72.5 77.4993 72.1 77.8993 72.1C78.2994 72 78.5993 72.3 78.6993 72.7ZM77.7994 66.7C77.7994 67.1 77.5993 67.4 77.1993 67.5C76.7993 67.5 76.4993 67.3 76.3993 66.9C76.3993 66.5 76.5993 66.2 76.9993 66.1C77.3993 66.1 77.6994 66.3 77.7994 66.7ZM76.8993 60.9C76.8993 61.3 76.6994 61.6 76.2994 61.7C75.8994 61.7 75.5993 61.5 75.4993 61.1C75.4993 60.7 75.6993 60.4 76.0993 60.3C76.5993 60.2 76.8993 60.5 76.8993 60.9ZM76.0993 55C76.0993 55.4 75.8993 55.7 75.4993 55.8C75.0993 55.8 74.7993 55.6 74.6993 55.2C74.6993 54.8 74.8994 54.5 75.2994 54.4C75.7994 54.3 75.9993 54.6 76.0993 55ZM75.2994 49.1C75.2994 49.5 75.0993 49.8 74.6993 49.9C74.2993 49.9 73.9993 49.7 73.8993 49.3C73.8993 48.9 74.0993 48.6 74.4993 48.5C74.8993 48.4 75.1994 48.7 75.2994 49.1ZM74.4993 43.2C74.4993 43.6 74.2993 43.9 73.8993 44C73.4993 44 73.1993 43.8 73.0993 43.4C73.0993 43 73.2993 42.7 73.6993 42.6C74.0993 42.5 74.4993 42.8 74.4993 43.2ZM73.7994 37.3C73.7994 37.7 73.5993 38 73.1993 38.1C72.7993 38.1 72.4993 37.9 72.3993 37.5C72.3993 37.1 72.5993 36.8 72.9993 36.7C73.3993 36.6 73.7994 36.9 73.7994 37.3ZM73.0993 31.4C73.0993 31.8 72.8993 32.1 72.4993 32.2C72.0993 32.2 71.7993 32 71.6993 31.6C71.6993 31.2 71.8994 30.9 72.2994 30.8C72.7994 30.7 72.9993 31 73.0993 31.4ZM72.4993 25.5C72.4993 25.9 72.2993 26.2 71.8993 26.3C71.4993 26.4 71.1993 26.1 71.0993 25.7C71.0993 25.3 71.2993 25 71.6993 24.9C71.9993 24.8 72.3993 25.1 72.4993 25.5ZM71.7994 19.6C71.7994 20 71.5993 20.3 71.1993 20.4C70.7993 20.4 70.4993 20.2 70.3993 19.8C70.3993 19.4 70.5993 19.1 70.9993 19C71.4993 18.9 71.7994 19.2 71.7994 19.6ZM71.1993 13.6C71.1993 14 70.9993 14.3 70.5993 14.4C70.1993 14.4 69.8994 14.2 69.7994 13.8C69.7994 13.4 69.9993 13.1 70.3993 13C70.7993 13 71.1993 13.3 71.1993 13.6ZM70.6993 7.70005C70.6993 8.10005 70.4993 8.40005 70.0993 8.50005C69.6993 8.50005 69.3994 8.30005 69.2994 7.90005C69.2994 7.50005 69.4993 7.20005 69.8993 7.10005C70.2993 7.00005 70.5993 7.30005 70.6993 7.70005ZM70.0993 1.80005C70.0993 2.20005 69.8993 2.50005 69.4993 2.60005C69.0993 2.60005 68.7993 2.40005 68.6993 2.00005C68.6993 1.60005 68.8994 1.30005 69.2994 1.20005C69.6994 1.10005 70.0993 1.40005 70.0993 1.80005Z" fill="#FDFDFD"/>
<path d="M47.5019 485.5C47.1019 485.7 46.7019 485.5 46.6019 485.1C46.4019 484.7 46.6019 484.3 47.0019 484.2C47.4019 484 47.8019 484.2 47.9019 484.6C48.0019 485 47.8019 485.4 47.5019 485.5ZM52.8019 483.2C52.4019 483.4 52.1019 483.2 51.9019 482.8C51.7019 482.4 51.9019 482.1 52.3019 481.9C52.7019 481.7 53.0019 481.9 53.2019 482.3C53.4019 482.7 53.2019 483 52.8019 483.2ZM58.1019 480.8C57.7019 481 57.3019 480.8 57.2019 480.5C57.0019 480.1 57.2019 479.7 57.5019 479.6C57.9019 479.4 58.3019 479.6 58.4019 479.9C58.6019 480.2 58.5019 480.6 58.1019 480.8ZM63.4019 478.2C63.0019 478.4 62.6019 478.2 62.5019 477.9C62.3019 477.5 62.5019 477.1 62.8019 477C63.2019 476.8 63.6019 477 63.7019 477.3C63.9019 477.6 63.7019 478 63.4019 478.2ZM68.5019 475.4C68.1019 475.6 67.7019 475.4 67.5019 475.2C67.3019 474.8 67.5019 474.4 67.7019 474.2C68.1019 474 68.5019 474.2 68.7019 474.4C69.0019 474.8 68.8019 475.3 68.5019 475.4ZM73.5019 472.5C73.1019 472.7 72.7019 472.6 72.5019 472.3C72.3019 471.9 72.4019 471.5 72.7019 471.3C73.1019 471.1 73.5019 471.2 73.7019 471.5C74.0019 471.8 73.9019 472.3 73.5019 472.5ZM78.5019 469.4C78.2019 469.6 77.7019 469.5 77.5019 469.2C77.3019 468.9 77.4019 468.4 77.7019 468.2C78.0019 468 78.5019 468.1 78.7019 468.4C78.9019 468.7 78.8019 469.2 78.5019 469.4ZM83.3019 466.1C83.0019 466.3 82.5019 466.2 82.3019 465.9C82.1019 465.6 82.2019 465.1 82.5019 464.9C82.8019 464.7 83.3019 464.8 83.5019 465.1C83.6019 465.4 83.6019 465.8 83.3019 466.1ZM88.0019 462.6C87.7019 462.9 87.3019 462.8 87.0019 462.5C86.7019 462.2 86.8019 461.8 87.1019 461.5C87.4019 461.2 87.8019 461.3 88.1019 461.6C88.3019 461.8 88.3019 462.3 88.0019 462.6ZM92.4019 458.8C92.1019 459.1 91.7019 459 91.4019 458.7C91.1019 458.4 91.2019 458 91.5019 457.7C91.8019 457.4 92.2019 457.5 92.5019 457.8C92.8019 458.1 92.8019 458.6 92.4019 458.8ZM93.2019 106.7C93.3019 107.1 93.0019 107.5 92.6019 107.5C92.2019 107.6 91.8019 107.3 91.8019 106.9C91.7019 106.5 92.0019 106.1 92.4019 106.1C92.7019 106.1 93.1019 106.3 93.2019 106.7ZM92.2019 101C92.3019 101.4 92.0019 101.8 91.6019 101.8C91.2019 101.8 90.8019 101.6 90.8019 101.2C90.7019 100.8 91.0019 100.4 91.4019 100.4C91.8019 100.5 92.2019 100.7 92.2019 101ZM91.4019 95.3002C91.5019 95.7002 91.2019 96.1002 90.8019 96.1002C90.4019 96.1002 90.0019 95.9002 90.0019 95.5002C89.9019 95.1002 90.2019 94.7002 90.6019 94.7002C90.9019 94.7002 91.2019 94.9002 91.4019 95.3002ZM90.4019 89.5002C90.4019 89.9002 90.2019 90.3002 89.8019 90.3002C89.4019 90.3002 89.0019 90.1002 89.0019 89.7002C89.0019 89.3002 89.2019 88.9002 89.6019 88.9002C90.0019 88.9002 90.4019 89.2002 90.4019 89.5002ZM89.6019 83.8002C89.6019 84.2002 89.4019 84.5002 89.0019 84.6002C88.6019 84.6002 88.3019 84.4002 88.2019 84.0002C88.2019 83.6002 88.4019 83.3002 88.8019 83.2002C89.2019 83.1002 89.5019 83.4002 89.6019 83.8002ZM88.8019 78.0002C88.8019 78.4002 88.6019 78.7002 88.2019 78.8002C87.8019 78.8002 87.5019 78.6002 87.4019 78.2002C87.4019 77.8002 87.6019 77.5002 88.0019 77.4002C88.3019 77.4002 88.7019 77.6002 88.8019 78.0002ZM87.9019 72.3002C87.9019 72.7002 87.7019 73.0002 87.3019 73.1002C86.9019 73.1002 86.6019 72.9002 86.5019 72.5002C86.5019 72.1002 86.7019 71.8002 87.1019 71.7002C87.6019 71.6002 87.9019 71.9002 87.9019 72.3002ZM87.2019 66.5002C87.2019 66.9002 87.0019 67.2002 86.6019 67.3002C86.2019 67.3002 85.9019 67.1002 85.8019 66.7002C85.8019 66.3002 86.0019 66.0002 86.4019 65.9002C86.8019 65.9002 87.1019 66.2002 87.2019 66.5002ZM86.4019 60.8002C86.4019 61.2002 86.2019 61.5002 85.8019 61.6002C85.4019 61.6002 85.1019 61.4002 85.0019 61.0002C85.0019 60.6002 85.2019 60.3002 85.6019 60.2002C86.0019 60.1002 86.3019 60.4002 86.4019 60.8002ZM85.7019 55.0002C85.7019 55.4002 85.5019 55.7002 85.1019 55.8002C84.7019 55.8002 84.4019 55.6002 84.3019 55.2002C84.3019 54.8002 84.5019 54.5002 84.9019 54.4002C85.3019 54.4002 85.7019 54.6002 85.7019 55.0002ZM85.0019 49.2002C85.0019 49.6002 84.8019 49.9002 84.4019 50.0002C84.0019 50.0002 83.7019 49.8002 83.6019 49.4002C83.6019 49.0002 83.8019 48.7002 84.2019 48.6002C84.6019 48.6002 84.9019 48.8002 85.0019 49.2002ZM84.3019 43.5002C84.3019 43.9002 84.1019 44.2002 83.7019 44.3002C83.3019 44.3002 83.0019 44.1002 82.9019 43.7002C82.8019 43.3002 83.1019 43.0002 83.5019 42.9002C83.9019 42.8002 84.2019 43.1002 84.3019 43.5002ZM83.6019 37.7002C83.6019 38.1002 83.4019 38.4002 83.0019 38.5002C82.6019 38.5002 82.3019 38.3002 82.2019 37.9002C82.2019 37.5002 82.4019 37.2002 82.8019 37.1002C83.2019 37.0002 83.5019 37.3002 83.6019 37.7002ZM83.0019 31.9002C83.0019 32.3002 82.8019 32.6002 82.4019 32.7002C82.0019 32.7002 81.7019 32.5002 81.6019 32.1002C81.6019 31.7002 81.8019 31.4002 82.2019 31.3002C82.6019 31.2002 82.9019 31.5002 83.0019 31.9002ZM82.4019 26.1002C82.4019 26.5002 82.2019 26.8002 81.8019 26.9002C81.4019 26.9002 81.1019 26.7002 81.0019 26.3002C81.0019 25.9002 81.2019 25.6002 81.6019 25.5002C82.0019 25.5002 82.4019 25.8002 82.4019 26.1002ZM81.8019 20.4002C81.8019 20.8002 81.6019 21.1002 81.2019 21.2002C80.8019 21.2002 80.5019 21.0002 80.4019 20.6002C80.4019 20.2002 80.6019 19.9002 81.0019 19.8002C81.4019 19.7002 81.8019 20.0002 81.8019 20.4002ZM81.2019 14.6002C81.2019 15.0002 81.0019 15.3002 80.6019 15.4002C80.2019 15.4002 79.9019 15.2002 79.8019 14.8002C79.8019 14.4002 80.0019 14.1002 80.4019 14.0002C80.9019 13.9002 81.2019 14.2002 81.2019 14.6002ZM80.8019 8.80024C80.8019 9.20024 80.6019 9.50024 80.2019 9.60024C79.8019 9.60024 79.5019 9.40024 79.4019 9.00024C79.4019 8.60024 79.6019 8.30024 80.0019 8.20024C80.4019 8.10024 80.7019 8.40024 80.8019 8.80024ZM80.3019 3.00024C80.3019 3.40024 80.1019 3.70024 79.7019 3.80024C79.3019 3.80024 79.0019 3.60024 78.9019 3.20024C78.9019 2.80024 79.1019 2.50024 79.5019 2.40024C79.9019 2.30024 80.2019 2.60024 80.3019 3.00024Z" fill="#FDFDFD"/>
<path d="M45.0019 486.3C44.6019 486.5 44.3019 486.3 44.1019 485.9C43.9019 485.5 44.1019 485.2 44.5019 485C44.9019 484.8 45.2019 485 45.4019 485.4C45.5019 485.7 45.3019 486.2 45.0019 486.3ZM50.2019 483.9C49.8019 484.1 49.4019 483.9 49.3019 483.6C49.1019 483.2 49.3019 482.8 49.6019 482.7C50.0019 482.5 50.4019 482.7 50.5019 483C50.7019 483.3 50.5019 483.7 50.2019 483.9ZM55.4019 481.4C55.0019 481.6 54.6019 481.4 54.5019 481.1C54.3019 480.7 54.5019 480.3 54.8019 480.2C55.2019 480 55.6019 480.2 55.7019 480.5C55.9019 480.8 55.7019 481.3 55.4019 481.4ZM60.5019 478.7C60.1019 478.9 59.7019 478.7 59.6019 478.4C59.4019 478 59.6019 477.6 59.9019 477.5C60.3019 477.3 60.7019 477.5 60.8019 477.8C60.9019 478.2 60.8019 478.6 60.5019 478.7ZM65.5019 475.9C65.1019 476.1 64.7019 475.9 64.5019 475.7C64.3019 475.4 64.5019 474.9 64.7019 474.7C65.1019 474.5 65.5019 474.7 65.7019 474.9C65.9019 475.3 65.8019 475.8 65.5019 475.9ZM70.4019 473C70.0019 473.2 69.6019 473.1 69.4019 472.8C69.2019 472.4 69.3019 472 69.6019 471.8C70.0019 471.6 70.4019 471.7 70.6019 472C70.8019 472.4 70.8019 472.8 70.4019 473ZM75.2019 469.9C74.9019 470.1 74.4019 470 74.2019 469.7C74.0019 469.4 74.1019 468.9 74.4019 468.7C74.7019 468.5 75.2019 468.6 75.4019 468.9C75.6019 469.3 75.6019 469.7 75.2019 469.9ZM80.0019 466.6C79.7019 466.8 79.3019 466.7 79.0019 466.4C78.8019 466.1 78.9019 465.7 79.2019 465.4C79.5019 465.2 79.9019 465.3 80.2019 465.6C80.4019 465.9 80.3019 466.4 80.0019 466.6ZM84.5019 463.1C84.2019 463.4 83.8019 463.3 83.5019 463C83.2019 462.7 83.3019 462.3 83.6019 462C83.9019 461.7 84.3019 461.8 84.6019 462.1C84.9019 462.4 84.9019 462.9 84.5019 463.1ZM89.0019 459.5C88.7019 459.8 88.3019 459.7 88.0019 459.4C87.7019 459.1 87.8019 458.7 88.1019 458.4C88.4019 458.1 88.8019 458.2 89.1019 458.5C89.4019 458.8 89.3019 459.2 89.0019 459.5ZM92.3019 455.6C92.0019 455.3 92.0019 454.8 92.3019 454.6V455.6ZM92.9019 39.9002C92.5019 39.9002 92.2019 39.7002 92.1019 39.3002C92.1019 38.9002 92.3019 38.6002 92.7019 38.5002M93.0019 33.4002C93.0019 33.8002 92.8019 34.1002 92.4019 34.2002C92.0019 34.2002 91.7019 34.0002 91.6019 33.6002C91.6019 33.2002 91.8019 32.9002 92.2019 32.8002C92.6019 32.7002 93.0019 33.0002 93.0019 33.4002ZM92.4019 27.7002C92.4019 28.1002 92.2019 28.4002 91.8019 28.5002C91.4019 28.5002 91.1019 28.3002 91.0019 27.9002C91.0019 27.5002 91.2019 27.2002 91.6019 27.1002C92.0019 27.1002 92.4019 27.3002 92.4019 27.7002ZM91.9019 22.0002C91.9019 22.4002 91.7019 22.7002 91.3019 22.8002C90.9019 22.8002 90.6019 22.6002 90.5019 22.2002C90.5019 21.8002 90.7019 21.5002 91.1019 21.4002C91.5019 21.3002 91.9019 21.6002 91.9019 22.0002ZM91.4019 16.3002C91.4019 16.7002 91.2019 17.0002 90.8019 17.1002C90.4019 17.1002 90.1019 16.9002 90.0019 16.5002C90.0019 16.1002 90.2019 15.8002 90.6019 15.7002C91.0019 15.6002 91.4019 15.9002 91.4019 16.3002ZM90.9019 10.5002C90.9019 10.9002 90.7019 11.2002 90.3019 11.3002C89.9019 11.3002 89.6019 11.1002 89.5019 10.7002C89.5019 10.3002 89.7019 10.0002 90.1019 9.9002C90.5019 9.9002 90.9019 10.2002 90.9019 10.5002ZM90.5019 4.8002C90.5019 5.2002 90.3019 5.5002 89.9019 5.6002C89.5019 5.6002 89.2019 5.4002 89.1019 5.0002C89.1019 4.6002 89.3019 4.3002 89.7019 4.2002C90.1019 4.2002 90.5019 4.5002 90.5019 4.8002Z" fill="#FDFDFD"/>
<path d="M42.0002 487.2C41.8002 487.3 41.6002 487.2 41.5002 487C41.4002 486.8 41.5002 486.6 41.7002 486.5C41.9002 486.4 42.1002 486.5 42.2002 486.7C42.3002 486.9 42.2002 487.1 42.0002 487.2ZM47.0002 484.7C46.8002 484.8 46.6002 484.7 46.5002 484.5C46.4002 484.3 46.5002 484.1 46.7002 484C46.9002 483.9 47.1002 484 47.2002 484.2C47.3002 484.4 47.2002 484.6 47.0002 484.7ZM52.0002 482.1C51.8002 482.2 51.6002 482.1 51.5002 481.9C51.4002 481.7 51.5002 481.5 51.7002 481.4C51.9002 481.3 52.1002 481.4 52.2002 481.6C52.3002 481.8 52.2002 482 52.0002 482.1ZM56.9002 479.5C56.7002 479.6 56.5002 479.5 56.4002 479.3C56.3002 479.1 56.4002 478.9 56.6002 478.8C56.8002 478.7 57.0002 478.8 57.1002 479C57.2002 479.2 57.1002 479.4 56.9002 479.5ZM61.8002 476.7C61.6002 476.8 61.4002 476.7 61.3002 476.5C61.2002 476.3 61.3002 476.1 61.5002 476C61.7002 475.9 61.9002 476 62.0002 476.2C62.0002 476.4 62.0002 476.6 61.8002 476.7ZM66.6002 473.7C66.4002 473.8 66.2002 473.7 66.1002 473.6C66.0002 473.4 66.1002 473.2 66.2002 473.1C66.4002 473 66.6002 473.1 66.7002 473.2C66.8002 473.4 66.7002 473.6 66.6002 473.7ZM71.3002 470.6C71.1002 470.7 70.9002 470.7 70.8002 470.5C70.7002 470.3 70.7002 470.1 70.9002 470C71.1002 469.9 71.3002 469.9 71.4002 470.1C71.5002 470.4 71.4002 470.6 71.3002 470.6ZM75.9002 467.4C75.7002 467.5 75.5002 467.5 75.4002 467.3C75.3002 467.1 75.3002 466.9 75.5002 466.8C75.7002 466.7 75.9002 466.7 76.0002 466.9C76.0002 467.1 76.0002 467.3 75.9002 467.4ZM80.4002 464.1C80.2002 464.2 80.0002 464.2 79.9002 464C79.8002 463.8 79.8002 463.6 80.0002 463.5C80.2002 463.4 80.4002 463.4 80.5002 463.6C80.5002 463.8 80.5002 464 80.4002 464.1ZM84.7002 460.5C84.6002 460.6 84.3002 460.6 84.2002 460.5C84.1002 460.4 84.1002 460.1 84.2002 460C84.3002 459.9 84.6002 459.9 84.7002 460C84.9002 460.2 84.9002 460.4 84.7002 460.5ZM88.9002 456.9C88.8002 457 88.6002 457 88.4002 456.9C88.3002 456.8 88.3002 456.6 88.4002 456.4C88.5002 456.3 88.7002 456.3 88.9002 456.4C89.1002 456.5 89.1002 456.7 88.9002 456.9ZM93.0002 453C92.9002 453.1 92.7002 453.1 92.5002 453C92.4002 452.9 92.4002 452.7 92.5002 452.5C92.6002 452.4 92.8002 452.4 93.0002 452.5C93.2002 452.6 93.2002 452.8 93.0002 453Z" fill="#FDFDFD"/>
<path d="M43.8986 486.2C43.6986 486.3 43.4986 486.2 43.3986 486C43.2986 485.8 43.3986 485.6 43.5986 485.5C43.7986 485.4 43.9986 485.5 44.0986 485.7C44.0986 485.9 44.0986 486.1 43.8986 486.2ZM48.6986 483.6C48.4986 483.7 48.2986 483.6 48.1986 483.4C48.0986 483.2 48.1986 483 48.3986 482.9C48.5986 482.8 48.7986 482.9 48.8986 483.1C48.8986 483.3 48.7986 483.5 48.6986 483.6ZM53.3986 481C53.1986 481.1 52.9986 481 52.8986 480.8C52.7986 480.6 52.8986 480.4 53.0986 480.3C53.2986 480.2 53.4986 480.3 53.5986 480.5C53.6986 480.7 53.4986 480.9 53.3986 481ZM58.0986 478.2C57.8986 478.3 57.6986 478.2 57.5986 478.1C57.4986 478 57.5986 477.7 57.6986 477.6C57.8986 477.5 58.0986 477.6 58.1986 477.7C58.2986 477.8 58.2986 478 58.0986 478.2ZM62.5986 475.2C62.3986 475.3 62.1986 475.2 62.0986 475.1C61.9986 474.9 62.0986 474.7 62.1986 474.6C62.3986 474.5 62.5986 474.6 62.6986 474.7C62.8986 474.9 62.7986 475.1 62.5986 475.2ZM67.1986 472.2C66.9986 472.3 66.7986 472.3 66.6986 472.1C66.5986 471.9 66.5986 471.7 66.7986 471.6C66.9986 471.5 67.1986 471.5 67.2986 471.7C67.3986 471.9 67.3986 472.1 67.1986 472.2ZM71.5986 469.1C71.3986 469.2 71.1986 469.2 71.0986 469C70.9986 468.8 70.9986 468.6 71.1986 468.5C71.3986 468.4 71.5986 468.4 71.6986 468.6C71.7986 468.7 71.6986 468.9 71.5986 469.1ZM75.9986 465.7C75.7986 465.8 75.5986 465.8 75.4986 465.6C75.3986 465.4 75.3986 465.2 75.5986 465.1C75.7986 465 75.9986 465 76.0986 465.2C76.0986 465.4 76.1986 465.6 75.9986 465.7ZM80.1986 462.3C80.0986 462.4 79.7986 462.4 79.6986 462.3C79.5986 462.2 79.5986 461.9 79.6986 461.8C79.7986 461.7 80.0986 461.7 80.1986 461.8C80.2986 461.9 80.3986 462.2 80.1986 462.3ZM84.2986 458.8C84.1986 458.9 83.9986 458.9 83.7986 458.8C83.6986 458.7 83.6986 458.5 83.7986 458.3C83.8986 458.2 84.0986 458.2 84.2986 458.3C84.4986 458.5 84.4986 458.7 84.2986 458.8ZM88.2986 455.1C88.1986 455.2 87.9986 455.2 87.7986 455.1C87.5986 455 87.6986 454.8 87.7986 454.6C87.8986 454.5 88.0986 454.5 88.2986 454.6C88.4986 454.7 88.4986 455 88.2986 455.1ZM92.2986 451.3C92.1986 451.4 91.9986 451.4 91.7986 451.3C91.6986 451.2 91.6986 451 91.7986 450.8C91.8986 450.7 92.0986 450.7 92.2986 450.8C92.3986 451 92.3986 451.2 92.2986 451.3Z" fill="#FDFDFD"/>
<path d="M46.1017 485.1C45.9017 485.2 45.7017 485.1 45.6017 484.9C45.5017 484.7 45.6017 484.5 45.8017 484.4C46.0017 484.3 46.2017 484.4 46.3017 484.6C46.4017 484.7 46.3017 485 46.1017 485.1ZM50.7017 482.3C50.5017 482.4 50.3017 482.3 50.2017 482.2C50.1017 482.1 50.2017 481.8 50.3017 481.7C50.5017 481.6 50.7017 481.7 50.8017 481.8C50.9017 481.9 50.8017 482.2 50.7017 482.3ZM55.2017 479.5C55.0017 479.6 54.8017 479.5 54.7017 479.4C54.6017 479.3 54.7017 479 54.8017 478.9C55.0017 478.8 55.2017 478.9 55.3017 479C55.4017 479.1 55.3017 479.3 55.2017 479.5ZM59.6017 476.5C59.4017 476.6 59.2017 476.6 59.1017 476.4C59.0017 476.2 59.0017 476 59.2017 475.9C59.4017 475.8 59.6017 475.8 59.7017 476C59.8017 476.2 59.8017 476.4 59.6017 476.5ZM64.0017 473.4C63.8017 473.5 63.6017 473.5 63.5017 473.3C63.4017 473.1 63.4017 472.9 63.6017 472.8C63.8017 472.7 64.0017 472.7 64.1017 472.9C64.2017 473.1 64.2017 473.3 64.0017 473.4ZM68.3017 470.3C68.1017 470.4 67.9017 470.4 67.8017 470.2C67.7017 470 67.7017 469.8 67.9017 469.7C68.1017 469.6 68.3017 469.6 68.4017 469.8C68.4017 469.9 68.4017 470.2 68.3017 470.3ZM72.5017 467C72.3017 467.1 72.1017 467.1 72.0017 466.9C71.9017 466.7 71.9017 466.5 72.1017 466.4C72.3017 466.3 72.5017 466.3 72.6017 466.5C72.6017 466.6 72.6017 466.9 72.5017 467ZM76.6017 463.6C76.5017 463.7 76.2017 463.7 76.1017 463.6C76.0017 463.5 76.0017 463.2 76.1017 463.1C76.2017 463 76.5017 463 76.6017 463.1C76.7017 463.2 76.8017 463.5 76.6017 463.6ZM80.6017 460.1C80.5017 460.2 80.3017 460.2 80.1017 460.1C80.0017 460 80.0017 459.8 80.1017 459.6C80.2017 459.5 80.4017 459.5 80.6017 459.6C80.8017 459.8 80.7017 460 80.6017 460.1ZM84.6017 456.5C84.5017 456.6 84.3017 456.6 84.1017 456.5C84.0017 456.4 84.0017 456.2 84.1017 456C84.2017 455.9 84.4017 455.9 84.6017 456C84.8017 456.1 84.7017 456.4 84.6017 456.5ZM88.4017 452.8C88.3017 452.9 88.1017 452.9 87.9017 452.8C87.8017 452.7 87.8017 452.5 87.9017 452.3C88.0017 452.2 88.2017 452.2 88.4017 452.3C88.5017 452.4 88.5017 452.7 88.4017 452.8ZM92.1017 448.9C92.0017 449.1 91.7017 449.1 91.6017 448.9C91.4017 448.8 91.4017 448.5 91.6017 448.4C91.7017 448.2 92.0017 448.2 92.1017 448.4C92.2017 448.6 92.2017 448.8 92.1017 448.9Z" fill="#FDFDFD"/>
<path d="M43.7992 486.7C43.5992 486.8 43.3992 486.7 43.2992 486.6C43.1992 486.4 43.2992 486.2 43.3992 486.1C43.5992 486 43.7992 486.1 43.8992 486.2C43.9992 486.4 43.9992 486.6 43.7992 486.7ZM48.1992 483.8C47.9992 483.9 47.7992 483.9 47.6992 483.7C47.5992 483.5 47.5992 483.3 47.7992 483.2C47.9992 483.1 48.1992 483.1 48.2992 483.3C48.3992 483.5 48.3992 483.8 48.1992 483.8ZM52.4992 480.9C52.2992 481 52.0992 481 51.9992 480.8C51.8992 480.6 51.8992 480.4 52.0992 480.3C52.2992 480.2 52.4992 480.2 52.5992 480.4C52.6992 480.6 52.6992 480.8 52.4992 480.9ZM56.7992 477.9C56.5992 478 56.3992 478 56.2992 477.8C56.1992 477.6 56.1992 477.4 56.3992 477.3C56.5992 477.2 56.7992 477.2 56.8992 477.4C56.9992 477.6 56.8992 477.8 56.7992 477.9ZM60.9992 474.8C60.7992 474.9 60.5992 474.9 60.4992 474.7C60.3992 474.5 60.3992 474.3 60.5992 474.2C60.7992 474.1 60.9992 474.1 61.0992 474.3C61.1992 474.5 61.0992 474.7 60.9992 474.8ZM65.0992 471.6C64.8992 471.7 64.6992 471.7 64.5992 471.5C64.4992 471.3 64.4992 471.1 64.6992 471C64.8992 470.9 65.0992 470.9 65.1992 471.1C65.2992 471.3 65.2992 471.5 65.0992 471.6ZM69.1992 468.3C69.0992 468.4 68.7992 468.4 68.6992 468.3C68.5992 468.2 68.5992 467.9 68.6992 467.8C68.7992 467.7 69.0992 467.7 69.1992 467.8C69.3992 468 69.2992 468.2 69.1992 468.3ZM73.1992 465C73.0992 465.1 72.8992 465.1 72.6992 465C72.5992 464.9 72.5992 464.7 72.6992 464.5C72.7992 464.4 72.9992 464.4 73.1992 464.5C73.3992 464.6 73.2992 464.8 73.1992 465ZM77.0992 461.5C76.9992 461.6 76.7992 461.6 76.5992 461.5C76.4992 461.4 76.4992 461.2 76.5992 461C76.6992 460.9 76.8992 460.9 77.0992 461C77.2992 461.1 77.2992 461.3 77.0992 461.5ZM80.8992 457.9C80.7992 458 80.5992 458 80.3992 457.9C80.2992 457.8 80.2992 457.6 80.3992 457.4C80.4992 457.3 80.6992 457.3 80.8992 457.4C81.0992 457.6 81.0992 457.8 80.8992 457.9ZM84.6992 454.3C84.5992 454.4 84.3992 454.4 84.1992 454.3C84.0992 454.2 84.0992 454 84.1992 453.8C84.2992 453.7 84.4992 453.7 84.6992 453.8C84.7992 453.9 84.7992 454.1 84.6992 454.3ZM88.2992 450.5C88.1992 450.6 87.8992 450.7 87.7992 450.5C87.6992 450.4 87.5992 450.1 87.7992 450C87.8992 449.9 88.1992 449.8 88.2992 450C88.4992 450.2 88.4992 450.4 88.2992 450.5ZM91.7992 446.7C91.6992 446.9 91.3992 446.9 91.2992 446.7C91.0992 446.6 91.0992 446.3 91.2992 446.2C91.3992 446 91.6992 446 91.7992 446.2C91.9992 446.3 91.9992 446.5 91.7992 446.7Z" fill="#FDFDFD"/>
<path d="M45.6985 485.9C45.4985 486 45.2985 486 45.1985 485.8C45.0985 485.6 45.0985 485.4 45.2985 485.3C45.4985 485.2 45.6985 485.2 45.7985 485.4C45.8985 485.6 45.8985 485.8 45.6985 485.9ZM49.7985 482.9C49.5985 483 49.3985 483 49.2985 482.8C49.1985 482.6 49.1985 482.4 49.3985 482.3C49.5985 482.2 49.7985 482.2 49.8985 482.4C49.8985 482.6 49.8985 482.9 49.7985 482.9ZM53.7985 479.8C53.5985 479.9 53.3985 479.9 53.2985 479.7C53.1985 479.5 53.1985 479.3 53.3985 479.2C53.5985 479.1 53.7985 479.1 53.8985 479.3C53.9985 479.5 53.9985 479.7 53.7985 479.8ZM57.7985 476.7C57.5985 476.8 57.3985 476.8 57.2985 476.6C57.1985 476.4 57.1985 476.2 57.3985 476.1C57.5985 476 57.7985 476 57.8985 476.2C57.9985 476.4 57.9985 476.6 57.7985 476.7ZM61.6985 473.5C61.5985 473.6 61.2985 473.6 61.1985 473.5C61.0985 473.4 61.0985 473.1 61.1985 473C61.2985 472.9 61.5985 472.9 61.6985 473C61.8985 473.1 61.8985 473.4 61.6985 473.5ZM65.5985 470.2C65.4985 470.3 65.1985 470.3 65.0985 470.2C64.9985 470.1 64.9985 469.8 65.0985 469.7C65.1985 469.6 65.4985 469.6 65.5985 469.7C65.7985 469.9 65.7985 470.1 65.5985 470.2ZM69.4985 466.9C69.3985 467 69.1985 467 68.9985 466.9C68.8985 466.8 68.8985 466.6 68.9985 466.4C69.0985 466.3 69.2985 466.3 69.4985 466.4C69.5985 466.6 69.5985 466.8 69.4985 466.9ZM73.1985 463.4C73.0985 463.5 72.8985 463.5 72.6985 463.4C72.5985 463.3 72.5985 463.1 72.6985 462.9C72.7985 462.8 72.9985 462.8 73.1985 462.9C73.3985 463.1 73.3985 463.3 73.1985 463.4ZM76.8985 460C76.7985 460.1 76.5985 460.1 76.3985 460C76.1985 459.9 76.2985 459.7 76.3985 459.5C76.4985 459.4 76.6985 459.4 76.8985 459.5C77.0985 459.6 76.9985 459.8 76.8985 460ZM80.4985 456.3C80.3985 456.4 80.1985 456.4 79.9985 456.3C79.8985 456.2 79.8985 456 79.9985 455.8C80.0985 455.7 80.2985 455.7 80.4985 455.8C80.5985 456 80.5985 456.2 80.4985 456.3ZM84.0985 452.7C83.9985 452.8 83.6985 452.9 83.5985 452.7C83.4985 452.6 83.3985 452.3 83.5985 452.2C83.6985 452.1 83.9985 452 84.0985 452.2C84.1985 452.4 84.1985 452.6 84.0985 452.7ZM87.4985 449C87.3985 449.2 87.0985 449.2 86.9985 449C86.7985 448.9 86.7985 448.6 86.9985 448.5C87.0985 448.3 87.3985 448.3 87.4985 448.5C87.6985 448.6 87.6985 448.8 87.4985 449ZM90.8985 445.2C90.7985 445.4 90.4985 445.4 90.3985 445.2C90.1985 445.1 90.1985 444.8 90.3985 444.7C90.4985 444.5 90.7985 444.5 90.8985 444.7C91.0985 444.8 91.0985 445 90.8985 445.2Z" fill="#FDFDFD"/>
<path d="M47.4993 485.1C47.3993 485.2 47.0993 485.2 46.9993 485C46.8993 484.8 46.8993 484.6 47.0993 484.5C47.1993 484.4 47.4993 484.4 47.5993 484.6C47.6993 484.8 47.5993 485 47.4993 485.1ZM51.2993 482C51.1993 482.1 50.8993 482.1 50.7993 482C50.6993 481.9 50.6993 481.6 50.7993 481.5C50.8993 481.4 51.1993 481.4 51.2993 481.5C51.3993 481.6 51.3993 481.9 51.2993 482ZM55.0993 478.8C54.9993 478.9 54.6993 478.9 54.5993 478.8C54.4993 478.7 54.4993 478.4 54.5993 478.3C54.6993 478.2 54.9993 478.2 55.0993 478.3C55.1993 478.4 55.1993 478.7 55.0993 478.8ZM58.7993 475.5C58.6993 475.6 58.4993 475.6 58.2993 475.5C58.1993 475.4 58.1993 475.2 58.2993 475C58.3993 474.9 58.5993 474.9 58.7993 475C58.9993 475.1 58.9993 475.4 58.7993 475.5ZM62.4993 472.2C62.3993 472.3 62.1993 472.3 61.9993 472.2C61.8993 472.1 61.8993 471.9 61.9993 471.7C62.0993 471.6 62.2993 471.6 62.4993 471.7C62.6993 471.8 62.5993 472.1 62.4993 472.2ZM66.1993 468.8C66.0993 468.9 65.8993 468.9 65.6993 468.8C65.4993 468.7 65.5993 468.5 65.6993 468.3C65.7993 468.2 65.9993 468.2 66.1993 468.3C66.3993 468.4 66.2993 468.7 66.1993 468.8ZM69.6993 465.5C69.5993 465.6 69.3993 465.6 69.1993 465.5C69.0993 465.4 69.0993 465.2 69.1993 465C69.2993 464.9 69.4993 464.9 69.6993 465C69.8993 465.1 69.8993 465.3 69.6993 465.5ZM73.2993 462C73.1993 462.1 72.9993 462.1 72.7993 462C72.5993 461.9 72.6993 461.7 72.7993 461.5C72.8993 461.4 73.0993 461.4 73.2993 461.5C73.3993 461.6 73.3993 461.9 73.2993 462ZM76.6993 458.4C76.5993 458.5 76.2993 458.6 76.1993 458.4C76.0993 458.3 75.9993 458 76.1993 457.9C76.2993 457.8 76.5993 457.7 76.6993 457.9C76.8993 458.1 76.8993 458.3 76.6993 458.4ZM80.1993 454.8C80.0993 455 79.7993 455 79.6993 454.8C79.4993 454.7 79.4993 454.4 79.6993 454.3C79.7993 454.1 80.0993 454.1 80.1993 454.3C80.2993 454.5 80.2993 454.7 80.1993 454.8ZM83.4993 451.2C83.3993 451.4 83.0993 451.4 82.9993 451.2C82.7993 451.1 82.7993 450.8 82.9993 450.7C83.0993 450.5 83.3993 450.5 83.4993 450.7C83.5993 450.8 83.5993 451 83.4993 451.2ZM86.7993 447.5C86.6993 447.7 86.3993 447.7 86.2993 447.5C86.0993 447.4 86.0993 447.1 86.2993 447C86.3993 446.8 86.6993 446.8 86.7993 447C86.8993 447.1 86.8993 447.3 86.7993 447.5ZM89.9993 443.7C89.8993 443.9 89.5993 443.9 89.4993 443.8C89.2993 443.7 89.2993 443.4 89.3993 443.3C89.4993 443.1 89.7993 443.1 89.8993 443.2C90.0993 443.3 90.0993 443.5 89.9993 443.7ZM93.0993 439.9C92.9993 440.1 92.6993 440.1 92.5993 440C92.4993 439.9 92.3993 439.6 92.4993 439.5C92.5993 439.3 92.8993 439.3 92.9993 439.4C93.1993 439.5 93.2993 439.7 93.0993 439.9Z" fill="#FDFDFD"/>
<path d="M49.0008 484.4C48.9008 484.5 48.7008 484.5 48.5008 484.4C48.4008 484.3 48.4008 484.1 48.5008 483.9C48.6008 483.8 48.8008 483.8 49.0008 483.9C49.2008 484.1 49.2008 484.3 49.0008 484.4ZM52.6008 481.1C52.5008 481.2 52.3008 481.2 52.1008 481.1C52.0008 481 52.0008 480.8 52.1008 480.6C52.2008 480.5 52.4008 480.5 52.6008 480.6C52.7008 480.8 52.7008 481 52.6008 481.1ZM56.1008 477.8C56.0008 477.9 55.8008 477.9 55.6008 477.8C55.5008 477.7 55.5008 477.5 55.6008 477.3C55.7008 477.2 55.9008 477.2 56.1008 477.3C56.3008 477.5 56.3008 477.7 56.1008 477.8ZM59.6008 474.5C59.5008 474.6 59.3008 474.6 59.1008 474.5C59.0008 474.4 59.0008 474.2 59.1008 474C59.2008 473.9 59.4008 473.9 59.6008 474C59.7008 474.1 59.7008 474.4 59.6008 474.5ZM63.0008 471.1C62.9008 471.2 62.7008 471.2 62.5008 471.1C62.3008 471 62.4008 470.8 62.5008 470.6C62.6008 470.5 62.8008 470.5 63.0008 470.6C63.2008 470.7 63.2008 471 63.0008 471.1ZM66.5008 467.7C66.4008 467.8 66.2008 467.8 66.0008 467.7C65.9008 467.6 65.9008 467.4 66.0008 467.2C66.1008 467.1 66.3008 467.1 66.5008 467.2C66.7008 467.3 66.6008 467.6 66.5008 467.7ZM69.8008 464.2C69.7008 464.3 69.4008 464.4 69.3008 464.2C69.2008 464.1 69.1008 463.8 69.3008 463.7C69.4008 463.6 69.7008 463.5 69.8008 463.7C69.9008 463.8 69.9008 464.1 69.8008 464.2ZM73.1008 460.7C73.0008 460.9 72.7008 460.9 72.6008 460.7C72.4008 460.6 72.4008 460.3 72.6008 460.2C72.7008 460 73.0008 460 73.1008 460.2C73.2008 460.3 73.2008 460.5 73.1008 460.7ZM76.4008 457.1C76.3008 457.3 76.0008 457.3 75.9008 457.1C75.7008 457 75.7008 456.7 75.9008 456.6C76.0008 456.4 76.3008 456.4 76.4008 456.6C76.5008 456.7 76.5008 456.9 76.4008 457.1ZM79.6008 453.5C79.5008 453.7 79.2008 453.7 79.1008 453.5C79.0008 453.3 78.9008 453.1 79.1008 453C79.2008 452.8 79.5008 452.8 79.6008 453C79.7008 453.1 79.7008 453.3 79.6008 453.5ZM82.7008 449.9C82.6008 450.1 82.3008 450.1 82.2008 449.9C82.0008 449.8 82.0008 449.5 82.2008 449.4C82.3008 449.2 82.6008 449.2 82.7008 449.4C82.9008 449.5 82.9008 449.7 82.7008 449.9ZM85.9008 446.2C85.8008 446.4 85.5008 446.4 85.4008 446.3C85.2008 446.2 85.2008 445.9 85.3008 445.8C85.4008 445.6 85.7008 445.6 85.8008 445.7C86.0008 445.8 86.0008 446 85.9008 446.2ZM88.9008 442.4C88.8008 442.6 88.5008 442.6 88.4008 442.5C88.3008 442.4 88.2008 442.1 88.3008 442C88.4008 441.8 88.7008 441.8 88.8008 441.9C89.1008 442 89.1008 442.2 88.9008 442.4ZM92.0008 438.7C91.9008 438.9 91.6008 438.9 91.5008 438.8C91.3008 438.7 91.3008 438.4 91.4008 438.3C91.5008 438.1 91.8008 438.1 91.9008 438.2C92.0008 438.2 92.1008 438.5 92.0008 438.7Z" fill="#FDFDFD"/>
<path d="M47.3016 487.2C47.2016 487.3 47.0016 487.3 46.8016 487.2C46.7016 487.1 46.7016 486.9 46.8016 486.7C46.9016 486.6 47.1016 486.6 47.3016 486.7C47.4016 486.8 47.4016 487.1 47.3016 487.2ZM50.5016 483.8C50.4016 483.9 50.1016 484 50.0016 483.8C49.8016 483.6 49.8016 483.4 50.0016 483.3C50.1016 483.2 50.4016 483.1 50.5016 483.3C50.7016 483.5 50.7016 483.6 50.5016 483.8ZM53.8016 480.4C53.7016 480.5 53.4016 480.6 53.3016 480.4C53.2016 480.3 53.1016 480 53.3016 479.9C53.4016 479.8 53.7016 479.7 53.8016 479.9C54.0016 480 54.0016 480.2 53.8016 480.4ZM57.1016 477C57.0016 477.1 56.7016 477.2 56.6016 477C56.5016 476.9 56.4016 476.6 56.6016 476.5C56.7016 476.4 57.0016 476.3 57.1016 476.5C57.2016 476.6 57.2016 476.9 57.1016 477ZM60.3016 473.5C60.2016 473.7 59.9016 473.7 59.8016 473.5C59.6016 473.4 59.6016 473.1 59.8016 473C59.9016 472.8 60.2016 472.8 60.3016 473C60.4016 473.2 60.4016 473.4 60.3016 473.5ZM63.5016 470C63.4016 470.2 63.1016 470.2 63.0016 470C62.8016 469.9 62.8016 469.6 63.0016 469.5C63.1016 469.3 63.4016 469.3 63.5016 469.5C63.6016 469.7 63.6016 469.9 63.5016 470ZM66.7016 466.5C66.6016 466.7 66.3016 466.7 66.2016 466.5C66.0016 466.4 66.0016 466.1 66.2016 466C66.3016 465.8 66.6016 465.8 66.7016 466C66.8016 466.2 66.8016 466.4 66.7016 466.5ZM69.8016 463.1C69.7016 463.3 69.4016 463.3 69.3016 463.1C69.1016 463 69.1016 462.7 69.3016 462.6C69.4016 462.4 69.7016 462.4 69.8016 462.6C69.9016 462.7 69.9016 462.9 69.8016 463.1ZM72.9016 459.5C72.8016 459.7 72.5016 459.7 72.4016 459.5C72.2016 459.4 72.2016 459.1 72.4016 459C72.5016 458.8 72.8016 458.8 72.9016 459C73.0016 459.1 73.0016 459.3 72.9016 459.5ZM75.9016 455.9C75.8016 456.1 75.5016 456.1 75.4016 455.9C75.2016 455.8 75.2016 455.5 75.4016 455.4C75.5016 455.2 75.8016 455.2 75.9016 455.4C76.1016 455.5 76.1016 455.7 75.9016 455.9ZM79.0016 452.3C78.9016 452.5 78.6016 452.5 78.5016 452.4C78.3016 452.3 78.3016 452 78.4016 451.9C78.5016 451.7 78.8016 451.7 78.9016 451.8C79.1016 451.9 79.1016 452.1 79.0016 452.3ZM82.0016 448.6C81.9016 448.8 81.6016 448.8 81.5016 448.7C81.3016 448.6 81.3016 448.3 81.4016 448.2C81.5016 448 81.8016 448 81.9016 448.1C82.1016 448.2 82.1016 448.5 82.0016 448.6ZM85.0016 444.9C84.9016 445.1 84.6016 445.1 84.5016 445C84.3016 444.9 84.3016 444.6 84.4016 444.5C84.5016 444.3 84.8016 444.3 84.9016 444.4C85.1016 444.6 85.1016 444.8 85.0016 444.9ZM87.9016 441.2C87.8016 441.4 87.5016 441.4 87.4016 441.3C87.3016 441.2 87.2016 440.9 87.3016 440.8C87.4016 440.6 87.7016 440.6 87.8016 440.7C88.0016 440.8 88.0016 441.1 87.9016 441.2ZM90.7016 437.4C90.6016 437.6 90.3016 437.6 90.2016 437.5C90.0016 437.4 90.0016 437.1 90.1016 437C90.2016 436.8 90.5016 436.8 90.6016 436.9C90.8016 437.1 90.8016 437.3 90.7016 437.4ZM93.1016 433.8C92.9016 433.7 92.9016 433.4 93.0016 433.3L93.1016 433.8Z" fill="#FDFDFD"/>
<path d="M48.7008 487C48.6008 487.2 48.3008 487.2 48.2008 487C48.0008 486.9 48.0008 486.6 48.2008 486.5C48.3008 486.3 48.6008 486.3 48.7008 486.5C48.8008 486.6 48.8008 486.9 48.7008 487ZM51.7008 483.6C51.6008 483.8 51.3008 483.8 51.2008 483.6C51.0008 483.5 51.0008 483.2 51.2008 483.1C51.3008 482.9 51.6008 482.9 51.7008 483.1C51.8008 483.2 51.8008 483.4 51.7008 483.6ZM54.7008 480C54.6008 480.2 54.3008 480.2 54.2008 480C54.0008 479.9 54.0008 479.6 54.2008 479.5C54.3008 479.3 54.6008 479.3 54.7008 479.5C54.8008 479.7 54.8008 479.9 54.7008 480ZM57.6008 476.6C57.5008 476.8 57.2008 476.8 57.1008 476.6C56.9008 476.5 56.9008 476.2 57.1008 476.1C57.3008 476 57.5008 475.9 57.6008 476.1C57.7008 476.2 57.8008 476.5 57.6008 476.6ZM60.6008 473.1C60.5008 473.3 60.2008 473.3 60.1008 473.1C59.9008 473 59.9008 472.7 60.1008 472.6C60.2008 472.4 60.5008 472.4 60.6008 472.6C60.7008 472.7 60.7008 472.9 60.6008 473.1ZM63.6008 469.5C63.5008 469.7 63.2008 469.7 63.1008 469.6C62.9008 469.5 62.9008 469.2 63.0008 469.1C63.1008 468.9 63.4008 468.9 63.5008 469C63.7008 469.2 63.7008 469.4 63.6008 469.5ZM66.5008 466C66.4008 466.2 66.1008 466.2 66.0008 466.1C65.8008 466 65.8008 465.7 65.9008 465.6C66.0008 465.4 66.3008 465.4 66.4008 465.5C66.5008 465.6 66.6008 465.9 66.5008 466ZM69.4008 462.5C69.3008 462.7 69.0008 462.7 68.9008 462.6C68.7008 462.5 68.7008 462.2 68.8008 462.1C68.9008 461.9 69.2008 461.9 69.3008 462C69.5008 462.1 69.5008 462.3 69.4008 462.5ZM72.2008 458.9C72.1008 459.1 71.8008 459.1 71.7008 459C71.5008 458.9 71.5008 458.6 71.6008 458.5C71.7008 458.3 72.0008 458.3 72.1008 458.4C72.3008 458.5 72.3008 458.8 72.2008 458.9ZM75.1008 455.3C75.0008 455.5 74.7008 455.5 74.6008 455.4C74.4008 455.3 74.4008 455 74.5008 454.9C74.6008 454.7 74.9008 454.7 75.0008 454.8C75.1008 454.9 75.2008 455.2 75.1008 455.3ZM77.9008 451.7C77.8008 451.9 77.5008 451.9 77.4008 451.8C77.2008 451.7 77.2008 451.4 77.3008 451.3C77.4008 451.1 77.7008 451.1 77.8008 451.2C78.0008 451.4 78.0008 451.6 77.9008 451.7ZM80.7008 448.1C80.6008 448.3 80.3008 448.3 80.2008 448.2C80.0008 448.1 80.0008 447.8 80.1008 447.7C80.2008 447.5 80.5008 447.5 80.6008 447.6C80.9008 447.7 80.9008 447.9 80.7008 448.1ZM83.5008 444.4C83.4008 444.6 83.1008 444.6 83.0008 444.5C82.8008 444.4 82.8008 444.1 82.9008 444C83.0008 443.8 83.3008 443.8 83.4008 443.9C83.6008 444.1 83.6008 444.3 83.5008 444.4ZM86.2008 440.8C86.1008 441 85.8008 441 85.7008 440.9C85.5008 440.8 85.5008 440.5 85.6008 440.4C85.7008 440.2 86.0008 440.2 86.1008 440.3C86.4008 440.4 86.4008 440.6 86.2008 440.8ZM89.0008 437.1C88.9008 437.3 88.6008 437.3 88.5008 437.2C88.3008 437.1 88.3008 436.8 88.4008 436.7C88.5008 436.5 88.8008 436.5 88.9008 436.6C89.0008 436.7 89.1008 436.9 89.0008 437.1ZM91.7008 433.4C91.6008 433.6 91.3008 433.6 91.2008 433.5C91.0008 433.4 91.0008 433.1 91.1008 433C91.2008 432.8 91.5008 432.8 91.6008 432.9C91.8008 433 91.8008 433.3 91.7008 433.4Z" fill="#FDFDFD"/>
<path d="M50.0985 487C49.9985 487.2 49.6985 487.2 49.5985 487.1C49.4985 487 49.3985 486.7 49.4985 486.6C49.5985 486.4 49.8985 486.4 49.9985 486.5C50.1985 486.6 50.1985 486.9 50.0985 487ZM52.7985 483.5C52.6985 483.7 52.3985 483.7 52.2985 483.6C52.0985 483.5 52.0985 483.2 52.1985 483.1C52.2985 482.9 52.5985 482.9 52.6985 483C52.8985 483.1 52.8985 483.3 52.7985 483.5ZM55.4985 479.9C55.3985 480.1 55.0985 480.1 54.9985 480C54.8985 479.9 54.7985 479.6 54.8985 479.5C54.9985 479.3 55.2985 479.3 55.3985 479.4C55.4985 479.5 55.5985 479.7 55.4985 479.9ZM58.1985 476.4C58.0985 476.6 57.7985 476.6 57.6985 476.5C57.4985 476.4 57.4985 476.1 57.5985 476C57.6985 475.8 57.9985 475.8 58.0985 475.9C58.1985 476 58.2985 476.2 58.1985 476.4ZM60.8985 472.8C60.7985 473 60.4985 473 60.3985 472.9C60.1985 472.8 60.1985 472.5 60.2985 472.4C60.3985 472.2 60.6985 472.2 60.7985 472.3C60.9985 472.5 60.9985 472.7 60.8985 472.8ZM63.4985 469.2C63.3985 469.4 63.0985 469.4 62.9985 469.3C62.7985 469.2 62.7985 468.9 62.8985 468.8C62.9985 468.6 63.2985 468.6 63.3985 468.7C63.5985 468.9 63.5985 469.1 63.4985 469.2ZM66.1985 465.7C66.0984 465.9 65.7985 465.9 65.6985 465.8C65.4984 465.7 65.4985 465.4 65.5985 465.3C65.6985 465.1 65.9985 465.1 66.0985 465.2C66.2985 465.3 66.2985 465.5 66.1985 465.7ZM68.8985 462.1C68.7985 462.3 68.4985 462.3 68.3985 462.2C68.1985 462.1 68.1985 461.8 68.2985 461.7C68.3985 461.5 68.6985 461.5 68.7985 461.6C68.8985 461.7 68.9985 462 68.8985 462.1ZM71.4985 458.5C71.3985 458.7 71.0985 458.7 70.9985 458.6C70.8985 458.5 70.7985 458.2 70.8985 458.1C70.9985 457.9 71.2985 457.9 71.3985 458C71.5985 458.1 71.5985 458.4 71.4985 458.5ZM74.1985 454.9C74.0984 455.1 73.7985 455.1 73.6985 455C73.4984 454.9 73.4985 454.6 73.5985 454.5C73.6985 454.3 73.9985 454.3 74.0985 454.4C74.1985 454.5 74.2985 454.8 74.1985 454.9ZM76.7985 451.3C76.6985 451.5 76.3985 451.5 76.2985 451.4C76.0985 451.3 76.0984 451 76.1985 450.9C76.2985 450.7 76.5984 450.7 76.6985 450.8C76.8985 451 76.8985 451.1 76.7985 451.3ZM79.3985 447.7C79.2985 447.9 78.9985 447.9 78.8985 447.8C78.6985 447.7 78.6985 447.4 78.7985 447.3C78.8985 447.1 79.1985 447.1 79.2985 447.2C79.4985 447.3 79.5985 447.6 79.3985 447.7ZM81.9985 444.1C81.8985 444.3 81.5984 444.3 81.4985 444.2C81.2985 444.1 81.2985 443.8 81.3985 443.7C81.4985 443.5 81.7985 443.5 81.8985 443.6C82.0985 443.7 82.0984 444 81.9985 444.1ZM84.5984 440.5C84.4985 440.7 84.1984 440.7 84.0984 440.6C83.8984 440.5 83.8985 440.2 83.9985 440.1C84.0984 439.9 84.3985 439.9 84.4985 440C84.6985 440.1 84.6984 440.4 84.5984 440.5ZM87.1984 436.9C87.0984 437.1 86.7984 437.1 86.6984 437C86.4984 436.9 86.4985 436.6 86.5984 436.5C86.6984 436.3 86.9985 436.3 87.0984 436.4C87.2985 436.5 87.2984 436.7 87.1984 436.9ZM89.7985 433.3C89.6985 433.5 89.3985 433.5 89.2985 433.4C89.0985 433.3 89.0984 433 89.1984 432.9C89.2984 432.7 89.5984 432.7 89.6984 432.8C89.8984 432.9 89.8985 433.1 89.7985 433.3ZM92.2985 429.6C92.1985 429.8 91.8985 429.8 91.7985 429.7C91.5985 429.6 91.5984 429.3 91.6984 429.2C91.7984 429 92.0984 429 92.1984 429.1C92.3984 429.2 92.4985 429.4 92.2985 429.6Z" fill="#FDFDFD"/>
<g opacity="0.5">
<path d="M91.2993 408.8C24.6993 282 -18.4007 139.2 7.99932 0.900391" stroke="#20BCC6" stroke-width="0.25" stroke-miterlimit="10" stroke-linecap="round"/>
<path d="M91.301 388.6C31.801 267.3 -4.39902 132.5 21.101 0.900391" stroke="#20BCC6" stroke-width="0.375" stroke-miterlimit="10" stroke-linecap="round"/>
<path d="M91.2979 366.9C39.1979 251.7 9.59787 125.1 33.9979 0.900391" stroke="#20BCC6" stroke-width="0.5" stroke-miterlimit="10" stroke-linecap="round"/>
<path d="M91.2976 342.5C46.9976 234.3 23.8976 116.8 46.9976 0.900391" stroke="#20BCC6" stroke-width="0.625" stroke-miterlimit="10" stroke-linecap="round"/>
<path d="M91.298 314.9C55.098 214.7 38.398 107.4 59.898 0.900391" stroke="#20BCC6" stroke-width="0.75" stroke-miterlimit="10" stroke-linecap="round"/>
<path d="M91.3006 281.4C64.0006 191.2 53.5006 95.9004 72.9006 0.900391" stroke="#20BCC6" stroke-width="0.875" stroke-miterlimit="10" stroke-linecap="round"/>
<path d="M91.2987 239.2C73.4987 161.9 69.0987 81.4004 85.7987 0.900391" stroke="#20BCC6" stroke-miterlimit="10" stroke-linecap="round"/>
<path d="M91.2994 169.1C86.9994 129.3 86.6994 88.8002 91.2994 48.2002" stroke="#20BCC6" stroke-width="1.125" stroke-miterlimit="10" stroke-linecap="round"/>
</g>
</g>
<defs>
<clipPath id="clip0_1132_2001">
<rect width="93.3" height="487.6" fill="white"/>
</clipPath>
</defs>
</svg>
