<svg width="320" height="485" viewBox="0 0 320 485" fill="none" xmlns="http://www.w3.org/2000/svg">
<g clip-path="url(#clip0_1093_2917)">
<rect width="320" height="485" fill="#182936"/>
<g opacity="0.3" filter="url(#filter0_f_1093_2917)">
<ellipse cx="407.5" cy="408.5" rx="211.5" ry="391.5" fill="#20BCC6"/>
</g>
<g clip-path="url(#clip1_1093_2917)">
<path d="M232.299 -216.7C40.4991 33.5998 194.399 375.7 326.499 585.6" stroke="#20BCC6" stroke-width="0.25" stroke-miterlimit="10" stroke-linecap="round"/>
<path d="M246.299 -216.7C52.999 36.2998 204.299 377.5 334.699 586.3" stroke="#20BCC6" stroke-width="0.375" stroke-miterlimit="10" stroke-linecap="round"/>
<path d="M259.999 -216.6C69.2991 33.7004 208.099 365.4 334.599 574" stroke="#20BCC6" stroke-width="0.5" stroke-miterlimit="10" stroke-linecap="round"/>
<path d="M273.999 -216.7C85.8994 30.8998 212.199 353 334.699 561.2" stroke="#20BCC6" stroke-width="0.625" stroke-miterlimit="10" stroke-linecap="round"/>
<path d="M287.799 -216.6C102.599 27.9004 216.799 340.4 334.699 547.8" stroke="#20BCC6" stroke-width="0.75" stroke-miterlimit="10" stroke-linecap="round"/>
<path d="M301.701 -216.5C119.701 24.5 221.701 327.2 334.601 533.5" stroke="#20BCC6" stroke-width="0.875" stroke-miterlimit="10" stroke-linecap="round"/>
<path d="M315.499 -216.4C136.799 20.7996 226.999 314 334.699 518.8" stroke="#20BCC6" stroke-miterlimit="10" stroke-linecap="round"/>
<path d="M329.499 -216.3C154.399 16.7002 232.799 299.9 334.699 502.8" stroke="#20BCC6" stroke-width="1.125" stroke-miterlimit="10" stroke-linecap="round"/>
<path d="M334.1 -203.4C174.5 22.4996 240.7 289.4 334.7 486.3" stroke="#20BCC6" stroke-width="1.25" stroke-miterlimit="10" stroke-linecap="round"/>
<path d="M334.102 -182.5C195.802 33.3 250.102 280 334.702 468" stroke="#20BCC6" stroke-width="1.375" stroke-miterlimit="10" stroke-linecap="round"/>
<path d="M334.1 -159.8C216.5 44.2002 259.8 270.6 334.7 448.5" stroke="#20BCC6" stroke-width="1.5" stroke-miterlimit="10" stroke-linecap="round"/>
<path d="M334.1 -133.9C236.9 55.8996 270.2 260.7 334.7 426.9" stroke="#20BCC6" stroke-width="1.625" stroke-miterlimit="10" stroke-linecap="round"/>
<path d="M334.102 -105.4C256.602 67.9996 280.802 250.2 334.702 403" stroke="#20BCC6" stroke-width="1.75" stroke-miterlimit="10" stroke-linecap="round"/>
<path d="M334.699 375.1C292.199 238.6 275.999 80.9996 334.099 -72.4004" stroke="#20BCC6" stroke-width="1.875" stroke-miterlimit="10" stroke-linecap="round"/>
<path d="M334.699 342.3C304.099 225.7 294.599 95.6004 334.099 -33.5996" stroke="#20BCC6" stroke-width="2" stroke-miterlimit="10" stroke-linecap="round"/>
<path d="M321.598 321.8C321.798 322.5 321.398 323.1 320.798 323.3C320.098 323.5 319.498 323.1 319.298 322.5C319.098 321.8 319.498 321.2 320.098 321C320.598 320.8 321.398 321.1 321.598 321.8Z" fill="#FDFDFD"/>
<path d="M318.5 311.3C318.7 312 318.3 312.6 317.7 312.8C317 313 316.4 312.6 316.2 312C316 311.3 316.4 310.7 317 310.5C317.6 310.4 318.2 310.7 318.5 311.3Z" fill="#FDFDFD"/>
<path d="M315.301 300.8C315.501 301.5 315.101 302.1 314.501 302.3C313.801 302.5 313.201 302.1 313.001 301.5C312.801 300.8 313.201 300.2 313.801 300C314.401 299.9 315.001 300.2 315.301 300.8Z" fill="#FDFDFD"/>
<path d="M312.098 290.5C312.298 291.2 311.898 291.8 311.298 292C310.598 292.2 309.998 291.8 309.798 291.2C309.598 290.5 309.998 289.9 310.598 289.7C311.198 289.4 311.798 289.8 312.098 290.5Z" fill="#FDFDFD"/>
<path d="M308.801 280C309.001 280.7 308.601 281.3 308.001 281.5C307.301 281.7 306.701 281.3 306.501 280.7C306.301 280 306.701 279.4 307.301 279.2C308.001 279 308.601 279.4 308.801 280Z" fill="#FDFDFD"/>
<path d="M305.598 269.6C305.798 270.3 305.398 270.9 304.798 271.1C304.098 271.3 303.498 270.9 303.298 270.3C303.098 269.6 303.498 269 304.098 268.8C304.798 268.6 305.398 268.9 305.598 269.6Z" fill="#FDFDFD"/>
<path d="M302.399 259.1C302.599 259.8 302.199 260.4 301.599 260.6C300.899 260.8 300.299 260.4 300.099 259.8C299.899 259.1 300.299 258.5 300.899 258.3C301.399 258.2 302.199 258.5 302.399 259.1Z" fill="#FDFDFD"/>
<path d="M299.2 248.7C299.4 249.4 299 250 298.4 250.2C297.7 250.4 297.1 250 296.9 249.4C296.7 248.7 297.1 248.1 297.7 247.9C298.4 247.7 299 248.1 299.2 248.7Z" fill="#FDFDFD"/>
<path d="M296 238.3C296.2 239 295.8 239.6 295.2 239.8C294.5 240 293.9 239.6 293.7 239C293.5 238.3 293.9 237.7 294.5 237.5C295.1 237.4 295.8 237.7 296 238.3Z" fill="#FDFDFD"/>
<path d="M292.801 227.8C293.001 228.5 292.601 229.1 292.001 229.3C291.301 229.5 290.701 229.1 290.501 228.5C290.301 227.8 290.701 227.2 291.301 227C291.901 226.9 292.601 227.2 292.801 227.8Z" fill="#FDFDFD"/>
<path d="M289.7 217.5C289.9 218.2 289.5 218.8 288.9 219C288.2 219.2 287.6 218.8 287.4 218.2C287.2 217.5 287.6 216.9 288.2 216.7C288.8 216.4 289.5 216.8 289.7 217.5Z" fill="#FDFDFD"/>
<path d="M286.5 207C286.7 207.7 286.3 208.3 285.7 208.5C285 208.7 284.4 208.3 284.2 207.7C284 207 284.4 206.4 285 206.2C285.7 205.9 286.3 206.3 286.5 207Z" fill="#FDFDFD"/>
<path d="M283.401 196.5C283.601 197.2 283.201 197.8 282.501 198C281.801 198.2 281.201 197.8 281.001 197.1C280.801 196.4 281.201 195.8 281.901 195.6C282.501 195.5 283.301 195.8 283.401 196.5Z" fill="#FDFDFD"/>
<path d="M280.299 186.1C280.499 186.8 280.099 187.4 279.399 187.6C278.699 187.8 278.099 187.4 277.899 186.7C277.699 186 278.099 185.4 278.799 185.2C279.499 185.1 280.199 185.4 280.299 186.1Z" fill="#FDFDFD"/>
<path d="M277.299 175.5C277.499 176.2 277.099 176.8 276.399 177C275.699 177.2 275.099 176.8 274.899 176.1C274.699 175.4 275.099 174.8 275.799 174.6C276.399 174.6 277.099 175 277.299 175.5Z" fill="#FDFDFD"/>
<path d="M274.201 165.1C274.401 165.8 274.001 166.4 273.301 166.6C272.601 166.8 272.001 166.4 271.801 165.7C271.601 165 272.001 164.4 272.701 164.2C273.401 164.1 274.101 164.4 274.201 165.1Z" fill="#FDFDFD"/>
<path d="M271.299 154.6C271.499 155.3 271.099 155.9 270.399 156.1C269.699 156.3 269.099 155.9 268.899 155.2C268.699 154.5 269.099 153.9 269.799 153.7C270.399 153.5 271.099 154 271.299 154.6Z" fill="#FDFDFD"/>
<path d="M268.401 144C268.601 144.7 268.201 145.3 267.501 145.5C266.801 145.7 266.201 145.3 266.001 144.6C265.801 143.9 266.201 143.3 266.901 143.1C267.501 143 268.101 143.4 268.401 144Z" fill="#FDFDFD"/>
<path d="M265.498 133.5C265.698 134.2 265.298 134.8 264.598 135C263.898 135.2 263.298 134.8 263.098 134.1C262.898 133.4 263.298 132.8 263.998 132.6C264.598 132.5 265.298 133 265.498 133.5Z" fill="#FDFDFD"/>
<path d="M262.6 123C262.8 123.7 262.4 124.3 261.7 124.5C261 124.7 260.4 124.3 260.2 123.6C260 122.9 260.4 122.3 261.1 122.1C261.8 122 262.4 122.3 262.6 123Z" fill="#FDFDFD"/>
<path d="M259.799 112.5C259.999 113.2 259.599 113.8 258.899 114C258.199 114.2 257.599 113.8 257.399 113.1C257.199 112.4 257.599 111.8 258.299 111.6C258.899 111.5 259.599 111.8 259.799 112.5Z" fill="#FDFDFD"/>
<path d="M256.998 101.9C257.198 102.6 256.798 103.2 256.098 103.4C255.398 103.6 254.798 103.2 254.598 102.5C254.398 101.8 254.798 101.2 255.498 101C256.198 100.9 256.798 101.2 256.998 101.9Z" fill="#FDFDFD"/>
<path d="M254.299 91.3997C254.499 92.0997 254.099 92.6997 253.399 92.8997C252.699 93.0997 252.099 92.6997 251.899 91.9997C251.699 91.2997 252.099 90.6997 252.799 90.4997C253.499 90.2997 254.199 90.6997 254.299 91.3997Z" fill="#FDFDFD"/>
<path d="M251.701 80.7996C251.901 81.4996 251.501 82.0996 250.801 82.2996C250.101 82.4996 249.501 82.0996 249.301 81.3996C249.101 80.6996 249.501 80.0996 250.201 79.8996C250.901 79.7996 251.501 80.0996 251.701 80.7996Z" fill="#FDFDFD"/>
<path d="M249.101 70.1004C249.301 70.8004 248.801 71.4004 248.201 71.6004C247.501 71.8004 246.901 71.3004 246.701 70.7004C246.501 70.0004 247.001 69.4004 247.601 69.2004C248.101 69.1004 248.901 69.6004 249.101 70.1004Z" fill="#FDFDFD"/>
<path d="M246.499 59.5999C246.699 60.2999 246.199 60.8999 245.599 61.0999C244.899 61.2999 244.299 60.7999 244.099 60.1999C243.899 59.4999 244.399 58.8999 244.999 58.6999C245.799 58.4999 246.399 58.8999 246.499 59.5999Z" fill="#FDFDFD"/>
<path d="M243.999 48.9996C244.199 49.6996 243.699 50.2996 243.099 50.4996C242.399 50.6996 241.799 50.1996 241.599 49.5996C241.399 48.8996 241.899 48.2996 242.499 48.0996C243.299 47.7996 243.899 48.2996 243.999 48.9996Z" fill="#FDFDFD"/>
<path d="M241.699 38.3003C241.899 39.0003 241.399 39.6003 240.799 39.8003C240.099 40.0003 239.499 39.5003 239.299 38.9003C239.099 38.2003 239.599 37.6003 240.199 37.4003C240.899 37.2003 241.499 37.7003 241.699 38.3003Z" fill="#FDFDFD"/>
<path d="M239.298 27.6998C239.498 28.3998 238.998 28.9998 238.298 29.1998C237.598 29.3998 236.998 28.8998 236.798 28.1998C236.598 27.4998 237.098 26.8998 237.798 26.6998C238.498 26.5998 239.098 26.9998 239.298 27.6998Z" fill="#FDFDFD"/>
<path d="M237.099 16.9995C237.299 17.6995 236.799 18.2995 236.099 18.4995C235.399 18.6995 234.799 18.1995 234.599 17.4995C234.399 16.7995 234.899 16.1995 235.599 15.9995C236.299 15.7995 236.899 16.2995 237.099 16.9995Z" fill="#FDFDFD"/>
<path d="M234.798 6.30036C234.998 7.00036 234.498 7.60036 233.798 7.80036C233.098 8.00036 232.498 7.50036 232.298 6.80036C232.098 6.10036 232.598 5.50036 233.298 5.30036C234.098 5.20036 234.698 5.60036 234.798 6.30036Z" fill="#FDFDFD"/>
<path d="M322.401 294C322.601 294.7 322.201 295.3 321.501 295.5C320.801 295.7 320.201 295.3 320.001 294.6C319.801 293.9 320.201 293.3 320.901 293.1C321.601 293 322.301 293.3 322.401 294Z" fill="#FDFDFD"/>
<path d="M319.498 283.7C319.698 284.4 319.298 285 318.598 285.2C317.898 285.4 317.298 285 317.098 284.3C316.898 283.6 317.298 283 317.998 282.8C318.698 282.7 319.398 283 319.498 283.7Z" fill="#FDFDFD"/>
<path d="M316.701 273.5C316.901 274.2 316.501 274.8 315.801 275C315.101 275.2 314.501 274.8 314.301 274.1C314.101 273.4 314.501 272.8 315.201 272.6C315.901 272.4 316.501 272.8 316.701 273.5Z" fill="#FDFDFD"/>
<path d="M313.799 263.2C313.999 263.9 313.599 264.5 312.899 264.7C312.199 264.9 311.599 264.5 311.399 263.8C311.199 263.1 311.599 262.5 312.299 262.3C312.999 262.2 313.599 262.5 313.799 263.2Z" fill="#FDFDFD"/>
<path d="M310.901 253C311.101 253.7 310.701 254.3 310.001 254.5C309.301 254.7 308.701 254.3 308.501 253.6C308.301 252.9 308.701 252.3 309.401 252.1C310.101 251.9 310.701 252.3 310.901 253Z" fill="#FDFDFD"/>
<path d="M307.998 242.7C308.198 243.4 307.798 244 307.098 244.2C306.398 244.4 305.798 244 305.598 243.3C305.398 242.6 305.798 242 306.498 241.8C307.198 241.7 307.898 242 307.998 242.7Z" fill="#FDFDFD"/>
<path d="M305.1 232.5C305.3 233.2 304.9 233.8 304.2 234C303.5 234.2 302.9 233.8 302.7 233.1C302.5 232.4 302.9 231.8 303.6 231.6C304.3 231.4 305 231.8 305.1 232.5Z" fill="#FDFDFD"/>
<path d="M302.299 222.2C302.499 222.9 302.099 223.5 301.399 223.7C300.699 223.9 300.099 223.5 299.899 222.8C299.699 222.1 300.099 221.5 300.799 221.3C301.499 221.2 302.099 221.5 302.299 222.2Z" fill="#FDFDFD"/>
<path d="M299.498 212C299.698 212.7 299.298 213.3 298.598 213.5C297.898 213.7 297.298 213.3 297.098 212.6C296.898 211.9 297.298 211.3 297.998 211.1C298.698 211 299.298 211.3 299.498 212Z" fill="#FDFDFD"/>
<path d="M296.701 201.6C296.901 202.3 296.501 202.9 295.801 203.1C295.101 203.3 294.501 202.9 294.301 202.2C294.101 201.5 294.501 200.9 295.201 200.7C295.801 200.6 296.501 201.1 296.701 201.6Z" fill="#FDFDFD"/>
<path d="M293.901 191.4C294.101 192.1 293.701 192.7 293.001 192.9C292.301 193.1 291.701 192.7 291.501 192C291.301 191.3 291.701 190.7 292.401 190.5C293.001 190.4 293.701 190.7 293.901 191.4Z" fill="#FDFDFD"/>
<path d="M290.998 181.1C291.198 181.8 290.798 182.4 290.098 182.6C289.398 182.8 288.798 182.4 288.598 181.7C288.398 181 288.798 180.4 289.498 180.2C290.198 180 290.798 180.5 290.998 181.1Z" fill="#FDFDFD"/>
<path d="M288.299 170.8C288.499 171.5 288.099 172.1 287.399 172.3C286.699 172.5 286.099 172.1 285.899 171.4C285.699 170.7 286.099 170.1 286.799 169.9C287.499 169.8 288.099 170.1 288.299 170.8Z" fill="#FDFDFD"/>
<path d="M285.701 160.5C285.901 161.2 285.501 161.8 284.801 162C284.101 162.2 283.501 161.8 283.301 161.1C283.101 160.4 283.501 159.8 284.201 159.6C284.901 159.5 285.501 159.9 285.701 160.5Z" fill="#FDFDFD"/>
<path d="M282.901 150.2C283.101 150.9 282.701 151.5 282.001 151.7C281.301 151.9 280.701 151.5 280.501 150.8C280.301 150.1 280.701 149.5 281.401 149.3C282.101 149.1 282.801 149.5 282.901 150.2Z" fill="#FDFDFD"/>
<path d="M280.299 139.9C280.499 140.6 280.099 141.2 279.399 141.4C278.699 141.6 278.099 141.2 277.899 140.5C277.699 139.8 278.099 139.2 278.799 139C279.499 138.9 280.199 139.2 280.299 139.9Z" fill="#FDFDFD"/>
<path d="M277.701 129.6C277.901 130.3 277.501 130.9 276.801 131.1C276.101 131.3 275.501 130.9 275.301 130.2C275.101 129.5 275.501 128.9 276.201 128.7C276.901 128.6 277.601 128.9 277.701 129.6Z" fill="#FDFDFD"/>
<path d="M275.1 119.2C275.3 119.9 274.9 120.5 274.2 120.7C273.5 120.9 272.9 120.5 272.7 119.8C272.5 119.1 272.9 118.5 273.6 118.3C274.3 118.2 274.9 118.6 275.1 119.2Z" fill="#FDFDFD"/>
<path d="M272.601 109C272.801 109.7 272.301 110.3 271.701 110.5C271.001 110.7 270.401 110.2 270.201 109.6C270.001 108.9 270.501 108.3 271.101 108.1C271.801 107.9 272.501 108.3 272.601 109Z" fill="#FDFDFD"/>
<path d="M270.199 98.6004C270.399 99.3004 269.899 99.9004 269.299 100.1C268.599 100.3 267.999 99.8004 267.799 99.2004C267.599 98.5004 268.099 97.9004 268.699 97.7004C269.399 97.6004 269.999 97.9004 270.199 98.6004Z" fill="#FDFDFD"/>
<path d="M267.699 88.2C267.899 88.9 267.399 89.5 266.799 89.7C266.099 89.9 265.499 89.4 265.299 88.8C265.099 88.1 265.599 87.5 266.199 87.3C266.899 87.2 267.599 87.5 267.699 88.2Z" fill="#FDFDFD"/>
<path d="M265.3 77.8997C265.5 78.5997 265 79.1997 264.4 79.3997C263.8 79.5997 263.1 79.0997 262.9 78.4997C262.7 77.7997 263.2 77.1997 263.8 76.9997C264.3 76.7997 265.2 77.1997 265.3 77.8997Z" fill="#FDFDFD"/>
<path d="M262.902 67.4002C263.102 68.1002 262.602 68.7002 262.002 68.9002C261.302 69.1002 260.702 68.6002 260.502 68.0002C260.302 67.3002 260.802 66.7002 261.402 66.5002C262.102 66.4002 262.802 66.7002 262.902 67.4002Z" fill="#FDFDFD"/>
<path d="M260.701 57.1002C260.901 57.8002 260.401 58.4002 259.701 58.6002C259.001 58.8002 258.401 58.3002 258.201 57.6002C258.001 56.9002 258.501 56.3002 259.201 56.1002C259.901 56.0002 260.601 56.4002 260.701 57.1002Z" fill="#FDFDFD"/>
<path d="M258.4 46.6997C258.6 47.3997 258.1 47.9997 257.4 48.1997C256.7 48.3997 256.1 47.8997 255.9 47.1997C255.7 46.4997 256.2 45.8997 256.9 45.6997C257.6 45.4997 258.4 45.9997 258.4 46.6997Z" fill="#FDFDFD"/>
<path d="M256.201 36.3003C256.401 37.0003 255.901 37.6003 255.201 37.8003C254.501 38.0003 253.901 37.5003 253.701 36.8003C253.501 36.1003 254.001 35.5003 254.701 35.3003C255.401 35.1003 256.201 35.6003 256.201 36.3003Z" fill="#FDFDFD"/>
<path d="M254.201 25.8004C254.401 26.5004 253.901 27.1004 253.201 27.3004C252.501 27.5004 251.901 27.0004 251.701 26.3004C251.501 25.6004 252.001 25.0004 252.701 24.8004C253.401 24.7004 254.001 25.1004 254.201 25.8004Z" fill="#FDFDFD"/>
<path d="M252.099 15.4C252.299 16.1 251.799 16.7 251.099 16.9C250.399 17.1 249.799 16.6 249.599 15.9C249.399 15.2 249.899 14.6 250.599 14.4C251.299 14.3 251.899 14.7 252.099 15.4Z" fill="#FDFDFD"/>
<path d="M250.099 4.89952C250.299 5.59952 249.799 6.19952 249.099 6.39952C248.399 6.59952 247.799 6.09952 247.599 5.39952C247.399 4.69952 247.899 4.09952 248.599 3.89952C249.399 3.79952 249.999 4.29952 250.099 4.89952Z" fill="#FDFDFD"/>
<path d="M320.998 251.4C321.198 252.1 320.798 252.7 320.098 252.9C319.398 253.1 318.798 252.7 318.598 252C318.398 251.3 318.798 250.7 319.498 250.5C319.998 250.4 320.798 250.7 320.998 251.4Z" fill="#FDFDFD"/>
<path d="M318.299 241.2C318.499 241.9 318.099 242.5 317.399 242.7C316.699 242.9 316.099 242.5 315.899 241.8C315.699 241.1 316.099 240.5 316.799 240.3C317.499 240.2 318.199 240.6 318.299 241.2Z" fill="#FDFDFD"/>
<path d="M315.799 231.1C315.999 231.8 315.599 232.4 314.899 232.6C314.199 232.8 313.599 232.4 313.399 231.7C313.199 231 313.599 230.4 314.299 230.2C314.999 230.1 315.599 230.4 315.799 231.1Z" fill="#FDFDFD"/>
<path d="M313.201 221C313.401 221.7 313.001 222.3 312.301 222.5C311.601 222.7 311.001 222.3 310.801 221.6C310.601 220.9 311.001 220.3 311.701 220.1C312.301 219.9 313.101 220.3 313.201 221Z" fill="#FDFDFD"/>
<path d="M310.6 210.7C310.8 211.4 310.4 212 309.7 212.2C309 212.4 308.4 212 308.2 211.3C308 210.6 308.4 210 309.1 209.8C309.8 209.6 310.4 210.1 310.6 210.7Z" fill="#FDFDFD"/>
<path d="M308.1 200.5C308.3 201.2 307.9 201.8 307.2 202C306.5 202.2 305.9 201.8 305.7 201.1C305.5 200.4 305.9 199.8 306.6 199.6C307.3 199.5 307.9 199.8 308.1 200.5Z" fill="#FDFDFD"/>
<path d="M305.6 190.4C305.8 191.1 305.4 191.7 304.7 191.9C304 192.1 303.4 191.7 303.2 191C303 190.3 303.4 189.7 304.1 189.5C304.7 189.4 305.4 189.7 305.6 190.4Z" fill="#FDFDFD"/>
<path d="M303.199 180.2C303.399 180.9 302.899 181.5 302.299 181.7C301.599 181.9 300.999 181.4 300.799 180.8C300.599 180.1 301.099 179.5 301.699 179.3C302.199 179.1 302.999 179.6 303.199 180.2Z" fill="#FDFDFD"/>
<path d="M300.601 170C300.801 170.7 300.301 171.3 299.701 171.5C299.101 171.7 298.401 171.2 298.201 170.6C298.001 169.9 298.501 169.3 299.101 169.1C299.801 169 300.501 169.4 300.601 170Z" fill="#FDFDFD"/>
<path d="M298.3 159.8C298.5 160.5 298 161.1 297.4 161.3C296.7 161.5 296.1 161 295.9 160.4C295.7 159.7 296.2 159.1 296.8 158.9C297.3 158.8 298.1 159.1 298.3 159.8Z" fill="#FDFDFD"/>
<path d="M295.8 149.6C296 150.3 295.5 150.9 294.9 151.1C294.2 151.3 293.6 150.8 293.4 150.2C293.2 149.5 293.7 148.9 294.3 148.7C294.9 148.5 295.6 149 295.8 149.6Z" fill="#FDFDFD"/>
<path d="M293.402 139.4C293.602 140.1 293.102 140.7 292.502 140.9C291.802 141.1 291.202 140.6 291.002 140C290.802 139.3 291.302 138.7 291.902 138.5C292.502 138.3 293.202 138.8 293.402 139.4Z" fill="#FDFDFD"/>
<path d="M290.999 129.1C291.199 129.8 290.699 130.4 290.099 130.6C289.399 130.8 288.799 130.3 288.599 129.7C288.399 129 288.899 128.4 289.499 128.2C290.199 128.1 290.899 128.6 290.999 129.1Z" fill="#FDFDFD"/>
<path d="M288.699 119C288.899 119.7 288.399 120.3 287.799 120.5C287.099 120.7 286.499 120.2 286.299 119.6C286.099 118.9 286.599 118.3 287.199 118.1C287.899 117.9 288.599 118.3 288.699 119Z" fill="#FDFDFD"/>
<path d="M286.501 108.8C286.701 109.5 286.201 110.1 285.501 110.3C284.801 110.5 284.201 110 284.001 109.3C283.801 108.6 284.301 108 285.001 107.8C285.701 107.6 286.301 108.1 286.501 108.8Z" fill="#FDFDFD"/>
<path d="M284.201 98.5001C284.401 99.2001 283.901 99.8001 283.201 100C282.501 100.2 281.901 99.7001 281.701 99.0001C281.501 98.3001 282.001 97.7001 282.701 97.5001C283.401 97.4001 284.001 97.9001 284.201 98.5001Z" fill="#FDFDFD"/>
<path d="M282.001 88.3004C282.201 89.0004 281.701 89.6004 281.001 89.8004C280.301 90.0004 279.701 89.5004 279.501 88.8004C279.301 88.1004 279.801 87.5004 280.501 87.3004C281.201 87.2004 281.801 87.6004 282.001 88.3004Z" fill="#FDFDFD"/>
<path d="M279.798 78.0001C279.998 78.7001 279.498 79.3001 278.798 79.5001C278.098 79.7001 277.498 79.2001 277.298 78.5001C277.098 77.8001 277.598 77.2001 278.298 77.0001C279.098 76.9001 279.698 77.4001 279.798 78.0001Z" fill="#FDFDFD"/>
<path d="M277.701 67.8003C277.901 68.5003 277.401 69.1003 276.701 69.3003C276.001 69.5003 275.401 69.0003 275.201 68.3003C275.001 67.6003 275.501 67.0003 276.201 66.8003C277.001 66.6003 277.601 67.1003 277.701 67.8003Z" fill="#FDFDFD"/>
<path d="M275.701 57.4004C275.901 58.1004 275.401 58.7004 274.701 58.9004C274.001 59.1004 273.401 58.6004 273.201 57.9004C273.001 57.2004 273.501 56.6004 274.201 56.4004C274.801 56.4004 275.501 56.8004 275.701 57.4004Z" fill="#FDFDFD"/>
<path d="M273.701 47.1998C273.901 47.8998 273.401 48.4998 272.701 48.6998C272.001 48.8998 271.401 48.3998 271.201 47.6998C271.001 46.9998 271.501 46.3998 272.201 46.1998C272.901 46.0998 273.501 46.4998 273.701 47.1998Z" fill="#FDFDFD"/>
<path d="M271.701 36.8995C271.901 37.5995 271.401 38.1995 270.701 38.3995C270.001 38.5995 269.401 38.0995 269.201 37.3995C269.001 36.6995 269.501 36.0995 270.201 35.8995C270.901 35.7995 271.501 36.2995 271.701 36.8995Z" fill="#FDFDFD"/>
<path d="M269.701 26.5997C269.901 27.2997 269.401 27.8997 268.701 28.0997C268.001 28.2997 267.401 27.7997 267.201 27.0997C267.001 26.3997 267.501 25.7997 268.201 25.5997C268.901 25.4997 269.501 25.9997 269.701 26.5997Z" fill="#FDFDFD"/>
<path d="M267.9 16.2005C268.1 16.9005 267.6 17.5005 266.9 17.7005C266.2 17.9005 265.6 17.4005 265.4 16.7005C265.2 16.0005 265.7 15.4005 266.4 15.2005C267.1 15.1005 267.7 15.7005 267.9 16.2005Z" fill="#FDFDFD"/>
<path d="M266.001 5.89997C266.201 6.59997 265.701 7.19997 265.001 7.39997C264.301 7.59997 263.701 7.09997 263.501 6.39997C263.301 5.69997 263.801 5.09997 264.501 4.89997C265.301 4.79997 265.901 5.19997 266.001 5.89997Z" fill="#FDFDFD"/>
<path d="M321.101 205.8C321.301 206.5 320.801 207.1 320.201 207.3C319.501 207.5 318.901 207 318.701 206.4C318.501 205.7 319.001 205.1 319.601 204.9C320.401 204.7 321.001 205.1 321.101 205.8Z" fill="#FDFDFD"/>
<path d="M318.8 195.8C319 196.5 318.5 197.1 317.9 197.3C317.2 197.5 316.6 197 316.4 196.4C316.2 195.7 316.7 195.1 317.3 194.9C318 194.7 318.8 195.1 318.8 195.8Z" fill="#FDFDFD"/>
<path d="M316.599 185.7C316.799 186.4 316.299 187 315.599 187.2C314.899 187.4 314.299 186.9 314.099 186.2C313.899 185.5 314.399 184.9 315.099 184.7C315.799 184.7 316.599 185.1 316.599 185.7Z" fill="#FDFDFD"/>
<path d="M314.4 175.7C314.6 176.4 314.1 177 313.4 177.2C312.7 177.4 312.1 176.9 311.9 176.2C311.7 175.5 312.2 174.9 312.9 174.7C313.6 174.7 314.4 175.2 314.4 175.7Z" fill="#FDFDFD"/>
<path d="M312.298 165.8C312.498 166.5 311.998 167.1 311.298 167.3C310.598 167.5 309.998 167 309.798 166.3C309.598 165.6 310.098 165 310.798 164.8C311.498 164.6 312.198 165.1 312.298 165.8Z" fill="#FDFDFD"/>
<path d="M310.099 155.8C310.299 156.5 309.799 157.1 309.099 157.3C308.399 157.5 307.799 157 307.599 156.3C307.399 155.6 307.899 155 308.599 154.8C309.399 154.7 309.999 155.1 310.099 155.8Z" fill="#FDFDFD"/>
<path d="M307.9 145.8C308.1 146.5 307.6 147.1 306.9 147.3C306.2 147.5 305.6 147 305.4 146.3C305.2 145.6 305.7 145 306.4 144.8C307.2 144.6 307.9 145.1 307.9 145.8Z" fill="#FDFDFD"/>
<path d="M305.9 135.8C306.1 136.5 305.6 137.1 304.9 137.3C304.2 137.5 303.6 137 303.4 136.3C303.2 135.6 303.7 135 304.4 134.8C305.1 134.7 305.7 135.1 305.9 135.8Z" fill="#FDFDFD"/>
<path d="M303.798 125.7C303.998 126.4 303.498 127 302.798 127.2C302.098 127.4 301.498 126.9 301.298 126.2C301.098 125.5 301.598 124.9 302.298 124.7C303.098 124.5 303.698 125 303.798 125.7Z" fill="#FDFDFD"/>
<path d="M301.798 115.7C301.998 116.4 301.498 117 300.798 117.2C300.098 117.4 299.498 116.9 299.298 116.2C299.098 115.5 299.598 114.9 300.298 114.7C300.998 114.6 301.598 115 301.798 115.7Z" fill="#FDFDFD"/>
<path d="M299.701 105.6C299.901 106.3 299.401 106.9 298.701 107.1C298.001 107.3 297.401 106.8 297.201 106.1C297.001 105.4 297.501 104.8 298.201 104.6C299.001 104.6 299.601 105.1 299.701 105.6Z" fill="#FDFDFD"/>
<path d="M297.798 95.5997C297.998 96.2997 297.498 96.8997 296.798 97.0997C296.098 97.2997 295.498 96.7997 295.298 96.0997C295.098 95.3997 295.598 94.7997 296.298 94.5997C296.998 94.4997 297.598 94.9997 297.798 95.5997Z" fill="#FDFDFD"/>
<path d="M295.798 85.6001C295.998 86.3001 295.498 86.9001 294.798 87.1001C294.098 87.3001 293.498 86.8001 293.298 86.1001C293.098 85.4001 293.598 84.8001 294.298 84.6001C295.098 84.4001 295.698 84.9001 295.798 85.6001Z" fill="#FDFDFD"/>
<path d="M293.9 75.4995C294.1 76.1995 293.6 76.7995 292.9 76.9995C292.2 77.1995 291.6 76.6995 291.4 75.9995C291.2 75.2995 291.7 74.6995 292.4 74.4995C293.1 74.2995 293.8 74.7995 293.9 75.4995Z" fill="#FDFDFD"/>
<path d="M292.001 65.3995C292.201 66.0995 291.701 66.6995 291.001 66.8995C290.301 67.0995 289.701 66.5995 289.501 65.8995C289.301 65.1995 289.801 64.5995 290.501 64.3995C291.201 64.2995 292.001 64.7995 292.001 65.3995Z" fill="#FDFDFD"/>
<path d="M290.201 55.4C290.401 56.1 289.901 56.7 289.201 56.9C288.501 57.1 287.901 56.6 287.701 55.9C287.501 55.2 288.001 54.6 288.701 54.4C289.401 54.3 290.001 54.7 290.201 55.4Z" fill="#FDFDFD"/>
<path d="M288.4 45.3004C288.6 46.0004 288.1 46.6004 287.4 46.8004C286.7 47.0004 286.1 46.5004 285.9 45.8004C285.7 45.1004 286.2 44.5004 286.9 44.3004C287.6 44.2004 288.3 44.6004 288.4 45.3004Z" fill="#FDFDFD"/>
<path d="M286.599 35.2003C286.799 35.9003 286.299 36.5003 285.599 36.7003C284.899 36.9003 284.299 36.4003 284.099 35.7003C283.899 35.0003 284.399 34.4003 285.099 34.2003C285.799 34.1003 286.599 34.6003 286.599 35.2003Z" fill="#FDFDFD"/>
<path d="M285.001 25.0997C285.201 25.7997 284.701 26.3997 284.001 26.5997C283.301 26.7997 282.701 26.2997 282.501 25.5997C282.301 24.8997 282.801 24.2997 283.501 24.0997C284.201 23.9997 284.801 24.4997 285.001 25.0997Z" fill="#FDFDFD"/>
<path d="M283.299 14.9998C283.499 15.6998 282.999 16.2998 282.399 16.2998C281.699 16.4998 281.099 15.9998 281.099 15.3998C280.899 14.6998 281.399 14.0998 281.999 14.0998C282.599 13.9998 283.099 14.2998 283.299 14.9998Z" fill="#FDFDFD"/>
<path d="M281.6 4.90019C281.8 5.60019 281.3 6.20019 280.7 6.20019C280 6.20019 279.4 5.9002 279.4 5.3002C279.2 4.6002 279.7 4.0002 280.4 4.0002C280.9 3.9002 281.5 4.20019 281.6 4.90019Z" fill="#FDFDFD"/>
<path d="M322.298 152C322.498 152.7 321.998 153.3 321.298 153.5C320.598 153.7 319.998 153.2 319.798 152.5C319.598 151.8 320.098 151.2 320.798 151C321.698 150.9 322.298 151.4 322.298 152Z" fill="#FDFDFD"/>
<path d="M320.501 142.1C320.701 142.8 320.201 143.4 319.501 143.6C318.801 143.8 318.201 143.3 318.001 142.6C317.801 141.9 318.301 141.3 319.001 141.1C319.801 141.1 320.401 141.5 320.501 142.1Z" fill="#FDFDFD"/>
<path d="M318.701 132.4C318.901 133.1 318.401 133.7 317.701 133.9C317.001 134.1 316.401 133.6 316.201 132.9C316.001 132.2 316.501 131.6 317.201 131.4C317.901 131.2 318.501 131.7 318.701 132.4Z" fill="#FDFDFD"/>
<path d="M316.9 122.4C317.1 123.1 316.6 123.7 315.9 123.9C315.2 124.1 314.6 123.6 314.4 122.9C314.2 122.2 314.7 121.6 315.4 121.4C316.2 121.4 316.8 121.9 316.9 122.4Z" fill="#FDFDFD"/>
<path d="M315.099 112.7C315.299 113.4 314.799 114 314.099 114.2C313.399 114.4 312.799 113.9 312.599 113.2C312.399 112.5 312.899 111.9 313.599 111.7C314.299 111.5 314.899 112 315.099 112.7Z" fill="#FDFDFD"/>
<path d="M313.4 102.8C313.6 103.5 313.1 104.1 312.4 104.3C311.7 104.5 311.1 104 310.9 103.3C310.7 102.6 311.2 102 311.9 101.8C312.6 101.8 313.2 102.1 313.4 102.8Z" fill="#FDFDFD"/>
<path d="M311.599 92.8997C311.799 93.5997 311.299 94.1997 310.599 94.3997C309.899 94.5997 309.299 94.0997 309.099 93.3997C308.899 92.6997 309.399 92.0997 310.099 91.8997C310.899 91.7997 311.399 92.3997 311.599 92.8997Z" fill="#FDFDFD"/>
<path d="M309.9 83.1997C310.1 83.8997 309.6 84.4997 308.9 84.6997C308.2 84.8997 307.6 84.3997 307.4 83.6997C307.2 82.9997 307.7 82.3997 308.4 82.1997C309.1 81.9997 309.7 82.4997 309.9 83.1997Z" fill="#FDFDFD"/>
<path d="M308.099 73.3004C308.299 74.0004 307.799 74.6004 307.099 74.8004C306.399 75.0004 305.799 74.5004 305.599 73.8004C305.399 73.1004 305.899 72.5004 306.599 72.3004C307.499 72.2004 308.099 72.6004 308.099 73.3004Z" fill="#FDFDFD"/>
<path d="M306.501 63.4996C306.701 64.1996 306.201 64.7995 305.501 64.7995C304.801 64.9995 304.201 64.4995 304.201 63.8995C304.001 63.1995 304.501 62.5996 305.101 62.5996C305.701 62.2996 306.501 62.7996 306.501 63.4996Z" fill="#FDFDFD"/>
<path d="M304.899 53.5003C305.099 54.2003 304.599 54.8003 303.899 54.8003C303.199 55.0003 302.599 54.5003 302.599 53.9003C302.399 53.2003 302.899 52.6003 303.499 52.6003C304.199 52.4003 304.799 52.8003 304.899 53.5003Z" fill="#FDFDFD"/>
<path d="M303.302 43.7002C303.502 44.4002 303.002 45.0002 302.302 45.0002C301.602 45.0002 301.002 44.7002 301.002 44.0002C300.802 43.3002 301.302 42.7002 301.902 42.7002C302.602 42.7002 303.302 43.0002 303.302 43.7002Z" fill="#FDFDFD"/>
<path d="M301.901 33.7002C302.101 34.4002 301.601 35.0002 301.001 35.0002C300.301 35.0002 299.701 34.7002 299.701 34.0002C299.501 33.3002 300.001 32.7002 300.701 32.7002C301.101 32.7002 301.701 33.2002 301.901 33.7002Z" fill="#FDFDFD"/>
<path d="M300.2 23.8995C300.2 24.5995 299.9 25.1995 299.3 25.1995C298.6 25.1995 298 24.8995 298 24.1995C298 23.4995 298.3 22.8995 299 22.8995C299.6 22.7995 300.2 23.2995 300.2 23.8995Z" fill="#FDFDFD"/>
<path d="M298.8 13.9996C298.8 14.6996 298.4 15.2996 297.8 15.2996C297.1 15.2996 296.5 14.8996 296.5 14.2996C296.5 13.5996 296.9 12.9996 297.4 12.9996C298.1 12.8996 298.7 13.2996 298.8 13.9996Z" fill="#FDFDFD"/>
<path d="M297.4 4.10001C297.4 4.80001 297 5.39999 296.3 5.39999C295.6 5.39999 295 5 295 4.3C295 3.6 295.4 3 296.1 3C296.7 3 297.3 3.40001 297.4 4.10001Z" fill="#FDFDFD"/>
<path d="M321.7 64.2003C321.7 64.9003 321.3 65.5003 320.8 65.5003C320.1 65.5003 319.5 65.1003 319.5 64.5003C319.5 63.8003 319.9 63.2003 320.4 63.2003C321 63.1003 321.6 63.6003 321.7 64.2003Z" fill="#FDFDFD"/>
<path d="M320.298 54.6001C320.298 55.3001 319.898 55.9 319.198 55.9C318.498 55.9 317.898 55.5 317.898 54.8C317.898 54.1 318.298 53.5 318.998 53.5C319.498 53.4 320.098 53.9001 320.298 54.6001Z" fill="#FDFDFD"/>
<path d="M318.9 44.8002C318.9 45.5002 318.5 46.1002 317.8 46.1002C317.1 46.1002 316.5 45.7002 316.5 45.0002C316.5 44.3002 316.9 43.7002 317.6 43.7002C318.1 43.7002 318.7 44.1002 318.9 44.8002Z" fill="#FDFDFD"/>
<path d="M317.502 35.0004C317.502 35.7004 317.102 36.3004 316.402 36.3004C315.702 36.3004 315.102 35.9004 315.102 35.2004C315.102 34.5004 315.502 33.9004 316.202 33.9004C316.802 33.9004 317.502 34.4004 317.502 35.0004Z" fill="#FDFDFD"/>
<path d="M316.099 25.1996C316.099 25.8996 315.699 26.4996 314.999 26.4996C314.299 26.4996 313.699 26.0996 313.699 25.3996C313.699 24.6996 314.099 24.0996 314.799 24.0996C315.499 24.0996 316.099 24.4996 316.099 25.1996Z" fill="#FDFDFD"/>
<path d="M314.9 15.3998C314.9 16.0998 314.5 16.6998 313.8 16.6998C313.1 16.6998 312.5 16.2998 312.5 15.5998C312.5 14.8998 312.9 14.2998 313.6 14.2998C314.2 14.2998 314.8 14.7998 314.9 15.3998Z" fill="#FDFDFD"/>
<path d="M313.599 5.6996C313.599 6.3996 313.199 6.9996 312.499 6.9996C311.799 6.9996 311.199 6.5996 311.199 5.8996C311.199 5.1996 311.599 4.59961 312.299 4.59961C312.799 4.59961 313.399 4.9996 313.599 5.6996Z" fill="#FDFDFD"/>
</g>
</g>
<defs>
<filter id="filter0_f_1093_2917" x="-4" y="-183" width="823" height="1183" filterUnits="userSpaceOnUse" color-interpolation-filters="sRGB">
<feFlood flood-opacity="0" result="BackgroundImageFix"/>
<feBlend mode="normal" in="SourceGraphic" in2="BackgroundImageFix" result="shape"/>
<feGaussianBlur stdDeviation="100" result="effect1_foregroundBlur_1093_2917"/>
</filter>
<clipPath id="clip0_1093_2917">
<rect width="320" height="485" fill="white"/>
</clipPath>
<clipPath id="clip1_1093_2917">
<rect width="198" height="516" fill="white" transform="translate(142 -13)"/>
</clipPath>
</defs>
</svg>
