<svg width="198" height="804" viewBox="0 0 198 804" fill="none"
  xmlns="http://www.w3.org/2000/svg">
  <g opacity="0.5" clip-path="url(#clip0_1093_2117)">
    <path d="M90.2991 0.299805C-101.501 250.6 52.3991 592.7 184.499 802.6" stroke="#20BCC6" stroke-width="0.25" stroke-miterlimit="10" stroke-linecap="round"/>
    <path d="M104.301 0.299805C-88.9991 253.3 62.3009 594.5 192.701 803.3" stroke="#20BCC6" stroke-width="0.375" stroke-miterlimit="10" stroke-linecap="round"/>
    <path d="M117.999 0.400391C-72.7009 250.7 66.0991 582.4 192.599 791" stroke="#20BCC6" stroke-width="0.5" stroke-miterlimit="10" stroke-linecap="round"/>
    <path d="M131.999 0.299805C-56.1006 247.9 70.1994 570 192.699 778.2" stroke="#20BCC6" stroke-width="0.625" stroke-miterlimit="10" stroke-linecap="round"/>
    <path d="M145.801 0.400391C-39.3994 244.9 74.8006 557.4 192.701 764.8" stroke="#20BCC6" stroke-width="0.75" stroke-miterlimit="10" stroke-linecap="round"/>
    <path d="M159.701 0.5C-22.2991 241.5 79.7009 544.2 192.601 750.5" stroke="#20BCC6" stroke-width="0.875" stroke-miterlimit="10" stroke-linecap="round"/>
    <path d="M173.501 0.599609C-5.19904 237.8 85.001 531 192.701 735.8" stroke="#20BCC6" stroke-miterlimit="10" stroke-linecap="round"/>
    <path d="M187.499 0.700195C12.3991 233.7 90.7991 516.9 192.699 719.8" stroke="#20BCC6" stroke-width="1.125" stroke-miterlimit="10" stroke-linecap="round"/>
    <path d="M192.1 13.5996C32.5001 239.5 98.7001 506.4 192.7 703.3" stroke="#20BCC6" stroke-width="1.25" stroke-miterlimit="10" stroke-linecap="round"/>
    <path d="M192.1 34.5C53.7997 250.3 108.1 497 192.7 685" stroke="#20BCC6" stroke-width="1.375" stroke-miterlimit="10" stroke-linecap="round"/>
    <path d="M192.1 57.2002C74.5003 261.2 117.8 487.6 192.7 665.5" stroke="#20BCC6" stroke-width="1.5" stroke-miterlimit="10" stroke-linecap="round"/>
    <path d="M192.1 83.0996C94.8995 272.9 128.2 477.7 192.7 643.9" stroke="#20BCC6" stroke-width="1.625" stroke-miterlimit="10" stroke-linecap="round"/>
    <path d="M192.1 111.6C114.6 285 138.8 467.2 192.7 620" stroke="#20BCC6" stroke-width="1.75" stroke-miterlimit="10" stroke-linecap="round"/>
    <path d="M192.701 592.1C150.201 455.6 134.001 298 192.101 144.6" stroke="#20BCC6" stroke-width="1.875" stroke-miterlimit="10" stroke-linecap="round"/>
    <path d="M192.699 559.3C162.099 442.7 152.599 312.6 192.099 183.4" stroke="#20BCC6" stroke-width="2" stroke-miterlimit="10" stroke-linecap="round"/>
    <path d="M194.3 592.7C193.6 592.9 193 592.5 192.8 591.8C192.6 591.1 193 590.5 193.7 590.3" fill="#FDFDFD"/>
    <path d="M192.1 580.6C192.3 581.3 191.9 581.9 191.2 582.1C190.5 582.3 189.9 581.9 189.7 581.2C189.5 580.5 189.9 579.9 190.6 579.7C191.3 579.6 192 579.9 192.1 580.6Z" fill="#FDFDFD"/>
    <path d="M189 570.2C189.2 570.9 188.8 571.5 188.1 571.7C187.4 571.9 186.8 571.5 186.6 570.8C186.4 570.1 186.8 569.5 187.5 569.3C188.2 569.1 188.9 569.5 189 570.2Z" fill="#FDFDFD"/>
    <path d="M186 559.7C186.2 560.4 185.8 561 185.1 561.2C184.4 561.4 183.8 561 183.6 560.3C183.4 559.6 183.8 559 184.5 558.8C185 558.7 185.8 559 186 559.7Z" fill="#FDFDFD"/>
    <path d="M182.799 549.2C182.999 549.9 182.599 550.5 181.999 550.7C181.299 550.9 180.699 550.5 180.499 549.9C180.299 549.2 180.699 548.6 181.299 548.4C181.999 548.2 182.599 548.6 182.799 549.2Z" fill="#FDFDFD"/>
    <path d="M179.6 538.8C179.8 539.5 179.4 540.1 178.8 540.3C178.1 540.5 177.5 540.1 177.3 539.5C177.1 538.8 177.5 538.2 178.1 538C178.6 537.8 179.4 538.1 179.6 538.8Z" fill="#FDFDFD"/>
    <path d="M176.5 528.3C176.7 529 176.3 529.6 175.7 529.8C175 530 174.4 529.6 174.2 529C174 528.3 174.4 527.7 175 527.5C175.6 527.4 176.2 527.7 176.5 528.3Z" fill="#FDFDFD"/>
    <path d="M173.299 517.8C173.499 518.5 173.099 519.1 172.499 519.3C171.799 519.5 171.199 519.1 170.999 518.5C170.799 517.8 171.199 517.2 171.799 517C172.399 516.9 172.999 517.2 173.299 517.8Z" fill="#FDFDFD"/>
    <path d="M170.1 507.5C170.3 508.2 169.9 508.8 169.3 509C168.6 509.2 168 508.8 167.8 508.2C167.6 507.5 168 506.9 168.6 506.7C169.2 506.4 169.8 506.8 170.1 507.5Z" fill="#FDFDFD"/>
    <path d="M166.799 497C166.999 497.7 166.599 498.3 165.999 498.5C165.299 498.7 164.699 498.3 164.499 497.7C164.299 497 164.699 496.4 165.299 496.2C165.999 496 166.599 496.4 166.799 497Z" fill="#FDFDFD"/>
    <path d="M163.6 486.6C163.8 487.3 163.4 487.9 162.8 488.1C162.1 488.3 161.5 487.9 161.3 487.3C161.1 486.6 161.5 486 162.1 485.8C162.8 485.6 163.4 485.9 163.6 486.6Z" fill="#FDFDFD"/>
    <path d="M160.401 476.1C160.601 476.8 160.201 477.4 159.601 477.6C158.901 477.8 158.301 477.4 158.101 476.8C157.901 476.1 158.301 475.5 158.901 475.3C159.401 475.2 160.201 475.5 160.401 476.1Z" fill="#FDFDFD"/>
    <path d="M157.2 465.7C157.4 466.4 157 467 156.4 467.2C155.7 467.4 155.1 467 154.9 466.4C154.7 465.7 155.1 465.1 155.7 464.9C156.4 464.7 157 465.1 157.2 465.7Z" fill="#FDFDFD"/>
    <path d="M154 455.3C154.2 456 153.8 456.6 153.2 456.8C152.5 457 151.9 456.6 151.7 456C151.5 455.3 151.9 454.7 152.5 454.5C153.1 454.4 153.8 454.7 154 455.3Z" fill="#FDFDFD"/>
    <path d="M150.799 444.8C150.999 445.5 150.599 446.1 149.999 446.3C149.299 446.5 148.699 446.1 148.499 445.5C148.299 444.8 148.699 444.2 149.299 444C149.899 443.9 150.599 444.2 150.799 444.8Z" fill="#FDFDFD"/>
    <path d="M147.7 434.5C147.9 435.2 147.5 435.8 146.9 436C146.2 436.2 145.6 435.8 145.4 435.2C145.2 434.5 145.6 433.9 146.2 433.7C146.8 433.4 147.5 433.8 147.7 434.5Z" fill="#FDFDFD"/>
    <path d="M144.5 424C144.7 424.7 144.3 425.3 143.7 425.5C143 425.7 142.4 425.3 142.2 424.7C142 424 142.4 423.4 143 423.2C143.7 422.9 144.3 423.3 144.5 424Z" fill="#FDFDFD"/>
    <path d="M141.401 413.5C141.601 414.2 141.201 414.8 140.501 415C139.801 415.2 139.201 414.8 139.001 414.1C138.801 413.4 139.201 412.8 139.901 412.6C140.501 412.5 141.301 412.8 141.401 413.5Z" fill="#FDFDFD"/>
    <path d="M138.299 403.1C138.499 403.8 138.099 404.4 137.399 404.6C136.699 404.8 136.099 404.4 135.899 403.7C135.699 403 136.099 402.4 136.799 402.2C137.499 402.1 138.199 402.4 138.299 403.1Z" fill="#FDFDFD"/>
    <path d="M135.299 392.5C135.499 393.2 135.099 393.8 134.399 394C133.699 394.2 133.099 393.8 132.899 393.1C132.699 392.4 133.099 391.8 133.799 391.6C134.399 391.6 135.099 392 135.299 392.5Z" fill="#FDFDFD"/>
    <path d="M132.2 382.1C132.4 382.8 132 383.4 131.3 383.6C130.6 383.8 130 383.4 129.8 382.7C129.6 382 130 381.4 130.7 381.2C131.4 381.1 132.1 381.4 132.2 382.1Z" fill="#FDFDFD"/>
    <path d="M129.299 371.6C129.499 372.3 129.099 372.9 128.399 373.1C127.699 373.3 127.099 372.9 126.899 372.2C126.699 371.5 127.099 370.9 127.799 370.7C128.399 370.5 129.099 371 129.299 371.6Z" fill="#FDFDFD"/>
    <path d="M126.401 361C126.601 361.7 126.201 362.3 125.501 362.5C124.801 362.7 124.201 362.3 124.001 361.6C123.801 360.9 124.201 360.3 124.901 360.1C125.501 360 126.101 360.4 126.401 361Z" fill="#FDFDFD"/>
    <path d="M123.5 350.5C123.7 351.2 123.3 351.8 122.6 352C121.9 352.2 121.3 351.8 121.1 351.1C120.9 350.4 121.3 349.8 122 349.6C122.6 349.5 123.3 350 123.5 350.5Z" fill="#FDFDFD"/>
    <path d="M120.6 340C120.8 340.7 120.4 341.3 119.7 341.5C119 341.7 118.4 341.3 118.2 340.6C118 339.9 118.4 339.3 119.1 339.1C119.8 339 120.4 339.3 120.6 340Z" fill="#FDFDFD"/>
    <path d="M117.799 329.5C117.999 330.2 117.599 330.8 116.899 331C116.199 331.2 115.599 330.8 115.399 330.1C115.199 329.4 115.599 328.8 116.299 328.6C116.899 328.5 117.599 328.8 117.799 329.5Z" fill="#FDFDFD"/>
    <path d="M115 318.9C115.2 319.6 114.8 320.2 114.1 320.4C113.4 320.6 112.8 320.2 112.6 319.5C112.4 318.8 112.8 318.2 113.5 318C114.2 317.9 114.8 318.2 115 318.9Z" fill="#FDFDFD"/>
    <path d="M112.299 308.4C112.499 309.1 112.099 309.7 111.399 309.9C110.699 310.1 110.099 309.7 109.899 309C109.699 308.3 110.099 307.7 110.799 307.5C111.499 307.3 112.199 307.7 112.299 308.4Z" fill="#FDFDFD"/>
    <path d="M109.7 297.8C109.9 298.5 109.5 299.1 108.8 299.3C108.1 299.5 107.5 299.1 107.3 298.4C107.1 297.7 107.5 297.1 108.2 296.9C108.9 296.8 109.5 297.1 109.7 297.8Z" fill="#FDFDFD"/>
    <path d="M107.099 287.1C107.299 287.8 106.799 288.4 106.199 288.6C105.499 288.8 104.899 288.3 104.699 287.7C104.499 287 104.999 286.4 105.599 286.2C106.099 286.1 106.899 286.6 107.099 287.1Z" fill="#FDFDFD"/>
    <path d="M104.499 276.6C104.699 277.3 104.199 277.9 103.599 278.1C102.899 278.3 102.299 277.8 102.099 277.2C101.899 276.5 102.399 275.9 102.999 275.7C103.799 275.5 104.399 275.9 104.499 276.6Z" fill="#FDFDFD"/>
    <path d="M101.999 266C102.199 266.7 101.699 267.3 101.099 267.5C100.399 267.7 99.7995 267.2 99.5995 266.6C99.3995 265.9 99.8995 265.3 100.499 265.1C101.299 264.8 101.899 265.3 101.999 266Z" fill="#FDFDFD"/>
    <path d="M99.7006 255.3C99.9006 256 99.4007 256.6 98.8006 256.8C98.1006 257 97.5006 256.5 97.3006 255.9C97.1006 255.2 97.6006 254.6 98.2006 254.4C98.9006 254.2 99.5006 254.7 99.7006 255.3Z" fill="#FDFDFD"/>
    <path d="M97.3003 244.7C97.5003 245.4 97.0003 246 96.3003 246.2C95.6003 246.4 95.0003 245.9 94.8003 245.2C94.6003 244.5 95.1003 243.9 95.8003 243.7C96.5003 243.6 97.1003 244 97.3003 244.7Z" fill="#FDFDFD"/>
    <path d="M95.0991 234C95.2991 234.7 94.7991 235.3 94.0991 235.5C93.3991 235.7 92.7991 235.2 92.5991 234.5C92.3991 233.8 92.8991 233.2 93.5991 233C94.2991 232.8 94.8991 233.3 95.0991 234Z" fill="#FDFDFD"/>
    <path d="M92.8003 223.3C93.0003 224 92.5003 224.6 91.8003 224.8C91.1003 225 90.5003 224.5 90.3003 223.8C90.1003 223.1 90.6003 222.5 91.3003 222.3C92.1003 222.2 92.7003 222.6 92.8003 223.3Z" fill="#FDFDFD"/>
    <path d="M90.5991 212.6C90.7991 213.3 90.2991 213.9 89.5991 214.1C88.8991 214.3 88.2991 213.8 88.0991 213.1C87.8991 212.4 88.3991 211.8 89.0991 211.6C89.8991 211.5 90.5991 212 90.5991 212.6Z" fill="#FDFDFD"/>
    <path d="M88.5991 201.9C88.7991 202.6 88.2991 203.2 87.5991 203.4C86.8991 203.6 86.2991 203.1 86.0991 202.4C85.8991 201.7 86.3991 201.1 87.0991 200.9C87.7991 200.9 88.4991 201.2 88.5991 201.9Z" fill="#FDFDFD"/>
    <path d="M86.5991 191.1C86.7991 191.8 86.2991 192.4 85.5991 192.6C84.8991 192.8 84.2991 192.3 84.0991 191.6C83.8991 190.9 84.3991 190.3 85.0991 190.1C85.7991 190 86.4991 190.5 86.5991 191.1Z" fill="#FDFDFD"/>
    <path d="M84.7007 180.5C84.9007 181.2 84.4007 181.8 83.7007 182C83.0007 182.2 82.4007 181.7 82.2007 181C82.0007 180.3 82.5007 179.7 83.2007 179.5C83.9007 179.3 84.6007 179.8 84.7007 180.5Z" fill="#FDFDFD"/>
    <path d="M82.8003 169.6C83.0003 170.3 82.5003 170.9 81.8003 171.1C81.1003 171.3 80.5003 170.8 80.3003 170.1C80.1003 169.4 80.6003 168.8 81.3003 168.6C82.0003 168.5 82.7003 169 82.8003 169.6Z" fill="#FDFDFD"/>
    <path d="M81.0003 159C81.2003 159.7 80.7003 160.3 80.1003 160.3C79.4003 160.3 78.8003 160 78.8003 159.4C78.6003 158.7 79.1003 158.1 79.8003 158.1C80.3003 157.8 80.9003 158.3 81.0003 159Z" fill="#FDFDFD"/>
    <path d="M79.3996 148.1C79.3996 148.8 79.0996 149.4 78.3996 149.4C77.6996 149.4 77.0996 149.1 77.0996 148.5C77.0996 147.8 77.3996 147.2 78.0996 147.2C78.5996 147 79.1996 147.4 79.3996 148.1Z" fill="#FDFDFD"/>
    <path d="M77.7008 137.4C77.7008 138.1 77.3008 138.7 76.6008 138.7C75.9008 138.7 75.3008 138.3 75.3008 137.6C75.3008 136.9 75.7008 136.3 76.4008 136.3C77.0008 136.3 77.7008 136.7 77.7008 137.4Z" fill="#FDFDFD"/>
    <path d="M76.3004 126.6C76.3004 127.3 75.9004 127.9 75.2004 127.9C74.5004 127.9 73.9004 127.5 73.9004 126.8C73.9004 126.1 74.3004 125.5 75.0004 125.5C75.5004 125.4 76.1004 125.9 76.3004 126.6Z" fill="#FDFDFD"/>
    <path d="M74.8004 115.8C74.8004 116.5 74.4004 117.1 73.7004 117.1C73.0004 117.1 72.4004 116.7 72.4004 116C72.4004 115.3 72.8004 114.7 73.5004 114.7C74.1004 114.6 74.7004 115.1 74.8004 115.8Z" fill="#FDFDFD"/>
    <path d="M73.4 105C73.4 105.7 73 106.3 72.3 106.3C71.6 106.3 71 105.9 71 105.2C71 104.5 71.4 103.9 72.1 103.9C72.8 103.7 73.4 104.3 73.4 105Z" fill="#FDFDFD"/>
    <path d="M72.2008 94.1C72.2008 94.8 71.8008 95.4 71.1008 95.4C70.4008 95.4 69.8008 95 69.8008 94.3C69.8008 93.6 70.2008 93 70.9008 93C71.5008 93 72.1008 93.4 72.2008 94.1Z" fill="#FDFDFD"/>
    <path d="M70.9996 83.3002C70.9996 84.0002 70.5996 84.6002 69.8996 84.6002C69.1996 84.6002 68.5996 84.2002 68.5996 83.5002C68.5996 82.8002 68.9996 82.2002 69.6996 82.2002C70.2996 82.2002 70.8996 82.6002 70.9996 83.3002Z" fill="#FDFDFD"/>
    <path d="M69.9996 72.3002C69.9996 73.0002 69.5996 73.6002 68.8996 73.6002C68.1996 73.6002 67.5996 73.2002 67.5996 72.5002C67.5996 71.8002 67.9996 71.2002 68.6996 71.2002C69.2996 71.2002 69.8996 71.7002 69.9996 72.3002Z" fill="#FDFDFD"/>
    <path d="M68.9 61.4997C68.9 62.1997 68.5 62.7997 67.8 62.7997C67.1 62.7997 66.5 62.3997 66.5 61.6997C66.5 60.9997 66.9 60.3997 67.6 60.3997C68.3 60.2997 68.9 60.8997 68.9 61.4997Z" fill="#FDFDFD"/>
    <path d="M67.9996 50.6995C67.9996 51.3995 67.5996 51.9995 66.8996 51.9995C66.1996 51.9995 65.5996 51.5995 65.5996 50.8995C65.5996 50.1995 65.9996 49.5995 66.6996 49.5995C67.3996 49.3995 67.9996 49.9995 67.9996 50.6995Z" fill="#FDFDFD"/>
    <path d="M67.1992 39.7996C67.1992 40.4996 66.7992 41.0996 65.9992 41.0996C65.2992 41.0996 64.6992 40.6996 64.6992 39.8996C64.6992 39.1996 65.0992 38.5996 65.8992 38.5996C66.5992 38.5996 67.1992 39.1996 67.1992 39.7996Z" fill="#FDFDFD"/>
    <path d="M66.5996 28.9002C66.5996 29.6002 66.1996 30.2002 65.3996 30.2002C64.6996 30.2002 64.0996 29.8002 64.0996 29.0002C64.0996 28.3002 64.4996 27.7002 65.2996 27.7002C65.9996 27.7002 66.5996 28.3002 66.5996 28.9002Z" fill="#FDFDFD"/>
    <path d="M194.899 573.2C194.699 572.5 195.099 571.9 195.799 571.7C196.399 571.5 197.099 572 197.299 572.6" fill="#FDFDFD"/>
    <path d="M194.5 562.4C194.7 563.1 194.3 563.7 193.6 563.9C192.9 564.1 192.3 563.7 192.1 563C191.9 562.3 192.3 561.7 193 561.5C193.7 561.4 194.4 561.7 194.5 562.4Z" fill="#FDFDFD"/>
    <path d="M191.799 552.1C191.999 552.8 191.599 553.4 190.899 553.6C190.199 553.8 189.599 553.4 189.399 552.7C189.199 552 189.599 551.4 190.299 551.2C190.999 551 191.599 551.4 191.799 552.1Z" fill="#FDFDFD"/>
    <path d="M188.901 541.8C189.101 542.5 188.701 543.1 188.001 543.3C187.301 543.5 186.701 543.1 186.501 542.4C186.301 541.7 186.701 541.1 187.401 540.9C188.101 540.8 188.801 541.1 188.901 541.8Z" fill="#FDFDFD"/>
    <path d="M186.2 531.5C186.4 532.2 186 532.8 185.3 533C184.6 533.2 184 532.799 183.8 532.099C183.6 531.399 184 530.799 184.7 530.599C185.3 530.399 185.9 530.9 186.2 531.5Z" fill="#FDFDFD"/>
    <path d="M183.299 521.2C183.499 521.9 183.099 522.5 182.399 522.7C181.699 522.9 181.099 522.5 180.899 521.8C180.699 521.1 181.099 520.5 181.799 520.3C182.399 520.2 183.099 520.7 183.299 521.2Z" fill="#FDFDFD"/>
    <path d="M180.401 511C180.601 511.7 180.201 512.3 179.501 512.5C178.801 512.7 178.201 512.3 178.001 511.6C177.801 510.9 178.201 510.3 178.901 510.1C179.601 510 180.301 510.3 180.401 511Z" fill="#FDFDFD"/>
    <path d="M177.5 500.7C177.7 501.4 177.3 502 176.6 502.2C175.9 502.4 175.3 502 175.1 501.3C174.9 500.6 175.3 500 176 499.8C176.7 499.7 177.4 500 177.5 500.7Z" fill="#FDFDFD"/>
    <path d="M174.7 490.5C174.9 491.2 174.5 491.8 173.8 492C173.1 492.2 172.5 491.8 172.3 491.1C172.1 490.4 172.5 489.8 173.2 489.6C173.9 489.4 174.5 489.8 174.7 490.5Z" fill="#FDFDFD"/>
    <path d="M171.799 480.2C171.999 480.9 171.599 481.5 170.899 481.7C170.199 481.9 169.599 481.5 169.399 480.8C169.199 480.1 169.599 479.5 170.299 479.3C170.999 479.2 171.599 479.5 171.799 480.2Z" fill="#FDFDFD"/>
    <path d="M168.901 470C169.101 470.7 168.701 471.3 168.001 471.5C167.301 471.7 166.701 471.3 166.501 470.6C166.301 469.9 166.701 469.3 167.401 469.1C168.101 468.9 168.701 469.3 168.901 470Z" fill="#FDFDFD"/>
    <path d="M166 459.7C166.2 460.4 165.8 461 165.1 461.2C164.4 461.4 163.8 461 163.6 460.3C163.4 459.6 163.8 459 164.5 458.8C165.2 458.7 165.9 459 166 459.7Z" fill="#FDFDFD"/>
    <path d="M163.1 449.5C163.3 450.2 162.9 450.8 162.2 451C161.5 451.2 160.9 450.8 160.7 450.1C160.5 449.4 160.9 448.8 161.6 448.6C162.3 448.4 163 448.8 163.1 449.5Z" fill="#FDFDFD"/>
    <path d="M160.299 439.2C160.499 439.9 160.099 440.5 159.399 440.7C158.699 440.9 158.099 440.5 157.899 439.8C157.699 439.1 158.099 438.5 158.799 438.3C159.499 438.2 160.099 438.5 160.299 439.2Z" fill="#FDFDFD"/>
    <path d="M157.5 429C157.7 429.7 157.3 430.3 156.6 430.5C155.9 430.7 155.3 430.3 155.1 429.6C154.9 428.9 155.3 428.3 156 428.1C156.7 428 157.3 428.3 157.5 429Z" fill="#FDFDFD"/>
    <path d="M154.7 418.6C154.9 419.3 154.5 419.9 153.8 420.1C153.1 420.3 152.5 419.9 152.3 419.2C152.1 418.5 152.5 417.9 153.2 417.7C153.8 417.6 154.5 418.1 154.7 418.6Z" fill="#FDFDFD"/>
    <path d="M151.901 408.4C152.101 409.1 151.701 409.7 151.001 409.9C150.301 410.1 149.701 409.7 149.501 409C149.301 408.3 149.701 407.7 150.401 407.5C151.001 407.4 151.701 407.7 151.901 408.4Z" fill="#FDFDFD"/>
    <path d="M149 398.1C149.2 398.8 148.8 399.4 148.1 399.6C147.4 399.8 146.8 399.4 146.6 398.7C146.4 398 146.8 397.4 147.5 397.2C148.2 397 148.8 397.5 149 398.1Z" fill="#FDFDFD"/>
    <path d="M146.299 387.8C146.499 388.5 146.099 389.1 145.399 389.3C144.699 389.5 144.099 389.1 143.899 388.4C143.699 387.7 144.099 387.1 144.799 386.9C145.499 386.8 146.099 387.1 146.299 387.8Z" fill="#FDFDFD"/>
    <path d="M143.7 377.5C143.9 378.2 143.5 378.8 142.8 379C142.1 379.2 141.5 378.8 141.3 378.1C141.1 377.4 141.5 376.8 142.2 376.6C142.9 376.5 143.5 376.9 143.7 377.5Z" fill="#FDFDFD"/>
    <path d="M140.901 367.2C141.101 367.9 140.701 368.5 140.001 368.7C139.301 368.9 138.701 368.5 138.501 367.8C138.301 367.1 138.701 366.5 139.401 366.3C140.101 366.1 140.801 366.5 140.901 367.2Z" fill="#FDFDFD"/>
    <path d="M138.299 356.9C138.499 357.6 138.099 358.2 137.399 358.4C136.699 358.6 136.099 358.2 135.899 357.5C135.699 356.8 136.099 356.2 136.799 356C137.499 355.9 138.199 356.2 138.299 356.9Z" fill="#FDFDFD"/>
    <path d="M135.7 346.6C135.9 347.3 135.5 347.9 134.8 348.1C134.1 348.3 133.5 347.9 133.3 347.2C133.1 346.5 133.5 345.9 134.2 345.7C134.9 345.6 135.6 345.9 135.7 346.6Z" fill="#FDFDFD"/>
    <path d="M133.1 336.2C133.3 336.9 132.9 337.5 132.2 337.7C131.5 337.9 130.9 337.5 130.7 336.8C130.5 336.1 130.9 335.5 131.6 335.3C132.3 335.2 132.9 335.6 133.1 336.2Z" fill="#FDFDFD"/>
    <path d="M130.599 326C130.799 326.7 130.299 327.3 129.699 327.5C128.999 327.7 128.399 327.2 128.199 326.6C127.999 325.9 128.499 325.3 129.099 325.1C129.799 324.9 130.499 325.3 130.599 326Z" fill="#FDFDFD"/>
    <path d="M128.201 315.6C128.401 316.3 127.901 316.9 127.301 317.1C126.601 317.3 126.001 316.8 125.801 316.2C125.601 315.5 126.101 314.9 126.701 314.7C127.401 314.6 128.001 314.9 128.201 315.6Z" fill="#FDFDFD"/>
    <path d="M125.701 305.2C125.901 305.9 125.401 306.5 124.801 306.7C124.101 306.9 123.501 306.4 123.301 305.8C123.101 305.1 123.601 304.5 124.201 304.3C124.901 304.2 125.601 304.5 125.701 305.2Z" fill="#FDFDFD"/>
    <path d="M123.3 294.9C123.5 295.6 123 296.2 122.4 296.4C121.8 296.6 121.1 296.1 120.9 295.5C120.7 294.8 121.2 294.2 121.8 294C122.3 293.8 123.2 294.2 123.3 294.9Z" fill="#FDFDFD"/>
    <path d="M120.9 284.4C121.1 285.1 120.6 285.7 120 285.9C119.3 286.1 118.7 285.6 118.5 285C118.3 284.3 118.8 283.7 119.4 283.5C120.1 283.4 120.8 283.7 120.9 284.4Z" fill="#FDFDFD"/>
    <path d="M118.701 274.1C118.901 274.8 118.401 275.4 117.701 275.6C117.001 275.8 116.401 275.3 116.201 274.6C116.001 273.9 116.501 273.3 117.201 273.1C117.901 273 118.601 273.4 118.701 274.1Z" fill="#FDFDFD"/>
    <path d="M116.4 263.7C116.6 264.4 116.1 265 115.4 265.2C114.7 265.4 114.1 264.9 113.9 264.2C113.7 263.5 114.2 262.9 114.9 262.7C115.6 262.5 116.4 263 116.4 263.7Z" fill="#FDFDFD"/>
    <path d="M114.201 253.3C114.401 254 113.901 254.6 113.201 254.8C112.501 255 111.901 254.5 111.701 253.8C111.501 253.1 112.001 252.5 112.701 252.3C113.401 252.1 114.201 252.6 114.201 253.3Z" fill="#FDFDFD"/>
    <path d="M112.201 242.8C112.401 243.5 111.901 244.1 111.201 244.3C110.501 244.5 109.901 244 109.701 243.3C109.501 242.6 110.001 242 110.701 241.8C111.401 241.7 112.001 242.1 112.201 242.8Z" fill="#FDFDFD"/>
    <path d="M110.099 232.4C110.299 233.1 109.799 233.7 109.099 233.9C108.399 234.1 107.799 233.6 107.599 232.9C107.399 232.2 107.899 231.6 108.599 231.4C109.299 231.3 109.899 231.7 110.099 232.4Z" fill="#FDFDFD"/>
    <path d="M108.099 221.9C108.299 222.6 107.799 223.2 107.099 223.4C106.399 223.6 105.799 223.1 105.599 222.4C105.399 221.7 105.899 221.1 106.599 220.9C107.399 220.8 107.999 221.3 108.099 221.9Z" fill="#FDFDFD"/>
    <path d="M106.099 211.5C106.299 212.2 105.799 212.8 105.099 213C104.399 213.2 103.799 212.7 103.599 212C103.399 211.3 103.899 210.7 104.599 210.5C105.499 210.4 106.099 210.8 106.099 211.5Z" fill="#FDFDFD"/>
    <path d="M104.4 200.9C104.6 201.6 104.1 202.2 103.4 202.4C102.7 202.6 102.1 202.1 101.9 201.4C101.7 200.7 102.2 200.1 102.9 199.9C103.6 199.8 104.2 200.2 104.4 200.9Z" fill="#FDFDFD"/>
    <path d="M102.599 190.5C102.799 191.2 102.299 191.8 101.599 192C100.899 192.2 100.299 191.7 100.099 191C99.8991 190.3 100.399 189.7 101.099 189.5C101.799 189.4 102.399 189.8 102.599 190.5Z" fill="#FDFDFD"/>
    <path d="M100.8 180C101 180.7 100.5 181.3 99.7995 181.3C99.0995 181.3 98.4995 181 98.4995 180.3C98.2995 179.6 98.7995 179 99.4995 179C99.9995 178.9 100.6 179.3 100.8 180Z" fill="#FDFDFD"/>
    <path d="M99.1006 169.5C99.3006 170.2 98.8006 170.8 98.1006 170.8C97.4006 170.8 96.8006 170.5 96.8006 169.8C96.6006 169.1 97.1006 168.5 97.7006 168.5C98.4006 168.4 99.0006 168.8 99.1006 169.5Z" fill="#FDFDFD"/>
    <path d="M97.4992 158.9C97.4992 159.6 97.0992 160.2 96.4992 160.2C95.7992 160.2 95.1992 159.8 95.1992 159.3C95.1992 158.6 95.5992 158 96.0992 158C96.8992 157.8 97.4992 158.3 97.4992 158.9Z" fill="#FDFDFD"/>
    <path d="M95.9996 148.5C95.9996 149.2 95.5996 149.8 94.8996 149.8C94.1996 149.8 93.5996 149.4 93.5996 148.7C93.5996 148 93.9996 147.4 94.6996 147.4C95.2996 147.3 95.8996 147.8 95.9996 148.5Z" fill="#FDFDFD"/>
    <path d="M94.4996 137.9C94.4996 138.6 94.0996 139.2 93.3996 139.2C92.6996 139.2 92.0996 138.8 92.0996 138.1C92.0996 137.4 92.4996 136.8 93.1996 136.8C93.7996 136.8 94.3996 137.2 94.4996 137.9Z" fill="#FDFDFD"/>
    <path d="M93.0992 127.2C93.0992 127.9 92.6992 128.5 91.9992 128.5C91.2992 128.5 90.6992 128.1 90.6992 127.4C90.6992 126.7 91.0992 126.1 91.7992 126.1C92.4992 126.1 93.0992 126.6 93.0992 127.2Z" fill="#FDFDFD"/>
    <path d="M91.8004 116.8C91.8004 117.5 91.4004 118.1 90.7004 118.1C90.0004 118.1 89.4004 117.7 89.4004 117C89.4004 116.3 89.8004 115.7 90.5004 115.7C91.2004 115.6 91.8004 116.1 91.8004 116.8Z" fill="#FDFDFD"/>
    <path d="M90.5992 106.1C90.5992 106.8 90.1992 107.4 89.4992 107.4C88.7992 107.4 88.1992 107 88.1992 106.3C88.1992 105.6 88.5992 105 89.2992 105C89.8992 105 90.5992 105.5 90.5992 106.1Z" fill="#FDFDFD"/>
    <path d="M89.4996 95.6C89.4996 96.3 89.0996 96.9 88.3996 96.9C87.6996 96.9 87.0996 96.5 87.0996 95.8C87.0996 95.1 87.4996 94.5 88.1996 94.5C88.7996 94.5 89.3996 94.9 89.4996 95.6Z" fill="#FDFDFD"/>
    <path d="M88.4 85.0004C88.4 85.7004 88 86.3004 87.3 86.3004C86.6 86.3004 86 85.9004 86 85.2004C86 84.5004 86.4 83.9004 87.1 83.9004C87.7 83.9004 88.3 84.4004 88.4 85.0004Z" fill="#FDFDFD"/>
    <path d="M87.4 74.3998C87.4 75.0998 87 75.6998 86.3 75.6998C85.6 75.6998 85 75.2998 85 74.5998C85 73.8998 85.4 73.2998 86.1 73.2998C86.7 73.2998 87.3 73.6998 87.4 74.3998Z" fill="#FDFDFD"/>
    <path d="M86.4996 63.8997C86.4996 64.5997 86.0996 65.1997 85.3996 65.1997C84.6996 65.1997 84.0996 64.7997 84.0996 64.0997C84.0996 63.3997 84.4996 62.7997 85.1996 62.7997C85.8996 62.5997 86.4996 63.1997 86.4996 63.8997Z" fill="#FDFDFD"/>
    <path d="M85.5992 53.3003C85.5992 54.0003 85.1992 54.6003 84.4992 54.6003C83.7992 54.6003 83.1992 54.2004 83.1992 53.5004C83.1992 52.8004 83.5992 52.2004 84.2992 52.2004C84.9992 52.0004 85.5992 52.5003 85.5992 53.3003Z" fill="#FDFDFD"/>
    <path d="M84.9004 42.6004C84.9004 43.3004 84.5004 43.9004 83.7004 43.9004C83.0004 43.9004 82.4004 43.5004 82.4004 42.7004C82.4004 42.0004 82.8004 41.4004 83.6004 41.4004C84.3004 41.5004 84.9004 41.9004 84.9004 42.6004Z" fill="#FDFDFD"/>
    <path d="M84.1992 31.9998C84.1992 32.6998 83.6992 33.1998 82.9992 33.2998C82.2992 33.2998 81.7992 32.7998 81.6992 32.0998C81.6992 31.3998 82.1992 30.8998 82.8992 30.7998C83.5992 30.7998 84.1992 31.1998 84.1992 31.9998Z" fill="#FDFDFD"/>
    <path d="M82.4004 20.2002C83.2004 20.2002 83.6004 20.7002 83.7004 21.4002C83.7004 22.1002 83.2004 22.6002 82.5004 22.7002C81.8004 22.7002 81.3004 22.2002 81.2004 21.5002C81.1004 20.8002 81.7004 20.2002 82.4004 20.2002Z" fill="#FDFDFD"/>
    <path d="M196.801 550.4C196.601 549.7 197.101 549.1 197.701 548.9L196.801 550.4Z" fill="#FDFDFD"/>
    <path d="M191.899 530C191.699 529.3 192.099 528.7 192.799 528.5L191.899 530Z" fill="#FDFDFD"/>
    <path d="M191.7 519.3C191.9 520 191.5 520.6 190.8 520.8C190.1 521 189.5 520.6 189.3 519.9C189.1 519.2 189.5 518.6 190.2 518.4C190.9 518.2 191.6 518.6 191.7 519.3Z" fill="#FDFDFD"/>
    <path d="M189.2 509.1C189.4 509.8 189 510.4 188.3 510.6C187.6 510.8 187 510.4 186.8 509.7C186.6 509 187 508.4 187.7 508.2C188.4 508.1 189 508.4 189.2 509.1Z" fill="#FDFDFD"/>
    <path d="M186.7 498.9C186.9 499.6 186.5 500.2 185.8 500.4C185.1 500.6 184.5 500.2 184.3 499.5C184.1 498.8 184.5 498.2 185.2 498C185.9 497.8 186.5 498.3 186.7 498.9Z" fill="#FDFDFD"/>
    <path d="M184 488.7C184.2 489.4 183.8 490 183.1 490.2C182.4 490.4 181.8 490 181.6 489.3C181.4 488.6 181.8 488 182.5 487.8C183.2 487.7 183.8 488.1 184 488.7Z" fill="#FDFDFD"/>
    <path d="M181.5 478.6C181.7 479.3 181.3 479.9 180.6 480.1C179.9 480.3 179.3 479.9 179.1 479.2C178.9 478.5 179.3 477.9 180 477.7C180.7 477.5 181.3 477.9 181.5 478.6Z" fill="#FDFDFD"/>
    <path d="M179 468.4C179.2 469.1 178.8 469.7 178.1 469.9C177.4 470.1 176.8 469.7 176.6 469C176.4 468.3 176.8 467.7 177.5 467.5C178 467.4 178.8 467.7 179 468.4Z" fill="#FDFDFD"/>
    <path d="M176.299 458.2C176.499 458.9 176.099 459.5 175.399 459.7C174.699 459.9 174.099 459.5 173.899 458.8C173.699 458.1 174.099 457.5 174.799 457.3C175.499 457.2 176.199 457.6 176.299 458.2Z" fill="#FDFDFD"/>
    <path d="M173.799 448.1C173.999 448.8 173.599 449.4 172.899 449.6C172.199 449.8 171.599 449.4 171.399 448.7C171.199 448 171.599 447.4 172.299 447.2C172.999 447.1 173.599 447.4 173.799 448.1Z" fill="#FDFDFD"/>
    <path d="M171.2 438C171.4 438.7 171 439.3 170.3 439.5C169.6 439.7 169 439.3 168.8 438.6C168.6 437.9 169 437.3 169.7 437.1C170.3 436.9 171.1 437.3 171.2 438Z" fill="#FDFDFD"/>
    <path d="M168.6 427.7C168.8 428.4 168.4 429 167.7 429.2C167 429.4 166.4 429 166.2 428.3C166 427.6 166.4 427 167.1 426.8C167.8 426.6 168.4 427.1 168.6 427.7Z" fill="#FDFDFD"/>
    <path d="M166.1 417.5C166.3 418.2 165.9 418.8 165.2 419C164.5 419.2 163.9 418.8 163.7 418.1C163.5 417.4 163.9 416.8 164.6 416.6C165.3 416.5 165.9 416.8 166.1 417.5Z" fill="#FDFDFD"/>
    <path d="M163.6 407.4C163.8 408.1 163.4 408.7 162.7 408.9C162 409.1 161.4 408.7 161.2 408C161 407.3 161.4 406.7 162.1 406.5C162.7 406.4 163.4 406.7 163.6 407.4Z" fill="#FDFDFD"/>
    <path d="M161.201 397.2C161.401 397.9 160.901 398.5 160.301 398.7C159.601 398.9 159.001 398.4 158.801 397.8C158.601 397.1 159.101 396.5 159.701 396.3C160.201 396.1 161.001 396.6 161.201 397.2Z" fill="#FDFDFD"/>
    <path d="M158.599 387C158.799 387.7 158.299 388.3 157.699 388.5C157.099 388.7 156.399 388.2 156.199 387.6C155.999 386.9 156.499 386.3 157.099 386.1C157.799 386 158.499 386.4 158.599 387Z" fill="#FDFDFD"/>
    <path d="M156.3 376.8C156.5 377.5 156 378.1 155.4 378.3C154.7 378.5 154.1 378 153.9 377.4C153.7 376.7 154.2 376.1 154.8 375.9C155.3 375.8 156.1 376.1 156.3 376.8Z" fill="#FDFDFD"/>
    <path d="M153.8 366.6C154 367.3 153.5 367.9 152.9 368.1C152.2 368.3 151.6 367.8 151.4 367.2C151.2 366.5 151.7 365.9 152.3 365.7C152.9 365.5 153.6 366 153.8 366.6Z" fill="#FDFDFD"/>
    <path d="M151.4 356.4C151.6 357.1 151.1 357.7 150.5 357.9C149.8 358.1 149.2 357.6 149 357C148.8 356.3 149.3 355.7 149.9 355.5C150.5 355.3 151.2 355.8 151.4 356.4Z" fill="#FDFDFD"/>
    <path d="M148.999 346.1C149.199 346.8 148.699 347.4 148.099 347.6C147.399 347.8 146.799 347.3 146.599 346.7C146.399 346 146.899 345.4 147.499 345.2C148.199 345.1 148.899 345.6 148.999 346.1Z" fill="#FDFDFD"/>
    <path d="M146.701 336C146.901 336.7 146.401 337.3 145.801 337.5C145.101 337.7 144.501 337.2 144.301 336.6C144.101 335.9 144.601 335.3 145.201 335.1C145.901 334.9 146.601 335.3 146.701 336Z" fill="#FDFDFD"/>
    <path d="M144.5 325.8C144.7 326.5 144.2 327.1 143.5 327.3C142.8 327.5 142.2 327 142 326.3C141.8 325.6 142.3 325 143 324.8C143.7 324.6 144.3 325.1 144.5 325.8Z" fill="#FDFDFD"/>
    <path d="M142.201 315.5C142.401 316.2 141.901 316.8 141.201 317C140.501 317.2 139.901 316.7 139.701 316C139.501 315.3 140.001 314.7 140.701 314.5C141.401 314.4 142.001 314.9 142.201 315.5Z" fill="#FDFDFD"/>
    <path d="M140 305.3C140.2 306 139.7 306.6 139 306.8C138.3 307 137.7 306.5 137.5 305.8C137.3 305.1 137.8 304.5 138.5 304.3C139.2 304.2 139.8 304.6 140 305.3Z" fill="#FDFDFD"/>
    <path d="M137.8 295C138 295.7 137.5 296.3 136.8 296.5C136.1 296.7 135.5 296.2 135.3 295.5C135.1 294.8 135.6 294.2 136.3 294C137.1 293.9 137.7 294.4 137.8 295Z" fill="#FDFDFD"/>
    <path d="M135.701 284.8C135.901 285.5 135.401 286.1 134.701 286.3C134.001 286.5 133.401 286 133.201 285.3C133.001 284.6 133.501 284 134.201 283.8C135.001 283.6 135.601 284.1 135.701 284.8Z" fill="#FDFDFD"/>
    <path d="M133.701 274.4C133.901 275.1 133.401 275.7 132.701 275.9C132.001 276.1 131.401 275.6 131.201 274.9C131.001 274.2 131.501 273.6 132.201 273.4C132.801 273.4 133.501 273.8 133.701 274.4Z" fill="#FDFDFD"/>
    <path d="M131.701 264.2C131.901 264.9 131.401 265.5 130.701 265.7C130.001 265.9 129.401 265.4 129.201 264.7C129.001 264 129.501 263.4 130.201 263.2C130.901 263.1 131.501 263.5 131.701 264.2Z" fill="#FDFDFD"/>
    <path d="M129.701 253.9C129.901 254.6 129.401 255.2 128.701 255.4C128.001 255.6 127.401 255.1 127.201 254.4C127.001 253.7 127.501 253.1 128.201 252.9C128.901 252.8 129.501 253.3 129.701 253.9Z" fill="#FDFDFD"/>
    <path d="M127.701 243.6C127.901 244.3 127.401 244.9 126.701 245.1C126.001 245.3 125.401 244.8 125.201 244.1C125.001 243.4 125.501 242.8 126.201 242.6C126.901 242.5 127.501 243 127.701 243.6Z" fill="#FDFDFD"/>
    <path d="M125.9 233.2C126.1 233.9 125.6 234.5 124.9 234.7C124.2 234.9 123.6 234.4 123.4 233.7C123.2 233 123.7 232.4 124.4 232.2C125.1 232.1 125.7 232.7 125.9 233.2Z" fill="#FDFDFD"/>
    <path d="M124 222.9C124.2 223.6 123.7 224.2 123 224.4C122.3 224.6 121.7 224.1 121.5 223.4C121.3 222.7 121.8 222.1 122.5 221.9C123.3 221.8 123.9 222.2 124 222.9Z" fill="#FDFDFD"/>
    <path d="M122.201 212.6C122.401 213.3 121.901 213.9 121.201 214.1C120.501 214.3 119.901 213.8 119.701 213.1C119.501 212.4 120.001 211.8 120.701 211.6C121.401 211.5 122.101 212 122.201 212.6Z" fill="#FDFDFD"/>
    <path d="M120.499 202.3C120.699 203 120.199 203.6 119.499 203.6C118.799 203.8 118.199 203.3 118.199 202.6C117.999 201.9 118.499 201.3 119.099 201.3C119.799 201.2 120.399 201.6 120.499 202.3Z" fill="#FDFDFD"/>
    <path d="M118.899 191.9C119.099 192.6 118.599 193.2 117.999 193.2C117.299 193.4 116.699 192.9 116.699 192.2C116.499 191.5 116.999 190.9 117.599 190.9C118.099 190.8 118.799 191.2 118.899 191.9Z" fill="#FDFDFD"/>
    <path d="M117.3 181.6C117.3 182.3 116.9 182.9 116.4 182.9C115.7 182.9 115.1 182.5 115.1 182C115.1 181.3 115.5 180.7 116.1 180.7C116.6 180.4 117.2 180.9 117.3 181.6Z" fill="#FDFDFD"/>
    <path d="M115.8 171.3C115.8 172 115.4 172.6 114.7 172.6C114 172.6 113.4 172.2 113.4 171.5C113.4 170.8 113.8 170.2 114.5 170.2C115.1 170.1 115.7 170.6 115.8 171.3Z" fill="#FDFDFD"/>
    <path d="M114.3 160.8C114.3 161.5 113.9 162.1 113.2 162.1C112.5 162.1 111.9 161.7 111.9 161C111.9 160.3 112.3 159.7 113 159.7C113.7 159.7 114.3 160.2 114.3 160.8Z" fill="#FDFDFD"/>
    <path d="M112.9 150.4C112.9 151.1 112.5 151.7 111.8 151.7C111.1 151.7 110.5 151.3 110.5 150.6C110.5 149.9 110.9 149.3 111.6 149.3C112.2 149.3 112.9 149.8 112.9 150.4Z" fill="#FDFDFD"/>
    <path d="M111.599 140.1C111.599 140.8 111.199 141.4 110.499 141.4C109.799 141.4 109.199 141 109.199 140.3C109.199 139.6 109.599 139 110.299 139C110.899 138.9 111.499 139.4 111.599 140.1Z" fill="#FDFDFD"/>
    <path d="M110.3 129.7C110.3 130.4 109.9 131 109.2 131C108.5 131 107.9 130.6 107.9 129.9C107.9 129.2 108.3 128.6 109 128.6C109.6 128.6 110.2 129 110.3 129.7Z" fill="#FDFDFD"/>
    <path d="M109.099 119.2C109.099 119.9 108.699 120.5 107.999 120.5C107.299 120.5 106.699 120.1 106.699 119.4C106.699 118.7 107.099 118.1 107.799 118.1C108.499 118.1 109.099 118.6 109.099 119.2Z" fill="#FDFDFD"/>
    <path d="M108 108.8C108 109.5 107.6 110.1 106.9 110.1C106.2 110.1 105.6 109.7 105.6 109C105.6 108.3 106 107.7 106.7 107.7C107.3 107.7 107.9 108.1 108 108.8Z" fill="#FDFDFD"/>
    <path d="M106.9 98.3998C106.9 99.0998 106.5 99.6998 105.8 99.6998C105.1 99.6998 104.5 99.2998 104.5 98.5998C104.5 97.8998 104.9 97.2999 105.6 97.2999C106.3 97.1999 106.9 97.6998 106.9 98.3998Z" fill="#FDFDFD"/>
    <path d="M105.9 87.8998C105.9 88.5998 105.5 89.1998 104.8 89.1998C104.1 89.1998 103.5 88.7998 103.5 88.0998C103.5 87.3998 103.9 86.7998 104.6 86.7998C105.2 86.7998 105.8 87.2998 105.9 87.8998Z" fill="#FDFDFD"/>
    <path d="M104.9 77.5999C104.9 78.2999 104.5 78.8999 103.8 78.8999C103.1 78.8999 102.5 78.4999 102.5 77.7999C102.5 77.0999 102.9 76.4999 103.6 76.4999C104.3 76.2999 104.9 76.8999 104.9 77.5999Z" fill="#FDFDFD"/>
    <path d="M104.201 67.1C104.201 67.8 103.801 68.4 103.101 68.4C102.401 68.4 101.801 68 101.801 67.3C101.801 66.6 102.201 66 102.901 66C103.501 66 104.001 66.4 104.201 67.1Z" fill="#FDFDFD"/>
    <path d="M103.4 56.6C103.4 57.3 103 57.9 102.3 57.9C101.6 57.9 101 57.5 101 56.8C101 56.1 101.4 55.5 102.1 55.5C102.7 55.5 103.2 56 103.4 56.6Z" fill="#FDFDFD"/>
    <path d="M102.6 46.2C102.6 46.9 102.2 47.5 101.4 47.5C100.7 47.5 100.1 47.1 100.1 46.3C100.1 45.6 100.5 45 101.3 45C102 45 102.6 45.5 102.6 46.2Z" fill="#FDFDFD"/>
    <path d="M101.9 35.7996C101.9 36.4996 101.4 36.9996 100.7 37.0996C100 37.0996 99.5004 36.5996 99.4004 35.8996C99.4004 35.1996 99.9004 34.6996 100.6 34.5996C101.3 34.4996 101.9 34.9996 101.9 35.7996Z" fill="#FDFDFD"/>
    <path d="M101.4 25.2996C101.4 25.9996 100.9 26.4996 100.2 26.5996C99.5004 26.5996 99.0004 26.0996 98.9004 25.3996C98.9004 24.6996 99.4004 24.1996 100.1 24.0996C100.8 24.0996 101.4 24.5996 101.4 25.2996Z" fill="#FDFDFD"/>
    <path d="M191.699 484.2C191.099 484.4 190.399 483.9 190.199 483.3C189.999 482.6 190.499 482 191.099 481.8" fill="#FDFDFD"/>
    <path d="M190.3 472.7C190.5 473.4 190 474 189.4 474.2C188.8 474.4 188.1 473.9 187.9 473.3C187.7 472.6 188.2 472 188.8 471.8C189.5 471.6 190.1 472.1 190.3 472.7Z" fill="#FDFDFD"/>
    <path d="M188.099 462.7C188.299 463.4 187.799 464 187.199 464.2C186.499 464.4 185.899 463.9 185.699 463.3C185.499 462.6 185.999 462 186.599 461.8C187.299 461.7 187.899 462.1 188.099 462.7Z" fill="#FDFDFD"/>
    <path d="M185.9 452.7C186.1 453.4 185.6 454 185 454.2C184.3 454.4 183.7 453.9 183.5 453.3C183.3 452.6 183.8 452 184.4 451.8C185.1 451.7 185.7 452.1 185.9 452.7Z" fill="#FDFDFD"/>
    <path d="M183.499 442.8C183.699 443.5 183.199 444.1 182.599 444.3C181.899 444.5 181.299 444 181.099 443.4C180.899 442.7 181.399 442.1 181.999 441.9C182.799 441.6 183.399 442.1 183.499 442.8Z" fill="#FDFDFD"/>
    <path d="M181.4 432.7C181.6 433.4 181.1 434 180.5 434.2C179.8 434.4 179.2 433.9 179 433.3C178.8 432.6 179.3 432 179.9 431.8C180.6 431.7 181.2 432.1 181.4 432.7Z" fill="#FDFDFD"/>
    <path d="M179.099 422.8C179.299 423.5 178.799 424.1 178.199 424.3C177.499 424.5 176.899 424 176.699 423.4C176.499 422.7 176.999 422.1 177.599 421.9C178.399 421.7 178.999 422.1 179.099 422.8Z" fill="#FDFDFD"/>
    <path d="M176.8 412.8C177 413.5 176.5 414.1 175.9 414.3C175.2 414.5 174.6 414 174.4 413.4C174.2 412.7 174.7 412.1 175.3 411.9C176 411.7 176.8 412.1 176.8 412.8Z" fill="#FDFDFD"/>
    <path d="M174.599 402.7C174.799 403.4 174.299 404 173.599 404.2C172.899 404.4 172.299 403.9 172.099 403.2C171.899 402.5 172.399 401.9 173.099 401.7C173.799 401.7 174.599 402.1 174.599 402.7Z" fill="#FDFDFD"/>
    <path d="M172.4 392.7C172.6 393.4 172.1 394 171.4 394.2C170.7 394.4 170.1 393.9 169.9 393.2C169.7 392.5 170.2 391.9 170.9 391.7C171.6 391.7 172.4 392.2 172.4 392.7Z" fill="#FDFDFD"/>
    <path d="M170.3 382.8C170.5 383.5 170 384.1 169.3 384.3C168.6 384.5 168 384 167.8 383.3C167.6 382.6 168.1 382 168.8 381.8C169.5 381.6 170.2 382.1 170.3 382.8Z" fill="#FDFDFD"/>
    <path d="M168.099 372.8C168.299 373.5 167.799 374.1 167.099 374.3C166.399 374.5 165.799 374 165.599 373.3C165.399 372.6 165.899 372 166.599 371.8C167.399 371.7 167.999 372.1 168.099 372.8Z" fill="#FDFDFD"/>
    <path d="M165.9 362.8C166.1 363.5 165.6 364.1 164.9 364.3C164.2 364.5 163.6 364 163.4 363.3C163.2 362.6 163.7 362 164.4 361.8C165.2 361.6 165.9 362.1 165.9 362.8Z" fill="#FDFDFD"/>
    <path d="M163.9 352.8C164.1 353.5 163.6 354.1 162.9 354.3C162.2 354.5 161.6 354 161.4 353.3C161.2 352.6 161.7 352 162.4 351.8C163.1 351.7 163.7 352.1 163.9 352.8Z" fill="#FDFDFD"/>
    <path d="M161.8 342.7C162 343.4 161.5 344 160.8 344.2C160.1 344.4 159.5 343.9 159.3 343.2C159.1 342.5 159.6 341.9 160.3 341.7C161.1 341.5 161.7 342 161.8 342.7Z" fill="#FDFDFD"/>
    <path d="M159.8 332.7C160 333.4 159.5 334 158.8 334.2C158.1 334.4 157.5 333.9 157.3 333.2C157.1 332.5 157.6 331.9 158.3 331.7C159 331.6 159.6 332 159.8 332.7Z" fill="#FDFDFD"/>
    <path d="M157.701 322.6C157.901 323.3 157.401 323.9 156.701 324.1C156.001 324.3 155.401 323.8 155.201 323.1C155.001 322.4 155.501 321.8 156.201 321.6C157.001 321.6 157.601 322.1 157.701 322.6Z" fill="#FDFDFD"/>
    <path d="M155.8 312.6C156 313.3 155.5 313.9 154.8 314.1C154.1 314.3 153.5 313.8 153.3 313.1C153.1 312.4 153.6 311.8 154.3 311.6C155 311.5 155.6 312 155.8 312.6Z" fill="#FDFDFD"/>
    <path d="M153.8 302.6C154 303.3 153.5 303.9 152.8 304.1C152.1 304.3 151.5 303.8 151.3 303.1C151.1 302.4 151.6 301.8 152.3 301.6C153.1 301.4 153.7 301.9 153.8 302.6Z" fill="#FDFDFD"/>
    <path d="M151.9 292.5C152.1 293.2 151.6 293.8 150.9 294C150.2 294.2 149.6 293.7 149.4 293C149.2 292.3 149.7 291.7 150.4 291.5C151.1 291.3 151.8 291.8 151.9 292.5Z" fill="#FDFDFD"/>
    <path d="M150 282.4C150.2 283.1 149.7 283.7 149 283.9C148.3 284.1 147.7 283.6 147.5 282.9C147.3 282.2 147.8 281.6 148.5 281.4C149.2 281.3 150 281.8 150 282.4Z" fill="#FDFDFD"/>
    <path d="M148.201 272.4C148.401 273.1 147.901 273.7 147.201 273.9C146.501 274.1 145.901 273.6 145.701 272.9C145.501 272.2 146.001 271.6 146.701 271.4C147.401 271.3 148.001 271.7 148.201 272.4Z" fill="#FDFDFD"/>
    <path d="M146.4 262.3C146.6 263 146.1 263.6 145.4 263.8C144.7 264 144.1 263.5 143.9 262.8C143.7 262.1 144.2 261.5 144.9 261.3C145.6 261.2 146.3 261.6 146.4 262.3Z" fill="#FDFDFD"/>
    <path d="M144.599 252.2C144.799 252.9 144.299 253.5 143.599 253.7C142.899 253.9 142.299 253.4 142.099 252.7C141.899 252 142.399 251.4 143.099 251.2C143.799 251.1 144.599 251.6 144.599 252.2Z" fill="#FDFDFD"/>
    <path d="M143 242.1C143.2 242.8 142.7 243.4 142 243.6C141.3 243.8 140.7 243.3 140.5 242.6C140.3 241.9 140.8 241.3 141.5 241.1C142.2 241 142.8 241.5 143 242.1Z" fill="#FDFDFD"/>
    <path d="M141.299 232C141.499 232.7 140.999 233.3 140.399 233.3C139.699 233.5 139.099 233 139.099 232.4C138.899 231.7 139.399 231.1 139.999 231.1C140.599 231 141.099 231.3 141.299 232Z" fill="#FDFDFD"/>
    <path d="M139.6 221.9C139.8 222.6 139.3 223.2 138.7 223.2C138 223.2 137.4 222.9 137.4 222.3C137.2 221.6 137.7 221 138.4 221C138.9 220.9 139.5 221.2 139.6 221.9Z" fill="#FDFDFD"/>
    <path d="M138.1 211.9C138.1 212.6 137.8 213.2 137.2 213.2C136.5 213.2 135.9 212.9 135.9 212.2C135.9 211.5 136.2 210.9 136.9 210.9C137.3 210.7 137.9 211.2 138.1 211.9Z" fill="#FDFDFD"/>
    <path d="M136.601 201.7C136.601 202.4 136.201 203 135.601 203C134.901 203 134.301 202.6 134.301 202C134.301 201.3 134.701 200.7 135.201 200.7C135.801 200.5 136.401 201 136.601 201.7Z" fill="#FDFDFD"/>
    <path d="M135.099 191.6C135.099 192.3 134.699 192.9 133.999 192.9C133.299 192.9 132.699 192.5 132.699 191.8C132.699 191.1 133.099 190.5 133.799 190.5C134.399 190.5 134.999 191 135.099 191.6Z" fill="#FDFDFD"/>
    <path d="M133.701 181.5C133.701 182.2 133.301 182.8 132.601 182.8C131.901 182.8 131.301 182.4 131.301 181.7C131.301 181 131.701 180.4 132.401 180.4C133.001 180.4 133.501 180.8 133.701 181.5Z" fill="#FDFDFD"/>
    <path d="M132.3 171.3C132.3 172 131.9 172.6 131.2 172.6C130.5 172.6 129.9 172.2 129.9 171.5C129.9 170.8 130.3 170.2 131 170.2C131.5 170.2 132.1 170.6 132.3 171.3Z" fill="#FDFDFD"/>
    <path d="M130.9 161.2C130.9 161.9 130.5 162.5 129.8 162.5C129.1 162.5 128.5 162.1 128.5 161.4C128.5 160.7 128.9 160.1 129.6 160.1C130.2 160.1 130.9 160.5 130.9 161.2Z" fill="#FDFDFD"/>
    <path d="M129.701 150.9C129.701 151.6 129.301 152.2 128.601 152.2C127.901 152.2 127.301 151.8 127.301 151.1C127.301 150.4 127.701 149.8 128.401 149.8C129.001 149.8 129.601 150.3 129.701 150.9Z" fill="#FDFDFD"/>
    <path d="M128.5 140.9C128.5 141.6 128.1 142.2 127.4 142.2C126.7 142.2 126.1 141.8 126.1 141.1C126.1 140.4 126.5 139.8 127.2 139.8C127.9 139.7 128.4 140.2 128.5 140.9Z" fill="#FDFDFD"/>
    <path d="M127.4 130.7C127.4 131.4 127 132 126.3 132C125.6 132 125 131.6 125 130.9C125 130.2 125.4 129.6 126.1 129.6C126.6 129.5 127.2 130 127.4 130.7Z" fill="#FDFDFD"/>
    <path d="M126.3 120.5C126.3 121.2 125.9 121.8 125.2 121.8C124.5 121.8 123.9 121.4 123.9 120.7C123.9 120 124.3 119.4 125 119.4C125.6 119.4 126.2 119.9 126.3 120.5Z" fill="#FDFDFD"/>
    <path d="M125.099 110.3C125.099 111 124.699 111.6 123.999 111.6C123.299 111.6 122.699 111.2 122.699 110.5C122.699 109.8 123.099 109.2 123.799 109.2C124.499 109.2 125.099 109.7 125.099 110.3Z" fill="#FDFDFD"/>
    <path d="M124.3 100.1C124.3 100.8 123.9 101.4 123.2 101.4C122.5 101.4 121.9 101 121.9 100.3C121.9 99.6 122.3 99 123 99C123.6 99 124.1 99.4 124.3 100.1Z" fill="#FDFDFD"/>
    <path d="M123.3 89.8998C123.3 90.5998 122.9 91.1998 122.2 91.1998C121.5 91.1998 120.9 90.7998 120.9 90.0998C120.9 89.3998 121.3 88.7998 122 88.7998C122.6 88.7998 123.2 89.2998 123.3 89.8998Z" fill="#FDFDFD"/>
    <path d="M122.4 79.6996C122.4 80.3996 122 80.9996 121.3 80.9996C120.6 80.9996 120 80.5996 120 79.8996C120 79.1996 120.4 78.5996 121.1 78.5996C121.8 78.5996 122.4 79.0996 122.4 79.6996Z" fill="#FDFDFD"/>
    <path d="M121.701 69.5004C121.701 70.2004 121.301 70.8004 120.601 70.8004C119.901 70.8004 119.301 70.4004 119.301 69.7004C119.301 69.0004 119.701 68.4004 120.401 68.4004C121.001 68.4004 121.701 68.9004 121.701 69.5004Z" fill="#FDFDFD"/>
    <path d="M121 59.2996C121 59.9996 120.6 60.5996 119.8 60.5996C119.1 60.5996 118.5 60.1996 118.5 59.3996C118.5 58.6996 118.9 58.0996 119.7 58.0996C120.3 58.0996 120.9 58.6996 121 59.2996Z" fill="#FDFDFD"/>
    <path d="M120.199 49.2C120.199 49.9 119.799 50.5 118.999 50.5C118.199 50.5 117.699 50.1 117.699 49.3C117.699 48.6 118.099 48 118.899 48C119.599 47.9 120.199 48.4 120.199 49.2Z" fill="#FDFDFD"/>
    <path d="M119.6 38.9002C119.6 39.6002 119.1 40.1002 118.4 40.2002C117.7 40.2002 117.2 39.7002 117.1 39.0002C117.1 38.3002 117.6 37.8002 118.3 37.7002C119 37.7002 119.6 38.2002 119.6 38.9002Z" fill="#FDFDFD"/>
    <path d="M119.199 28.7002C119.199 29.4002 118.699 29.9002 117.999 30.0002C117.299 30.0002 116.799 29.5002 116.699 28.8002C116.699 28.1002 117.199 27.6002 117.899 27.5002C118.599 27.4002 119.099 28.0002 119.199 28.7002Z" fill="#FDFDFD"/>
    <path d="M191.8 427.9C192 428.6 191.5 429.2 190.8 429.4C190.1 429.6 189.5 429.1 189.3 428.4C189.1 427.7 189.6 427.1 190.3 426.9C191.1 426.7 191.7 427.2 191.8 427.9Z" fill="#FDFDFD"/>
    <path d="M189.9 418.1C190.1 418.8 189.6 419.4 188.9 419.6C188.2 419.8 187.6 419.3 187.4 418.6C187.2 417.9 187.7 417.3 188.4 417.1C189.2 417 189.8 417.4 189.9 418.1Z" fill="#FDFDFD"/>
    <path d="M188 408.3C188.2 409 187.7 409.6 187 409.8C186.3 410 185.7 409.5 185.5 408.8C185.3 408.1 185.8 407.5 186.5 407.3C187.2 407.1 187.8 407.6 188 408.3Z" fill="#FDFDFD"/>
    <path d="M186.099 398.5C186.299 399.2 185.799 399.8 185.099 400C184.399 400.2 183.799 399.7 183.599 399C183.399 398.3 183.899 397.7 184.599 397.5C185.299 397.3 185.899 397.8 186.099 398.5Z" fill="#FDFDFD"/>
    <path d="M184.099 388.6C184.299 389.3 183.799 389.9 183.099 390.1C182.399 390.3 181.799 389.8 181.599 389.1C181.399 388.4 181.899 387.8 182.599 387.6C183.399 387.5 183.999 388 184.099 388.6Z" fill="#FDFDFD"/>
    <path d="M182.201 378.8C182.401 379.5 181.901 380.1 181.201 380.3C180.501 380.5 179.901 380 179.701 379.3C179.501 378.6 180.001 378 180.701 377.8C181.501 377.7 182.201 378.2 182.201 378.8Z" fill="#FDFDFD"/>
    <path d="M180.3 369C180.5 369.7 180 370.3 179.3 370.5C178.6 370.7 178 370.2 177.8 369.5C177.6 368.8 178.1 368.2 178.8 368C179.7 367.9 180.3 368.4 180.3 369Z" fill="#FDFDFD"/>
    <path d="M178.5 359.1C178.7 359.8 178.2 360.4 177.5 360.6C176.8 360.8 176.2 360.3 176 359.6C175.8 358.9 176.3 358.3 177 358.1C177.8 358.1 178.4 358.5 178.5 359.1Z" fill="#FDFDFD"/>
    <path d="M176.701 349.4C176.901 350.1 176.401 350.7 175.701 350.9C175.001 351.1 174.401 350.6 174.201 349.9C174.001 349.2 174.501 348.6 175.201 348.4C175.901 348.2 176.501 348.7 176.701 349.4Z" fill="#FDFDFD"/>
    <path d="M174.9 339.4C175.1 340.1 174.6 340.7 173.9 340.9C173.2 341.1 172.6 340.6 172.4 339.9C172.2 339.2 172.7 338.6 173.4 338.4C174.2 338.4 174.8 338.9 174.9 339.4Z" fill="#FDFDFD"/>
    <path d="M173.099 329.7C173.299 330.4 172.799 331 172.099 331.2C171.399 331.4 170.799 330.9 170.599 330.2C170.399 329.5 170.899 328.9 171.599 328.7C172.299 328.5 172.899 329 173.099 329.7Z" fill="#FDFDFD"/>
    <path d="M171.4 319.8C171.6 320.5 171.1 321.1 170.4 321.3C169.7 321.5 169.1 321 168.9 320.3C168.7 319.6 169.2 319 169.9 318.8C170.6 318.8 171.2 319.1 171.4 319.8Z" fill="#FDFDFD"/>
    <path d="M169.599 309.9C169.799 310.6 169.299 311.2 168.599 311.4C167.899 311.6 167.299 311.1 167.099 310.4C166.899 309.7 167.399 309.1 168.099 308.9C168.899 308.8 169.399 309.4 169.599 309.9Z" fill="#FDFDFD"/>
    <path d="M167.9 300.2C168.1 300.9 167.6 301.5 166.9 301.7C166.2 301.9 165.6 301.4 165.4 300.7C165.2 300 165.7 299.4 166.4 299.2C167.1 299 167.7 299.5 167.9 300.2Z" fill="#FDFDFD"/>
    <path d="M166.099 290.3C166.299 291 165.799 291.6 165.099 291.8C164.399 292 163.799 291.5 163.599 290.8C163.399 290.1 163.899 289.5 164.599 289.3C165.499 289.2 166.099 289.6 166.099 290.3Z" fill="#FDFDFD"/>
    <path d="M164.499 280.5C164.699 281.2 164.199 281.8 163.499 281.8C162.799 282 162.199 281.5 162.199 280.9C161.999 280.2 162.499 279.6 163.099 279.6C163.699 279.3 164.499 279.8 164.499 280.5Z" fill="#FDFDFD"/>
    <path d="M162.899 270.5C163.099 271.2 162.599 271.8 161.899 271.8C161.199 272 160.599 271.5 160.599 270.9C160.399 270.2 160.899 269.6 161.499 269.6C162.199 269.4 162.799 269.8 162.899 270.5Z" fill="#FDFDFD"/>
    <path d="M161.3 260.7C161.5 261.4 161 262 160.3 262C159.6 262 159 261.7 159 261C158.8 260.3 159.3 259.7 159.9 259.7C160.6 259.7 161.3 260 161.3 260.7Z" fill="#FDFDFD"/>
    <path d="M159.901 250.7C160.101 251.4 159.601 252 159.001 252C158.301 252 157.701 251.7 157.701 251C157.501 250.3 158.001 249.7 158.701 249.7C159.101 249.7 159.701 250.2 159.901 250.7Z" fill="#FDFDFD"/>
    <path d="M158.2 240.9C158.2 241.6 157.9 242.2 157.3 242.2C156.6 242.2 156 241.9 156 241.2C156 240.5 156.3 239.9 157 239.9C157.6 239.8 158.2 240.3 158.2 240.9Z" fill="#FDFDFD"/>
    <path d="M156.8 231C156.8 231.7 156.4 232.3 155.8 232.3C155.1 232.3 154.5 231.9 154.5 231.3C154.5 230.6 154.9 230 155.4 230C156.1 229.9 156.7 230.3 156.8 231Z" fill="#FDFDFD"/>
    <path d="M155.4 221.1C155.4 221.8 155 222.4 154.3 222.4C153.6 222.4 153 222 153 221.3C153 220.6 153.4 220 154.1 220C154.7 220 155.3 220.4 155.4 221.1Z" fill="#FDFDFD"/>
    <path d="M154 211.2C154 211.9 153.6 212.5 152.9 212.5C152.2 212.5 151.6 212.1 151.6 211.4C151.6 210.7 152 210.1 152.7 210.1C153.3 210.1 153.9 210.6 154 211.2Z" fill="#FDFDFD"/>
    <path d="M152.599 201.3C152.599 202 152.199 202.6 151.499 202.6C150.799 202.6 150.199 202.2 150.199 201.5C150.199 200.8 150.599 200.2 151.299 200.2C151.999 200.2 152.599 200.7 152.599 201.3Z" fill="#FDFDFD"/>
    <path d="M151.3 191.4C151.3 192.1 150.9 192.7 150.2 192.7C149.5 192.7 148.9 192.3 148.9 191.6C148.9 190.9 149.3 190.3 150 190.3C150.7 190.2 151.2 190.8 151.3 191.4Z" fill="#FDFDFD"/>
    <path d="M150.099 181.5C150.099 182.2 149.699 182.8 148.999 182.8C148.299 182.8 147.699 182.4 147.699 181.7C147.699 181 148.099 180.4 148.799 180.4C149.399 180.4 149.999 180.8 150.099 181.5Z" fill="#FDFDFD"/>
    <path d="M148.9 171.5C148.9 172.2 148.5 172.8 147.8 172.8C147.1 172.8 146.5 172.4 146.5 171.7C146.5 171 146.9 170.4 147.6 170.4C148.2 170.4 148.7 170.8 148.9 171.5Z" fill="#FDFDFD"/>
    <path d="M147.701 161.7C147.701 162.4 147.301 163 146.601 163C145.901 163 145.301 162.6 145.301 161.9C145.301 161.2 145.701 160.6 146.401 160.6C147.001 160.5 147.601 161 147.701 161.7Z" fill="#FDFDFD"/>
    <path d="M146.599 151.8C146.599 152.5 146.199 153.1 145.499 153.1C144.799 153.1 144.199 152.7 144.199 152C144.199 151.3 144.599 150.7 145.299 150.7C145.799 150.5 146.399 151.1 146.599 151.8Z" fill="#FDFDFD"/>
    <path d="M145.5 141.7C145.5 142.4 145.1 143 144.4 143C143.7 143 143.1 142.6 143.1 141.9C143.1 141.2 143.5 140.6 144.2 140.6C144.8 140.6 145.4 141.1 145.5 141.7Z" fill="#FDFDFD"/>
    <path d="M144.5 131.8C144.5 132.5 144.1 133.1 143.4 133.1C142.7 133.1 142.1 132.7 142.1 132C142.1 131.3 142.5 130.7 143.2 130.7C143.8 130.7 144.4 131.2 144.5 131.8Z" fill="#FDFDFD"/>
    <path d="M143.4 121.9C143.4 122.6 143 123.2 142.3 123.2C141.6 123.2 141 122.8 141 122.1C141 121.4 141.4 120.8 142.1 120.8C142.7 120.8 143.3 121.3 143.4 121.9Z" fill="#FDFDFD"/>
    <path d="M142.4 111.9C142.4 112.6 142 113.2 141.3 113.2C140.6 113.2 140 112.8 140 112.1C140 111.4 140.4 110.8 141.1 110.8C141.8 110.8 142.4 111.3 142.4 111.9Z" fill="#FDFDFD"/>
    <path d="M141.599 102C141.599 102.7 141.199 103.3 140.499 103.3C139.799 103.3 139.199 102.9 139.199 102.2C139.199 101.5 139.599 100.9 140.299 100.9C140.999 100.8 141.599 101.3 141.599 102Z" fill="#FDFDFD"/>
    <path d="M140.8 92.0004C140.8 92.7004 140.4 93.3004 139.7 93.3004C139 93.3004 138.4 92.9004 138.4 92.2004C138.4 91.5004 138.8 90.9004 139.5 90.9004C140.2 90.9004 140.7 91.3004 140.8 92.0004Z" fill="#FDFDFD"/>
    <path d="M140 82.0004C140 82.7004 139.6 83.3004 138.9 83.3004C138.2 83.3004 137.6 82.9004 137.6 82.2004C137.6 81.5004 138 80.9004 138.7 80.9004C139.4 80.9004 140 81.4004 140 82.0004Z" fill="#FDFDFD"/>
    <path d="M139.201 72.1C139.201 72.8 138.801 73.4 138.101 73.4C137.401 73.4 136.801 73 136.801 72.3C136.801 71.6 137.201 71 137.901 71C138.601 70.9 139.201 71.4 139.201 72.1Z" fill="#FDFDFD"/>
    <path d="M138.5 61.9998C138.5 62.6998 138.1 63.2998 137.3 63.2998C136.6 63.2998 136 62.8998 136 62.0998C136 61.3998 136.4 60.7998 137.2 60.7998C137.9 60.8998 138.5 61.3998 138.5 61.9998Z" fill="#FDFDFD"/>
    <path d="M138 52.2002C138 52.9002 137.6 53.5002 136.8 53.5002C136.1 53.5002 135.5 53.1002 135.5 52.3002C135.5 51.6002 135.9 51.0002 136.7 51.0002C137.3 50.9002 137.9 51.5002 138 52.2002Z" fill="#FDFDFD"/>
    <path d="M137.301 42.1004C137.301 42.8004 136.801 43.3004 136.101 43.4004C135.401 43.4004 134.901 42.9004 134.801 42.2004C134.801 41.5004 135.301 41.0004 136.001 40.9004C136.801 40.9004 137.301 41.5004 137.301 42.1004Z" fill="#FDFDFD"/>
    <path d="M136.9 32.2C136.9 32.9 136.4 33.4 135.7 33.5C135 33.5 134.5 33 134.4 32.3C134.4 31.6 134.9 31.1 135.6 31C136.2 31 136.8 31.5 136.9 32.2Z" fill="#FDFDFD"/>
    <path d="M136.301 22.2C136.301 22.9 135.801 23.4 135.101 23.5C134.401 23.5 133.901 23 133.801 22.3C133.801 21.6 134.301 21.1 135.001 21C135.701 21 136.301 21.5 136.301 22.2Z" fill="#FDFDFD"/>
    <path d="M191.201 369.3C191.001 368.6 191.501 368 192.201 368C192.901 368 193.501 368.3 193.501 369" fill="#FDFDFD"/>
    <path d="M192 359.2C192.2 359.9 191.7 360.5 191.1 360.5C190.4 360.5 189.8 360.2 189.8 359.5C189.6 358.8 190.1 358.2 190.8 358.2C191.2 358.1 191.8 358.5 192 359.2Z" fill="#FDFDFD"/>
    <path d="M190.3 349.5C190.5 350.2 190 350.8 189.3 350.8C188.6 351 188 350.5 188 349.8C187.8 349.1 188.3 348.5 189 348.5C189.5 348.3 190.3 348.8 190.3 349.5Z" fill="#FDFDFD"/>
    <path d="M188.8 339.8C189 340.5 188.5 341.1 187.8 341.1C187.1 341.3 186.5 340.8 186.5 340.1C186.3 339.4 186.8 338.8 187.4 338.8C188 338.6 188.6 339.1 188.8 339.8Z" fill="#FDFDFD"/>
    <path d="M187.2 329.9C187.4 330.6 186.9 331.2 186.2 331.2C185.5 331.4 184.9 330.9 184.9 330.2C184.7 329.5 185.2 328.9 185.8 328.9C186.5 328.8 187.1 329.3 187.2 329.9Z" fill="#FDFDFD"/>
    <path d="M185.601 320.3C185.801 321 185.301 321.6 184.601 321.6C183.901 321.8 183.301 321.3 183.301 320.6C183.101 319.9 183.601 319.3 184.201 319.3C185.001 319.2 185.601 319.6 185.601 320.3Z" fill="#FDFDFD"/>
    <path d="M184.1 310.5C184.3 311.2 183.8 311.8 183.2 311.8C182.5 312 181.9 311.5 181.9 310.8C181.7 310.1 182.2 309.5 182.9 309.5C183.5 309.4 184.1 309.8 184.1 310.5Z" fill="#FDFDFD"/>
    <path d="M182.6 300.8C182.6 301.5 182.3 302.1 181.7 302.1C181 302.1 180.4 301.8 180.4 301.1C180.4 300.4 180.7 299.8 181.4 299.8C181.9 299.7 182.5 300.1 182.6 300.8Z" fill="#FDFDFD"/>
    <path d="M181.2 291C181.2 291.7 180.8 292.3 180.2 292.3C179.5 292.3 178.9 291.9 178.9 291.3C178.9 290.6 179.3 290 179.8 290C180.4 290 181 290.3 181.2 291Z" fill="#FDFDFD"/>
    <path d="M179.7 281.2C179.7 281.9 179.3 282.5 178.8 282.5C178.1 282.5 177.5 282.1 177.5 281.5C177.5 280.8 177.9 280.2 178.4 280.2C179 280.1 179.6 280.6 179.7 281.2Z" fill="#FDFDFD"/>
    <path d="M178.3 271.6C178.3 272.3 177.9 272.9 177.2 272.9C176.5 272.9 175.9 272.5 175.9 271.8C175.9 271.1 176.3 270.5 177 270.5C177.5 270.4 178.1 270.9 178.3 271.6Z" fill="#FDFDFD"/>
    <path d="M176.9 261.8C176.9 262.5 176.5 263.1 175.8 263.1C175.1 263.1 174.5 262.7 174.5 262C174.5 261.3 174.9 260.7 175.6 260.7C176.1 260.7 176.7 261.1 176.9 261.8Z" fill="#FDFDFD"/>
    <path d="M175.5 252C175.5 252.7 175.1 253.3 174.4 253.3C173.7 253.3 173.1 252.9 173.1 252.2C173.1 251.5 173.5 250.9 174.2 250.9C174.8 250.9 175.5 251.4 175.5 252Z" fill="#FDFDFD"/>
    <path d="M174.099 242.2C174.099 242.9 173.699 243.5 172.999 243.5C172.299 243.5 171.699 243.1 171.699 242.4C171.699 241.7 172.099 241.1 172.799 241.1C173.499 241.1 174.099 241.5 174.099 242.2Z" fill="#FDFDFD"/>
    <path d="M172.9 232.4C172.9 233.1 172.5 233.7 171.8 233.7C171.1 233.7 170.5 233.3 170.5 232.6C170.5 231.9 170.9 231.3 171.6 231.3C172.2 231.3 172.8 231.8 172.9 232.4Z" fill="#FDFDFD"/>
    <path d="M171.599 222.7C171.599 223.4 171.199 224 170.499 224C169.799 224 169.199 223.6 169.199 222.9C169.199 222.2 169.599 221.6 170.299 221.6C170.799 221.6 171.399 222 171.599 222.7Z" fill="#FDFDFD"/>
    <path d="M170.4 212.9C170.4 213.6 170 214.2 169.3 214.2C168.6 214.2 168 213.8 168 213.1C168 212.4 168.4 211.8 169.1 211.8C169.7 211.8 170.3 212.2 170.4 212.9Z" fill="#FDFDFD"/>
    <path d="M169.099 203.1C169.099 203.8 168.699 204.4 167.999 204.4C167.299 204.4 166.699 204 166.699 203.3C166.699 202.6 167.099 202 167.799 202C168.399 202 169.099 202.5 169.099 203.1Z" fill="#FDFDFD"/>
    <path d="M168 193.3C168 194 167.6 194.6 166.9 194.6C166.2 194.6 165.6 194.2 165.6 193.5C165.6 192.8 166 192.2 166.7 192.2C167.3 192.2 167.9 192.7 168 193.3Z" fill="#FDFDFD"/>
    <path d="M166.9 183.5C166.9 184.2 166.5 184.8 165.8 184.8C165.1 184.8 164.5 184.4 164.5 183.7C164.5 183 164.9 182.4 165.6 182.4C166.2 182.4 166.7 182.9 166.9 183.5Z" fill="#FDFDFD"/>
    <path d="M165.701 173.7C165.701 174.4 165.301 175 164.601 175C163.901 175 163.301 174.6 163.301 173.9C163.301 173.2 163.701 172.6 164.401 172.6C165.101 172.6 165.701 173.1 165.701 173.7Z" fill="#FDFDFD"/>
    <path d="M164.599 163.9C164.599 164.6 164.199 165.2 163.499 165.2C162.799 165.2 162.199 164.8 162.199 164.1C162.199 163.4 162.599 162.8 163.299 162.8C163.999 162.8 164.599 163.3 164.599 163.9Z" fill="#FDFDFD"/>
    <path d="M163.599 154.2C163.599 154.9 163.199 155.5 162.499 155.5C161.799 155.5 161.199 155.1 161.199 154.4C161.199 153.7 161.599 153.1 162.299 153.1C162.999 153 163.599 153.5 163.599 154.2Z" fill="#FDFDFD"/>
    <path d="M162.701 144.3C162.701 145 162.301 145.6 161.601 145.6C160.901 145.6 160.301 145.2 160.301 144.5C160.301 143.8 160.701 143.2 161.401 143.2C162.001 143.2 162.601 143.6 162.701 144.3Z" fill="#FDFDFD"/>
    <path d="M161.701 134.5C161.701 135.2 161.301 135.8 160.601 135.8C159.901 135.8 159.301 135.4 159.301 134.7C159.301 134 159.701 133.4 160.401 133.4C161.001 133.4 161.601 133.9 161.701 134.5Z" fill="#FDFDFD"/>
    <path d="M160.8 124.7C160.8 125.4 160.4 126 159.7 126C159 126 158.4 125.6 158.4 124.9C158.4 124.2 158.8 123.6 159.5 123.6C160.2 123.6 160.8 124 160.8 124.7Z" fill="#FDFDFD"/>
    <path d="M160 114.8C160 115.5 159.6 116.1 158.9 116.1C158.2 116.1 157.6 115.7 157.6 115C157.6 114.3 158 113.7 158.7 113.7C159.3 113.7 159.9 114.2 160 114.8Z" fill="#FDFDFD"/>
    <path d="M159.099 105C159.099 105.7 158.699 106.3 157.999 106.3C157.299 106.3 156.699 105.9 156.699 105.2C156.699 104.5 157.099 103.9 157.799 103.9C158.499 103.9 159.099 104.4 159.099 105Z" fill="#FDFDFD"/>
    <path d="M158.4 95.1996C158.4 95.8996 158 96.4996 157.3 96.4996C156.6 96.4996 156 96.0996 156 95.3996C156 94.6996 156.4 94.0996 157.1 94.0996C157.7 94.0996 158.3 94.4996 158.4 95.1996Z" fill="#FDFDFD"/>
    <path d="M157.599 85.3998C157.599 86.0998 157.199 86.6998 156.499 86.6998C155.799 86.6998 155.199 86.2998 155.199 85.5998C155.199 84.8998 155.599 84.2998 156.299 84.2998C156.999 84.2998 157.599 84.6998 157.599 85.3998Z" fill="#FDFDFD"/>
    <path d="M156.9 75.6004C156.9 76.3004 156.5 76.9004 155.7 76.9004C154.9 76.9004 154.4 76.5004 154.4 75.7004C154.4 75.0004 154.8 74.4004 155.6 74.4004C156.3 74.4004 156.9 74.9004 156.9 75.6004Z" fill="#FDFDFD"/>
    <path d="M156.301 65.7996C156.301 66.4996 155.901 67.0996 155.101 67.0996C154.401 67.0996 153.801 66.6996 153.801 65.8996C153.801 65.1996 154.201 64.5996 155.001 64.5996C155.701 64.5996 156.201 64.9996 156.301 65.7996Z" fill="#FDFDFD"/>
    <path d="M155.6 55.9002C155.6 56.6002 155.2 57.2002 154.4 57.2002C153.7 57.2002 153.1 56.8002 153.1 56.0002C153.1 55.3002 153.5 54.7002 154.3 54.7002C155.1 54.7002 155.5 55.3002 155.6 55.9002Z" fill="#FDFDFD"/>
    <path d="M155.1 46.1004C155.1 46.8004 154.6 47.3004 153.9 47.4004C153.2 47.4004 152.7 46.9004 152.6 46.2004C152.6 45.5004 153.1 45.0004 153.8 44.9004C154.5 45.0004 155.1 45.4004 155.1 46.1004Z" fill="#FDFDFD"/>
    <path d="M154.5 36.2C154.5 36.9 154 37.4 153.3 37.5C152.6 37.5 152.1 37 152 36.3C152 35.6 152.5 35.1 153.2 35C154 35.1 154.5 35.5 154.5 36.2Z" fill="#FDFDFD"/>
    <path d="M154.1 26.2996C154.1 26.9996 153.6 27.4996 152.9 27.5996C152.2 27.5996 151.7 27.0996 151.6 26.3996C151.6 25.6996 152.1 25.1996 152.8 25.0996C153.5 25.2996 154 25.6996 154.1 26.2996Z" fill="#FDFDFD"/>
    <path d="M192.801 280C192.801 279.7 193.001 279.4 193.301 279.3L192.801 280Z" fill="#FDFDFD"/>
    <path d="M192.7 270.2C192.7 270.5 192.5 270.8 192.2 270.9C191.9 271.1 191.6 270.7 191.5 270.4C191.5 270.1 191.7 269.8 192 269.7C192.4 269.7 192.7 269.9 192.7 270.2Z" fill="#FDFDFD"/>
    <path d="M191.501 260.6C191.501 260.9 191.301 261.2 191.001 261.3C190.701 261.3 190.401 261.1 190.301 260.8C190.301 260.5 190.501 260.2 190.801 260.1C191.201 260.1 191.501 260.3 191.501 260.6Z" fill="#FDFDFD"/>
    <path d="M190.501 251.1C190.501 251.5 190.301 251.7 190.001 251.8C189.601 251.8 189.401 251.6 189.301 251.3C189.301 250.9 189.501 250.7 189.801 250.6C190.001 250.5 190.301 250.8 190.501 251.1Z" fill="#FDFDFD"/>
    <path d="M189.3 241.5C189.3 241.9 189.1 242.1 188.8 242.2C188.4 242.2 188.2 242 188.1 241.7C188.1 241.3 188.3 241.1 188.6 241C188.9 241 189.2 241.2 189.3 241.5Z" fill="#FDFDFD"/>
    <path d="M188.1 231.9C188.1 232.3 187.9 232.5 187.6 232.6C187.2 232.6 187 232.4 186.9 232.1C186.9 231.7 187.1 231.5 187.4 231.4C187.8 231.3 188.1 231.6 188.1 231.9Z" fill="#FDFDFD"/>
    <path d="M187.001 222.4C187.001 222.8 186.801 223 186.501 223.1C186.101 223.1 185.901 222.9 185.801 222.6C185.801 222.2 186.001 222 186.301 221.9C186.701 221.8 187.001 222 187.001 222.4Z" fill="#FDFDFD"/>
    <path d="M185.899 212.8C185.899 213.2 185.699 213.4 185.399 213.5C184.999 213.5 184.799 213.3 184.699 213C184.699 212.6 184.899 212.4 185.199 212.3C185.599 212.3 185.899 212.5 185.899 212.8Z" fill="#FDFDFD"/>
    <path d="M184.899 203.2C184.899 203.6 184.699 203.8 184.399 203.9C183.999 203.9 183.799 203.7 183.699 203.4C183.699 203 183.899 202.8 184.199 202.7C184.599 202.6 184.899 202.8 184.899 203.2Z" fill="#FDFDFD"/>
    <path d="M183.8 193.6C183.8 194 183.6 194.2 183.2 194.3C182.8 194.3 182.6 194.1 182.5 193.7C182.5 193.3 182.7 193.1 183.1 193C183.5 193.1 183.8 193.3 183.8 193.6Z" fill="#FDFDFD"/>
    <path d="M182.9 184.1C182.9 184.5 182.7 184.7 182.3 184.8C181.9 184.8 181.7 184.6 181.6 184.2C181.6 183.8 181.8 183.6 182.2 183.5C182.6 183.5 182.9 183.7 182.9 184.1Z" fill="#FDFDFD"/>
    <path d="M181.8 174.4C181.8 174.8 181.6 175 181.2 175.1C180.8 175.2 180.6 174.9 180.5 174.5C180.5 174.1 180.7 173.9 181.1 173.8C181.5 173.8 181.8 174 181.8 174.4Z" fill="#FDFDFD"/>
    <path d="M180.9 164.8C180.9 165.2 180.7 165.4 180.3 165.5C179.9 165.5 179.7 165.3 179.6 164.9C179.6 164.5 179.8 164.3 180.2 164.2C180.6 164.2 180.9 164.5 180.9 164.8Z" fill="#FDFDFD"/>
    <path d="M180.101 155.2C180.101 155.6 179.901 155.8 179.501 155.9C179.101 155.9 178.901 155.7 178.801 155.3C178.801 154.9 179.001 154.7 179.401 154.6C179.801 154.6 179.901 154.9 180.101 155.2Z" fill="#FDFDFD"/>
    <path d="M179.2 145.6C179.2 146 179 146.2 178.6 146.3C178.2 146.3 178 146.1 177.9 145.7C177.9 145.3 178.1 145.1 178.5 145C178.9 144.9 179.1 145.4 179.2 145.6Z" fill="#FDFDFD"/>
    <path d="M178.4 136C178.4 136.4 178.2 136.6 177.8 136.7C177.4 136.8 177.2 136.5 177.1 136.1C177.1 135.7 177.3 135.5 177.7 135.4C178 135.4 178.4 135.7 178.4 136Z" fill="#FDFDFD"/>
    <path d="M177.4 126.4C177.4 126.8 177.2 127 176.8 127.1C176.4 127.2 176.2 126.9 176.1 126.5C176.1 126.1 176.3 125.9 176.7 125.8C177.1 125.8 177.4 126.1 177.4 126.4Z" fill="#FDFDFD"/>
    <path d="M176.8 116.8C176.8 117.2 176.6 117.4 176.2 117.5C175.8 117.6 175.6 117.3 175.5 116.9C175.5 116.5 175.7 116.3 176.1 116.2C176.4 116.3 176.7 116.5 176.8 116.8Z" fill="#FDFDFD"/>
    <path d="M175.999 107.2C175.999 107.6 175.799 107.8 175.399 107.9C174.999 107.9 174.799 107.7 174.699 107.3C174.699 106.9 174.899 106.7 175.299 106.6C175.699 106.6 175.999 106.8 175.999 107.2Z" fill="#FDFDFD"/>
    <path d="M175.3 97.6C175.3 98 175.1 98.2 174.7 98.3C174.3 98.3 174.1 98.1 174 97.7C174 97.3 174.2 97.1 174.6 97C175 96.8 175.3 97.3 175.3 97.6Z" fill="#FDFDFD"/>
    <path d="M174.499 88.0004C174.499 88.4004 174.299 88.6004 173.899 88.7004C173.499 88.8004 173.299 88.5004 173.199 88.1004C173.199 87.7004 173.399 87.5004 173.799 87.4004C174.299 87.4004 174.499 87.6004 174.499 88.0004Z" fill="#FDFDFD"/>
    <path d="M173.9 78.3998C173.9 78.7998 173.7 78.9998 173.3 79.0998C172.9 79.0998 172.7 78.8998 172.6 78.4998C172.6 78.0998 172.8 77.8998 173.2 77.7998C173.6 77.7998 173.9 77.9998 173.9 78.3998Z" fill="#FDFDFD"/>
    <path d="M173.3 68.6996C173.3 69.0996 173.1 69.2996 172.7 69.2996C172.3 69.2996 172.1 69.0996 172.1 68.6996C172.1 68.2996 172.3 68.0996 172.7 68.0996C173.1 68.0996 173.3 68.4996 173.3 68.6996Z" fill="#FDFDFD"/>
    <path d="M172.7 59.1C172.7 59.5 172.5 59.7 172.1 59.7C171.7 59.7 171.5 59.5 171.5 59.1C171.5 58.7 171.7 58.5 172.1 58.5C172.4 58.5 172.7 58.8 172.7 59.1Z" fill="#FDFDFD"/>
    <path d="M172.2 49.5004C172.2 49.9004 172 50.1004 171.6 50.1004C171.2 50.1004 171 49.9004 171 49.5004C171 49.1004 171.2 48.9004 171.6 48.9004C172 48.9004 172.2 49.1004 172.2 49.5004Z" fill="#FDFDFD"/>
    <path d="M171.7 39.8998C171.7 40.2998 171.5 40.4998 171.1 40.4998C170.7 40.4998 170.5 40.2998 170.5 39.8998C170.5 39.4998 170.7 39.2998 171.1 39.2998C171.4 39.2998 171.7 39.4998 171.7 39.8998Z" fill="#FDFDFD"/>
    <path d="M171.1 30.3002C171.1 30.7002 170.9 30.9002 170.5 30.9002C170.1 30.9002 169.9 30.7002 169.9 30.3002C169.9 29.9002 170.1 29.7002 170.5 29.7002C170.9 29.7002 171.1 29.9002 171.1 30.3002Z" fill="#FDFDFD"/>
    <path d="M170.2 20C170.5 20 170.8 20.2 170.8 20.6C170.8 21 170.6 21.2 170.2 21.2C169.8 21.2 169.6 21 169.6 20.6C169.6 20.2 169.8 20 170.2 20Z" fill="#FDFDFD"/>
    <path d="M193.399 118.4C192.999 118.4 192.799 118.2 192.699 117.8C192.699 117.4 192.899 117.2 193.299 117.1" fill="#FDFDFD"/>
    <path d="M193.4 108.5C193.4 108.9 193.2 109.1 192.8 109.2C192.4 109.2 192.2 109 192.1 108.6C192.1 108.2 192.3 108 192.7 107.9C193.1 107.7 193.4 108.1 193.4 108.5Z" fill="#FDFDFD"/>
    <path d="M192.8 99.1C192.8 99.5 192.6 99.7 192.2 99.8C191.8 99.8 191.6 99.6 191.5 99.2C191.5 98.8 191.7 98.6 192.1 98.5C192.5 98.5 192.6 98.7 192.8 99.1Z" fill="#FDFDFD"/>
    <path d="M192.101 89.6996C192.101 90.0996 191.901 90.2996 191.501 90.3996C191.101 90.3996 190.901 90.1996 190.801 89.7996C190.801 89.3996 191.001 89.1996 191.401 89.0996C191.801 89.1996 192.101 89.3996 192.101 89.6996Z" fill="#FDFDFD"/>
    <path d="M191.501 80.3998C191.501 80.7998 191.301 80.9998 190.901 80.9998C190.501 80.9998 190.301 80.7998 190.301 80.3998C190.301 79.9998 190.501 79.7998 190.901 79.7998C191.201 79.7998 191.501 79.9998 191.501 80.3998Z" fill="#FDFDFD"/>
    <path d="M190.899 71.0004C190.899 71.4004 190.699 71.6004 190.299 71.6004C189.899 71.6004 189.699 71.4004 189.699 71.0004C189.699 70.6004 189.899 70.4004 190.299 70.4004C190.599 70.4004 190.899 70.7004 190.899 71.0004Z" fill="#FDFDFD"/>
    <path d="M190.399 61.6996C190.399 62.0996 190.199 62.2996 189.799 62.2996C189.399 62.2996 189.199 62.0996 189.199 61.6996C189.199 61.2996 189.399 61.0996 189.799 61.0996C190.099 61.0996 190.299 61.3996 190.399 61.6996Z" fill="#FDFDFD"/>
    <path d="M189.899 52.3002C189.899 52.7002 189.699 52.9002 189.299 52.9002C188.899 52.9002 188.699 52.7002 188.699 52.3002C188.699 51.9002 188.899 51.7002 189.299 51.7002C189.599 51.7002 189.799 52.1002 189.899 52.3002Z" fill="#FDFDFD"/>
    <path d="M189.399 43.0004C189.399 43.4004 189.199 43.6004 188.799 43.6004C188.399 43.6004 188.199 43.4004 188.199 43.0004C188.199 42.6004 188.399 42.4004 188.799 42.4004C189.199 42.4004 189.299 42.7004 189.399 43.0004Z" fill="#FDFDFD"/>
    <path d="M188.899 33.6996C188.899 34.0996 188.699 34.2996 188.299 34.2996C187.899 34.2996 187.699 34.0996 187.699 33.6996C187.699 33.2996 187.899 33.0996 188.299 33.0996C188.599 32.9996 188.799 33.3996 188.899 33.6996Z" fill="#FDFDFD"/>
    <path d="M188.501 24.3002C188.501 24.7002 188.301 24.9002 187.901 24.9002C187.501 24.9002 187.301 24.7002 187.301 24.3002C187.301 23.9002 187.501 23.7002 187.901 23.7002C188.201 23.7002 188.501 24.0002 188.501 24.3002Z" fill="#FDFDFD"/>
    <path d="M186.8 799.6C186.6 799.9 186.3 799.9 186 799.8C185.7 799.6 185.7 799.3 185.8 799C186 798.7 186.3 798.7 186.6 798.8C186.9 799 187.1 799.3 186.8 799.6Z" fill="#FDFDFD"/>
    <path d="M182.9 800.1C182.7 800.4 182.4 800.4 182.1 800.3C181.8 800.1 181.8 799.8 181.9 799.5C182.1 799.2 182.4 799.2 182.7 799.3C182.9 799.5 183 799.8 182.9 800.1ZM187.1 793.4C186.9 793.7 186.6 793.7 186.3 793.6C186 793.4 186 793.1 186.1 792.8C186.3 792.5 186.6 792.5 186.9 792.6C187.3 792.9 187.3 793.3 187.1 793.4Z" fill="#FDFDFD"/>
    <path d="M178.799 800.5C178.599 800.8 178.299 800.8 177.999 800.6C177.699 800.4 177.699 800.1 177.899 799.8C178.099 799.5 178.399 799.5 178.699 799.7C178.799 799.9 178.999 800.3 178.799 800.5ZM182.999 794.2C182.799 794.5 182.499 794.5 182.199 794.4C181.899 794.2 181.899 793.9 181.999 793.6C182.199 793.3 182.499 793.3 182.799 793.4C183.099 793.5 183.099 793.9 182.999 794.2ZM187.199 787.7C186.999 788 186.699 788 186.399 787.9C186.099 787.8 186.099 787.4 186.199 787.1C186.399 786.8 186.699 786.8 186.999 786.9C187.199 787.1 187.399 787.5 187.199 787.7Z" fill="#FDFDFD"/>
  </g>
  <defs>
    <clipPath id="clip0_1093_2117">
      <rect width="197.7" height="803.5" fill="white"/>
    </clipPath>
  </defs>
</svg>
