<svg width="288" height="827" viewBox="0 0 288 827" fill="none"
  xmlns="http://www.w3.org/2000/svg">
  <path d="M284.43 874.629C284.43 874.629 -47.8849 225.407 314.881 -23.0181" stroke="#20BCC6" stroke-width="0.25" stroke-miterlimit="10" stroke-linecap="round"/>
  <path d="M290.088 875.596C290.088 875.596 -38.3421 231.858 327.375 -19.2851" stroke="#20BCC6" stroke-width="0.375" stroke-miterlimit="10" stroke-linecap="round"/>
  <path d="M295.921 876.612C295.921 876.612 -28.6233 238.358 340.045 -15.5032" stroke="#20BCC6" stroke-width="0.5" stroke-miterlimit="10" stroke-linecap="round"/>
  <path d="M301.794 877.455C301.794 877.455 -18.8655 244.685 352.754 -11.8941" stroke="#20BCC6" stroke-width="0.625" stroke-miterlimit="10" stroke-linecap="round"/>
  <path d="M307.452 878.424C307.452 878.424 -9.1501 251.184 365.248 -8.16011" stroke="#20BCC6" stroke-width="0.75" stroke-miterlimit="10" stroke-linecap="round"/>
  <path d="M313.271 879.435C313.271 879.435 0.553444 257.68 377.949 -4.55498" stroke="#20BCC6" stroke-width="0.875" stroke-miterlimit="10" stroke-linecap="round"/>
  <path d="M318.933 880.407C318.933 880.407 10.1003 264.136 390.447 -0.817034" stroke="#20BCC6" stroke-miterlimit="10" stroke-linecap="round"/>
  <path d="M324.763 881.426C324.763 881.426 19.8151 270.639 403.112 2.96778" stroke="#20BCC6" stroke-width="1.125" stroke-miterlimit="10" stroke-linecap="round"/>
  <path d="M330.42 882.395C330.42 882.395 29.5304 277.139 415.607 6.7028" stroke="#20BCC6" stroke-width="1.25" stroke-miterlimit="10" stroke-linecap="round"/>
  <path d="M336.243 883.407C336.243 883.407 39.2374 283.635 428.265 10.4808" stroke="#20BCC6" stroke-width="1.375" stroke-miterlimit="10" stroke-linecap="round"/>
  <path d="M342.123 884.253C342.123 884.253 49.003 289.965 440.981 14.0927" stroke="#20BCC6" stroke-width="1.5" stroke-miterlimit="10" stroke-linecap="round"/>
  <path d="M347.781 885.219C347.781 885.219 58.546 296.416 453.475 17.8248" stroke="#20BCC6" stroke-width="1.625" stroke-miterlimit="10" stroke-linecap="round"/>
  <path d="M353.603 886.233C353.603 886.233 68.4718 302.788 466.133 21.6048" stroke="#20BCC6" stroke-width="1.75" stroke-miterlimit="10" stroke-linecap="round"/>
  <path d="M359.261 887.202C359.261 887.202 78.0148 309.241 478.627 25.3398" stroke="#20BCC6" stroke-width="1.875" stroke-miterlimit="10" stroke-linecap="round"/>
  <path d="M365.091 888.218C365.091 888.218 87.7296 315.741 491.293 29.1217" stroke="#20BCC6" stroke-width="2" stroke-miterlimit="10" stroke-linecap="round"/>
</svg>
