<svg width="28" height="8" viewBox="0 0 28 8" fill="none" xmlns="http://www.w3.org/2000/svg">
<path d="M0.141805 4C0.141805 5.57854 1.42146 6.8582 3 6.8582C4.57854 6.8582 5.8582 5.57854 5.8582 4C5.8582 2.42146 4.57854 1.1418 3 1.1418C1.42146 1.1418 0.141805 2.42146 0.141805 4ZM27.3789 4.37895C27.5882 4.16966 27.5882 3.83034 27.3789 3.62105L23.9684 0.210533C23.7591 0.00124598 23.4198 0.00124598 23.2105 0.210533C23.0012 0.419819 23.0012 0.75914 23.2105 0.968426L26.2421 4L23.2105 7.03157C23.0012 7.24086 23.0012 7.58018 23.2105 7.78947C23.4198 7.99875 23.7591 7.99875 23.9684 7.78947L27.3789 4.37895ZM3 4.53591H27V3.46409H3V4.53591Z" fill="#FDFDFD"/>
</svg>
