<svg width="22" height="16" viewBox="0 0 22 16" fill="none" xmlns="http://www.w3.org/2000/svg">
<g clip-path="url(#clip0_694_6805)">
<path d="M18.674 7.0115C18.5357 6.9705 18.389 7.0425 18.345 7.174C18.3016 7.3055 18.3775 7.446 18.5153 7.488C20.5623 8.1105 21.4753 9.039 21.4753 10.5C21.4753 11.7995 20.2334 12.808 19.4938 13.294C19.4225 13.341 19.3801 13.4175 19.3801 13.5V15.4115C18.9977 15.2755 18.3309 14.9665 17.7427 14.334C17.6814 14.2685 17.5881 14.2385 17.4975 14.2545C17.3482 14.282 17.1958 14.321 17.0413 14.3605C16.7741 14.429 16.4986 14.5 16.2372 14.5C14.8921 14.5 13.9503 14.224 12.9875 13.5485C12.8702 13.4665 12.7073 13.491 12.6214 13.602C12.5355 13.7135 12.5606 13.8695 12.6769 13.9515C13.7387 14.6965 14.77 15 16.2372 15C16.5678 15 16.8778 14.9205 17.1775 14.8435C17.2707 14.819 17.3634 14.795 17.4551 14.7745C18.4341 15.7615 19.5414 15.986 19.5896 15.995C19.6069 15.9985 19.6242 16 19.642 16C19.7017 16 19.7609 15.9805 19.8075 15.9435C19.8688 15.896 19.9039 15.825 19.9039 15.75V13.6305C21.2564 12.71 21.9991 11.602 21.9991 10.5C21.9991 8.8095 20.9426 7.701 18.674 7.0115Z" fill="#20BCC6"/>
<path d="M17.2857 6.75C17.2857 2.902 13.6096 0 8.73557 0C3.8369 0 0 2.9655 0 6.751C0 9.0205 1.68195 10.6465 3.14286 11.6305V14.9485C3.14286 15.0335 3.18791 15.112 3.26229 15.1585C3.30576 15.185 3.355 15.1985 3.40476 15.1985C3.4409 15.1985 3.47757 15.191 3.51214 15.1765C3.58862 15.144 5.37638 14.3685 6.90591 12.772C7.56852 12.8895 8.3181 13.0025 8.998 13.0025C13.9548 13.0025 17.2857 10.4895 17.2857 6.75ZM8.99748 12.5025C8.31129 12.5025 7.53133 12.377 6.85876 12.2545C6.76814 12.239 6.67491 12.2685 6.61362 12.334C5.53981 13.49 4.27795 14.2245 3.66667 14.541V11.5C3.66667 11.4175 3.62424 11.341 3.553 11.294C2.17119 10.3865 0.52381 8.8625 0.52381 6.751C0.52381 3.2455 4.13076 0.5 8.73557 0.5C13.3116 0.5 16.7619 3.187 16.7619 6.75C16.7619 10.191 13.6416 12.5025 8.99748 12.5025Z" fill="#20BCC6"/>
<path d="M8.64137 5.75C8.06361 5.75 7.59375 6.1985 7.59375 6.75C7.59375 7.3015 8.06361 7.75 8.64137 7.75C9.21913 7.75 9.68899 7.3015 9.68899 6.75C9.68899 6.1985 9.21913 5.75 8.64137 5.75ZM8.64137 7.25C8.35275 7.25 8.11756 7.026 8.11756 6.75C8.11756 6.474 8.35275 6.25 8.64137 6.25C8.92999 6.25 9.16518 6.474 9.16518 6.75C9.16518 7.026 8.92999 7.25 8.64137 7.25Z" fill="#20BCC6"/>
<path d="M12.3093 5.75C11.7316 5.75 11.2617 6.1985 11.2617 6.75C11.2617 7.3015 11.7316 7.75 12.3093 7.75C12.8871 7.75 13.357 7.3015 13.357 6.75C13.357 6.1985 12.8871 5.75 12.3093 5.75ZM12.3093 7.25C12.0207 7.25 11.7855 7.026 11.7855 6.75C11.7855 6.474 12.0207 6.25 12.3093 6.25C12.598 6.25 12.8331 6.474 12.8331 6.75C12.8331 7.026 12.598 7.25 12.3093 7.25Z" fill="#20BCC6"/>
<path d="M4.97731 5.79688C4.39954 5.79688 3.92969 6.24537 3.92969 6.79688C3.92969 7.34838 4.39954 7.79688 4.97731 7.79688C5.55507 7.79688 6.02493 7.34838 6.02493 6.79688C6.02493 6.24537 5.55507 5.79688 4.97731 5.79688ZM4.97731 7.29688C4.68869 7.29688 4.4535 7.07288 4.4535 6.79688C4.4535 6.52087 4.68869 6.29688 4.97731 6.29688C5.26593 6.29688 5.50112 6.52087 5.50112 6.79688C5.50112 7.07288 5.26593 7.29688 4.97731 7.29688Z" fill="#20BCC6"/>
</g>
<defs>
<clipPath id="clip0_694_6805">
<rect width="22" height="16" fill="white"/>
</clipPath>
</defs>
</svg>
