<svg width="19" height="16" viewBox="0 0 19 16" fill="none" xmlns="http://www.w3.org/2000/svg">
<g clip-path="url(#clip0_694_6876)">
<path d="M0.730769 12.5H9.25641V13.25C9.25641 13.388 9.36554 13.5 9.5 13.5C9.63446 13.5 9.74359 13.388 9.74359 13.25V12.5H18.2692C18.6721 12.5 19 12.1635 19 11.75V0.75C19 0.3365 18.6721 0 18.2692 0H0.730769C0.327872 0 0 0.3365 0 0.75V11.75C0 12.1635 0.327872 12.5 0.730769 12.5ZM0.487179 0.75C0.487179 0.612 0.596308 0.5 0.730769 0.5H18.2692C18.4037 0.5 18.5128 0.612 18.5128 0.75V11.75C18.5128 11.888 18.4037 12 18.2692 12H0.730769C0.596308 12 0.487179 11.888 0.487179 11.75V0.75Z" fill="#20BCC6"/>
<path d="M1.70453 11H17.2943C17.4287 11 17.5379 10.888 17.5379 10.75V1.75C17.5379 1.612 17.4287 1.5 17.2943 1.5H1.70453C1.57007 1.5 1.46094 1.612 1.46094 1.75V10.75C1.46094 10.888 1.57007 11 1.70453 11ZM1.94812 2H17.0507V10.5H1.94812V2Z" fill="#20BCC6"/>
<path d="M6.81811 14C6.26272 14 5.84375 14.43 5.84375 15V15.75C5.84375 15.888 5.95288 16 6.08734 16H12.9079C13.0423 16 13.1514 15.888 13.1514 15.75V15.0375C13.1514 14.456 12.7237 14 12.1771 14H6.81811ZM12.6643 15.0375V15.5H6.33093V15C6.33093 14.7055 6.53116 14.5 6.81811 14.5H12.1771C12.4548 14.5 12.6643 14.731 12.6643 15.0375Z" fill="#20BCC6"/>
</g>
<defs>
<clipPath id="clip0_694_6876">
<rect width="19" height="16" fill="white"/>
</clipPath>
</defs>
</svg>
