<svg width="16" height="16" viewBox="0 0 16 16" fill="none" xmlns="http://www.w3.org/2000/svg">
<g clip-path="url(#clip0_694_6742)">
<path d="M0.711529 14H9.17647C9.56565 14 9.88235 13.6635 9.88235 13.25V3.75C9.88235 3.7385 9.87765 3.7285 9.87624 3.7175C9.87482 3.7065 9.87294 3.697 9.87012 3.6865C9.85929 3.6435 9.84188 3.6035 9.81271 3.573L6.51906 0.0735C6.49035 0.043 6.45271 0.0245 6.41224 0.0125C6.40235 0.0095 6.39341 0.0075 6.38306 0.006C6.37318 0.005 6.36376 0 6.35294 0H0.708706C0.318118 0 0 0.3365 0 0.75V13.25C0 13.6635 0.319059 14 0.711529 14ZM6.58824 0.8535L9.07906 3.5H6.82353C6.69412 3.5 6.58824 3.388 6.58824 3.25V0.8535ZM0.470588 0.75C0.470588 0.612 0.577412 0.5 0.708706 0.5H6.11765V3.25C6.11765 3.6635 6.43435 4 6.82353 4H9.41177V13.25C9.41177 13.388 9.30588 13.5 9.17647 13.5H0.711529C0.578353 13.5 0.470588 13.388 0.470588 13.25V0.75Z" fill="#20BCC6"/>
<path d="M2.11811 6H7.76517C7.89505 6 8.00046 5.888 8.00046 5.75C8.00046 5.612 7.89505 5.5 7.76517 5.5H2.11811C1.98822 5.5 1.88281 5.612 1.88281 5.75C1.88281 5.888 1.98822 6 2.11811 6Z" fill="#20BCC6"/>
<path d="M2.11811 8H7.76517C7.89505 8 8.00046 7.888 8.00046 7.75C8.00046 7.612 7.89505 7.5 7.76517 7.5H2.11811C1.98822 7.5 1.88281 7.612 1.88281 7.75C1.88281 7.888 1.98822 8 2.11811 8Z" fill="#20BCC6"/>
<path d="M2.11811 4H4.47105C4.60093 4 4.70634 3.888 4.70634 3.75C4.70634 3.612 4.60093 3.5 4.47105 3.5H2.11811C1.98822 3.5 1.88281 3.612 1.88281 3.75C1.88281 3.888 1.98822 4 2.11811 4Z" fill="#20BCC6"/>
<path d="M2.11811 10H7.76517C7.89505 10 8.00046 9.888 8.00046 9.75C8.00046 9.612 7.89505 9.5 7.76517 9.5H2.11811C1.98822 9.5 1.88281 9.612 1.88281 9.75C1.88281 9.888 1.98822 10 2.11811 10Z" fill="#20BCC6"/>
<path d="M2.11811 12H7.76517C7.89505 12 8.00046 11.888 8.00046 11.75C8.00046 11.612 7.89505 11.5 7.76517 11.5H2.11811C1.98822 11.5 1.88281 11.612 1.88281 11.75C1.88281 11.888 1.98822 12 2.11811 12Z" fill="#20BCC6"/>
<path d="M10.1172 2.5H12.2348V5.25C12.2348 5.6635 12.5515 6 12.9407 6H15.529V15.25C15.529 15.388 15.4231 15.5 15.2937 15.5H6.82872C6.69554 15.5 6.58778 15.388 6.58778 15.25V14.75C6.58778 14.612 6.48236 14.5 6.35248 14.5C6.2226 14.5 6.11719 14.612 6.11719 14.75V15.25C6.11719 15.6635 6.43625 16 6.82872 16H15.2937C15.6828 16 15.9995 15.6635 15.9995 15.25V5.75C15.9995 5.7385 15.9948 5.7285 15.9934 5.7175C15.992 5.7065 15.9901 5.697 15.9873 5.6865C15.9765 5.6435 15.9591 5.6035 15.9299 5.573L12.6362 2.0735C12.6075 2.0425 12.5694 2.024 12.529 2.0125C12.5191 2.0095 12.5106 2.008 12.5002 2.0065C12.4904 2.005 12.481 2 12.4701 2H10.1172C9.98731 2 9.88189 2.112 9.88189 2.25C9.88189 2.388 9.98731 2.5 10.1172 2.5ZM12.9407 5.5C12.8113 5.5 12.7054 5.388 12.7054 5.25V2.8535L15.1962 5.5H12.9407Z" fill="#20BCC6"/>
<path d="M11.0595 8H13.883C14.0129 8 14.1183 7.888 14.1183 7.75C14.1183 7.612 14.0129 7.5 13.883 7.5H11.0595C10.9296 7.5 10.8242 7.612 10.8242 7.75C10.8242 7.888 10.9296 8 11.0595 8Z" fill="#20BCC6"/>
<path d="M11.0595 10H13.883C14.0129 10 14.1183 9.888 14.1183 9.75C14.1183 9.612 14.0129 9.5 13.883 9.5H11.0595C10.9296 9.5 10.8242 9.612 10.8242 9.75C10.8242 9.888 10.9296 10 11.0595 10Z" fill="#20BCC6"/>
<path d="M11.0595 12H13.883C14.0129 12 14.1183 11.888 14.1183 11.75C14.1183 11.612 14.0129 11.5 13.883 11.5H11.0595C10.9296 11.5 10.8242 11.612 10.8242 11.75C10.8242 11.888 10.9296 12 11.0595 12Z" fill="#20BCC6"/>
<path d="M11.0595 14H13.883C14.0129 14 14.1183 13.888 14.1183 13.75C14.1183 13.612 14.0129 13.5 13.883 13.5H11.0595C10.9296 13.5 10.8242 13.612 10.8242 13.75C10.8242 13.888 10.9296 14 11.0595 14Z" fill="#20BCC6"/>
</g>
<defs>
<clipPath id="clip0_694_6742">
<rect width="16" height="16" fill="white"/>
</clipPath>
</defs>
</svg>
