<svg width="448" height="607" fill="none" xmlns="http://www.w3.org/2000/svg"><g opacity=".5" stroke="#20BCC6" stroke-miterlimit="10" stroke-linecap="round"><path d="M172.344 788.353S627.8 294.332 365.066-13.663" stroke-width=".25"/><path d="M167.061 787.836s450.644-490.11 185.946-801.227" stroke-width=".375"/><path d="M161.606 787.318S607.437 301.121 340.775-13.119" stroke-width=".5"/><path d="M156.157 786.635S597.176 304.349 328.549-13.013" stroke-width=".625"/><path d="M150.872 786.118s436.041-478.375 165.616-798.86" stroke-width=".75"/><path d="M145.424 785.602s431.229-474.463 158.84-798.234" stroke-width=".875"/><path d="M140.137 785.083S566.553 314.532 292.201-12.362"/><path d="M134.688 784.563S556.292 317.924 279.975-12.092" stroke-width="1.125"/><path d="M129.404 784.048S546.029 321.32 267.914-11.818" stroke-width="1.25"/><path d="M123.953 783.527S535.765 324.711 255.687-11.55" stroke-width="1.375"/><path d="M118.504 782.849s407-454.904 124.958-794.287" stroke-width="1.5"/><path d="M113.219 782.33S515.406 331.338 231.401-11.168" stroke-width="1.625"/><path d="M107.768 781.812s397.21-447.245 111.406-792.708" stroke-width="1.75"/><path d="M102.485 781.297s392.397-443.333 104.63-791.919" stroke-width="1.875"/><path d="M97.034 780.78s387.584-439.422 97.855-791.13" stroke-width="2"/></g><g opacity=".5" stroke="#20BCC6" stroke-miterlimit="10" stroke-linecap="round"><path d="M76.344 788.353S531.8 294.332 269.066-13.663" stroke-width=".25"/><path d="M71.061 787.836s450.644-490.11 185.946-801.227" stroke-width=".375"/><path d="M65.606 787.318S511.437 301.121 244.775-13.119" stroke-width=".5"/><path d="M60.157 786.635S501.176 304.349 232.55-13.013" stroke-width=".625"/><path d="M54.872 786.118s436.041-478.375 165.616-798.86" stroke-width=".75"/><path d="M49.424 785.602s431.229-474.463 158.84-798.234" stroke-width=".875"/><path d="M44.138 785.083S470.553 314.532 196.2-12.362"/><path d="M38.688 784.563S460.292 317.924 183.976-12.092" stroke-width="1.125"/><path d="M33.404 784.048S450.029 321.32 171.913-11.818" stroke-width="1.25"/><path d="M27.953 783.527S439.765 324.711 159.687-11.55" stroke-width="1.375"/><path d="M22.504 782.849s407-454.904 124.958-794.287" stroke-width="1.5"/><path d="M17.219 782.33S419.406 331.338 135.4-11.168" stroke-width="1.625"/><path d="M11.768 781.812s397.21-447.245 111.406-792.708" stroke-width="1.75"/><path d="M6.485 781.297s392.397-443.333 104.63-791.919" stroke-width="1.875"/><path d="M1.034 780.78S388.618 341.358 98.888-10.35" stroke-width="2"/></g></svg>