<svg width="104" height="22" viewBox="0 0 104 22" fill="none"
  xmlns="http://www.w3.org/2000/svg">
  <path d="M3.7321 22C3.05018 22 2.42356 21.8286 1.85223 21.4857C1.28089 21.1429 0.829355 20.6762 0.497613 20.0857C0.165871 19.4952 0 18.8476 0 18.1429V5.28571C0 4.58095 0.165871 3.93333 0.497613 3.34286C0.829355 2.75238 1.28089 2.28571 1.85223 1.94286C2.42356 1.6 3.05018 1.42857 3.7321 1.42857H16.1724C16.8543 1.42857 17.4717 1.6 18.0246 1.94286C18.596 2.28571 19.0475 2.75238 19.3793 3.34286C19.7294 3.93333 19.9045 4.58095 19.9045 5.28571V6.68571H16.5595V5.4C16.5595 5.24762 16.5042 5.12381 16.3936 5.02857C16.3014 4.93333 16.1908 4.88571 16.0618 4.88571H3.81503C3.68602 4.88571 3.56623 4.93333 3.45564 5.02857C3.36349 5.12381 3.31742 5.24762 3.31742 5.4V18.0286C3.31742 18.181 3.36349 18.3048 3.45564 18.4C3.56623 18.4952 3.68602 18.5429 3.81503 18.5429H16.0618C16.1908 18.5429 16.3014 18.4952 16.3936 18.4C16.5042 18.3048 16.5595 18.181 16.5595 18.0286V14H11.9704V10.5429H19.9045V18.1429C19.9045 18.8476 19.7294 19.4952 19.3793 20.0857C19.0475 20.6762 18.596 21.1429 18.0246 21.4857C17.4717 21.8286 16.8543 22 16.1724 22H3.7321Z" fill="#FDFDFD"/>
  <path d="M25.4081 22C24.7261 22 24.1087 21.8286 23.5558 21.4857C23.0029 21.1238 22.5514 20.6571 22.2012 20.0857C21.8695 19.5143 21.7036 18.8762 21.7036 18.1714V9.25714C21.7036 8.55238 21.8695 7.91429 22.2012 7.34286C22.5514 6.77143 23.0029 6.31429 23.5558 5.97143C24.1087 5.60952 24.7261 5.42857 25.4081 5.42857H34.2822C34.9825 5.42857 35.6091 5.60952 36.162 5.97143C36.7149 6.31429 37.1572 6.77143 37.489 7.34286C37.8207 7.91429 37.9866 8.55238 37.9866 9.25714V18.1714C37.9866 18.8762 37.8207 19.5143 37.489 20.0857C37.1572 20.6571 36.7149 21.1238 36.162 21.4857C35.6091 21.8286 34.9825 22 34.2822 22H25.4081ZM25.5186 18.6H34.1716C34.319 18.6 34.4388 18.5524 34.531 18.4571C34.6415 18.3429 34.6968 18.2095 34.6968 18.0571V9.37143C34.6968 9.21905 34.6415 9.09524 34.531 9C34.4388 8.88571 34.319 8.82857 34.1716 8.82857H25.5186C25.3712 8.82857 25.2422 8.88571 25.1316 9C25.0395 9.09524 24.9934 9.21905 24.9934 9.37143V18.0571C24.9934 18.2095 25.0395 18.3429 25.1316 18.4571C25.2422 18.5524 25.3712 18.6 25.5186 18.6Z" fill="#FDFDFD"/>
  <path d="M46.5395 22L39.2965 1.42857H42.8351L47.8665 15.6857L52.8979 1.42857H56.2706L61.3297 15.6857L66.3611 1.42857H69.8997L62.6567 22H59.9751L54.5843 6.71429L49.1935 22H46.5395Z" fill="#FDFDFD"/>
  <path d="M73.3033 22C72.6214 22 72.004 21.8286 71.4511 21.4857C70.8982 21.1238 70.4466 20.6571 70.0965 20.0857C69.7647 19.5143 69.5988 18.8762 69.5988 18.1714V9.25714C69.5988 8.55238 69.7647 7.91429 70.0965 7.34286C70.4466 6.77143 70.8982 6.31429 71.4511 5.97143C72.004 5.60952 72.6214 5.42857 73.3033 5.42857H82.1774C82.8777 5.42857 83.5044 5.60952 84.0573 5.97143C84.6102 6.31429 85.0525 6.77143 85.3842 7.34286C85.716 7.91429 85.8818 8.55238 85.8818 9.25714V15.4286H72.8886V18.0571C72.8886 18.2095 72.9347 18.3429 73.0268 18.4571C73.1374 18.5524 73.2664 18.6 73.4139 18.6H85.8818V22H73.3033ZM72.8886 12.3143H82.5921V9.37143C82.5921 9.21905 82.5368 9.09524 82.4262 9C82.334 8.88571 82.2142 8.82857 82.0668 8.82857H73.4139C73.2664 8.82857 73.1374 8.88571 73.0268 9C72.9347 9.09524 72.8886 9.21905 72.8886 9.37143V12.3143Z" fill="#FDFDFD"/>
  <path d="M87.717 22V0H91.0068V5.42857H100.323C100.987 5.42857 101.595 5.60952 102.148 5.97143C102.719 6.31429 103.171 6.77143 103.502 7.34286C103.834 7.91429 104 8.55238 104 9.25714V18.1714C104 18.8762 103.834 19.5143 103.502 20.0857C103.171 20.6571 102.719 21.1238 102.148 21.4857C101.595 21.8286 100.987 22 100.323 22H87.717ZM91.532 18.6H100.213C100.342 18.6 100.452 18.5524 100.544 18.4571C100.655 18.3429 100.71 18.2095 100.71 18.0571V9.37143C100.71 9.21905 100.655 9.09524 100.544 9C100.452 8.88571 100.342 8.82857 100.213 8.82857H91.532C91.403 8.82857 91.2832 8.88571 91.1726 9C91.0621 9.09524 91.0068 9.21905 91.0068 9.37143V18.0571C91.0068 18.2095 91.0621 18.3429 91.1726 18.4571C91.2832 18.5524 91.403 18.6 91.532 18.6Z" fill="#FDFDFD"/>
</svg>
