<svg width="16" height="16" viewBox="0 0 16 16" fill="none"
  xmlns="http://www.w3.org/2000/svg">
  <g clip-path="url(#clip0_694_6706)">
    <path d="M16 15.7399C16 15.8779 15.888 15.9899 15.75 15.9899H0.1945C0.161 15.9899 0.1285 15.9834 0.0979996 15.9704C0.0674992 15.9574 0.04 15.9389 0.0170002 15.9159C0.0165005 15.9154 0.0159998 15.9154 0.0155001 15.9149C0.0139999 15.9134 0.0139999 15.9104 0.0120001 15.9089C-0.0135002 15.8814 -0.0300007 15.8479 -0.0415001 15.8114C-0.0450001 15.7999 -0.0464993 15.7889 -0.0485001 15.7769C-0.0505009 15.7644 -0.0559998 15.7534 -0.0559998 15.7404C-0.0559998 15.7204 -0.0489998 15.7029 -0.0445004 15.6844C-0.0430012 15.6774 -0.0460014 15.6704 -0.0435009 15.6634L1.5365 10.8059C1.5485 10.7684 1.5695 10.7339 1.5975 10.7064L10.156 2.14741C10.165 2.13341 10.1715 2.11841 10.1835 2.10591L12.053 0.236414C12.3565 -0.0670859 12.8505 -0.0670859 13.1545 0.236414L15.772 2.85391C15.919 3.00091 16 3.19641 16 3.40441C16 3.61241 15.919 3.80841 15.772 3.95541L13.944 5.78341C13.935 5.79691 13.929 5.81241 13.917 5.82441L5.372 14.4269C5.3425 14.4569 5.3065 14.4784 5.266 14.4904L1.9095 15.4904H15.75C15.888 15.4899 16 15.6019 16 15.7399ZM12.819 5.08091L4.9755 12.8239L5.264 13.8249L13.3865 5.64841L12.819 5.08091ZM4.592 12.5004L12.466 4.72791L11.2475 3.50941L3.444 11.3334V12.5004H4.592ZM3.1325 10.9379L10.894 3.15591L10.3745 2.63641L2.269 10.7419L3.1325 10.9379ZM4.506 13.0004H3.194C3.056 13.0004 2.944 12.8884 2.944 12.7504V11.4079L1.9405 11.1799L0.579 15.3649L4.823 14.1004L4.506 13.0004ZM15.5 3.40441C15.5 3.32991 15.471 3.26041 15.4185 3.20741L12.801 0.589914C12.6925 0.481414 12.516 0.480914 12.4065 0.589914L10.7205 2.27591L13.732 5.28741L15.418 3.60141C15.471 3.54891 15.5 3.47891 15.5 3.40441Z" fill="#20BCC6"/>
  </g>
  <defs>
    <clipPath id="clip0_694_6706">
      <rect width="16" height="16" fill="white" transform="matrix(-1 0 0 1 16 0)"/>
    </clipPath>
  </defs>
</svg>
