<svg width="317" height="342" fill="none" xmlns="http://www.w3.org/2000/svg"><g clip-path="url(#a)" stroke="#20BCC6" stroke-miterlimit="10" stroke-linecap="round"><g opacity=".5"><path d="M18.347.973C12.455 5.244 6.66 9.613.96 14.175" stroke-width=".243"/><path d="M.96 18.64A356.658 356.658 0 0 1 23.66.974" stroke-width=".364"/><path d="M.96 23.397C10.04 15.437 19.507 7.962 29.166.973" stroke-width=".486"/><path d="M.96 28.348C11.587 18.446 22.984 9.321 34.67.973" stroke-width=".607"/><path d="M.96 33.396C13.132 21.553 26.46 10.777 39.983.973" stroke-width=".729"/><path d="M.96 38.832C14.677 24.756 29.84 12.136 45.392.972" stroke-width=".85"/><path d="M.96 44.366C16.03 28.057 33.126 13.593 50.608.973" stroke-width=".972"/><path d="M.96 50.287C17.38 31.455 36.409 15.05 55.92.973" stroke-width="1.093"/><path d="M.96 56.597C18.54 35.047 39.597 16.505 61.136.973" stroke-width="1.215"/><path d="M.96 63.296C19.603 38.832 42.688 18.058 66.448.973" stroke-width="1.336"/><path d="M.96 70.576C20.473 42.716 45.875 19.611 71.664.973" stroke-width="1.457"/><path d="M.96 78.245C21.149 46.793 48.773 21.262 76.783.973" stroke-width="1.579"/><path d="M.96 86.691C21.63 51.258 51.67 22.911 82.095.973" stroke-width="1.7"/><path d="M.96 95.913C21.825 56.015 54.278 24.66 87.02.973" stroke-width="1.822"/><path d="M.96 106.495C21.535 61.257 56.886 26.504 92.237.973" stroke-width="1.943"/></g><g opacity=".5"><path d="M298.934 340.837c5.891-4.272 11.687-8.64 17.289-13.3" stroke-width=".243"/><path d="M316.221 323.168c-7.34 6.213-14.971 12.135-22.698 17.765" stroke-width=".364"/><path d="M316.224 318.412a366.58 366.58 0 0 1-28.107 22.522" stroke-width=".486"/><path d="M316.222 313.461c-10.625 9.902-22.022 19.027-33.613 27.473" stroke-width=".607"/><path d="M316.222 308.414c-12.17 11.94-25.403 22.716-38.925 32.521" stroke-width=".729"/><path d="M316.22 302.977c-13.715 14.076-28.783 26.696-44.333 37.956" stroke-width=".85"/><path d="M316.221 297.443c-15.067 16.406-32.067 30.871-49.549 43.491" stroke-width=".972"/><path d="M316.225 291.521c-16.323 18.93-35.351 35.336-54.862 49.509" stroke-width="1.093"/><path d="M316.128 285.213c-17.482 21.551-38.538 40.19-60.077 55.819" stroke-width="1.215"/><path d="M316.125 278.514c-18.545 24.56-41.629 45.334-65.293 62.517" stroke-width="1.336"/><path d="M316.125 271.33c-19.414 27.861-44.72 51.062-70.605 69.701" stroke-width="1.457"/><path d="M316.124 263.562c-20.09 31.453-47.618 57.081-75.628 77.467" stroke-width="1.579"/><path d="M316.125 255.119c-20.573 35.433-50.515 63.876-80.844 85.913" stroke-width="1.7"/><path d="M316.03 245.896c-20.766 39.996-53.123 71.449-85.866 95.135" stroke-width="1.822"/><path d="M316.028 235.314c-20.476 45.238-55.731 80.088-90.985 105.717" stroke-width="1.943"/></g></g><defs><clipPath id="a"><path fill="#fff" d="M0 0h317v342H0z"/></clipPath></defs></svg>