<svg width="1002" height="486" fill="none" xmlns="http://www.w3.org/2000/svg"><path d="M994 484.2c2.1-3 4.2-6.1 6.3-9.1" stroke="#20BCC6" stroke-width=".25" stroke-miterlimit="10" stroke-linecap="round"/><path d="M985.199 484.199c5.1-7.1 10.2-14.2 15.101-21.4" stroke="#20BCC6" stroke-width=".375" stroke-miterlimit="10" stroke-linecap="round"/><path d="M976 484.199c8.4-11.2 16.5-22.5 24.3-34" stroke="#20BCC6" stroke-width=".5" stroke-miterlimit="10" stroke-linecap="round"/><path d="M966.299 484.199c11.9-15.2 23.2-30.8 34.001-46.5" stroke="#20BCC6" stroke-width=".625" stroke-miterlimit="10" stroke-linecap="round"/><path d="M956.5 484.2c15.5-19.1 30.1-38.9 43.8-58.8" stroke="#20BCC6" stroke-width=".75" stroke-miterlimit="10" stroke-linecap="round"/><path d="M946.199 484.2c19.5-23 37.5-46.9 54.101-71.2" stroke="#20BCC6" stroke-width=".875" stroke-miterlimit="10" stroke-linecap="round"/><path d="M935.799 484.2c23.6-26.6 45.1-54.8 64.501-83.2" stroke="#20BCC6" stroke-miterlimit="10" stroke-linecap="round"/><path d="M924.699 484.199c28-30.2 53.2-62.6 75.601-95.4" stroke="#20BCC6" stroke-width="1.125" stroke-miterlimit="10" stroke-linecap="round"/><path d="M913.199 484.2c32.8-33.6 61.8-70.4 87.101-107.3" stroke="#20BCC6" stroke-width="1.25" stroke-miterlimit="10" stroke-linecap="round"/><path d="M901.1 484.199c37.9-36.9 70.9-78.1 99.2-119.4" stroke="#20BCC6" stroke-width="1.375" stroke-miterlimit="10" stroke-linecap="round"/><path d="M888.299 484.199c43.5-40.1 80.7-85.8 112.001-131.5" stroke="#20BCC6" stroke-width="1.5" stroke-miterlimit="10" stroke-linecap="round"/><path d="M875.1 484.2C924.4 441.3 966 391 1000.3 341" stroke="#20BCC6" stroke-width="1.625" stroke-miterlimit="10" stroke-linecap="round"/><path d="M860.699 484.2c55.9-45.6 102.2-100.7 139.601-155.3" stroke="#20BCC6" stroke-width="1.75" stroke-miterlimit="10" stroke-linecap="round"/><path d="M845.799 484.2c62.9-47.9 114-107.8 154.501-166.8" stroke="#20BCC6" stroke-width="1.875" stroke-miterlimit="10" stroke-linecap="round"/><path d="M829.6 484.2c70.6-49.9 127.1-114.9 170.7-178.6" stroke="#20BCC6" stroke-width="2" stroke-miterlimit="10" stroke-linecap="round"/><path d="M999.399 387.301c-41.6 37.6-89.6 69.6-139.2 96.8" stroke="#20BCC6" stroke-width=".25" stroke-miterlimit="10" stroke-linecap="round"/><path d="M999.4 374.6c-45.2 43.3-98.8 79.5-153.9 109.5" stroke="#20BCC6" stroke-width=".375" stroke-miterlimit="10" stroke-linecap="round"/><path d="M999.4 361c-48.6 49.5-108 90.1-168.9 123.1" stroke="#20BCC6" stroke-width=".5" stroke-miterlimit="10" stroke-linecap="round"/><path d="M999.4 346.6c-51.7 56.3-117.2 101.6-184 137.5" stroke="#20BCC6" stroke-width=".625" stroke-miterlimit="10" stroke-linecap="round"/><path d="M999.399 331.6c-54.4 63.7-126 113.7-198.7 152.5" stroke="#20BCC6" stroke-width=".75" stroke-miterlimit="10" stroke-linecap="round"/><path d="M785.9 484.1c78.7-41.7 156.8-96.9 213.5-168.6" stroke="#20BCC6" stroke-width=".875" stroke-miterlimit="10" stroke-linecap="round"/><path d="M771.4 484.1c84.7-44.6 169.4-105.1 228-185.6" stroke="#20BCC6" stroke-miterlimit="10" stroke-linecap="round"/><path d="M756.801 484.1c91-47.5 182.9-113.9 242.7-204.2" stroke="#20BCC6" stroke-width="1.125" stroke-miterlimit="10" stroke-linecap="round"/><path d="M742.301 484.101c97.3-50.5 196.9-123.1 257.1-224.3" stroke="#20BCC6" stroke-width="1.25" stroke-miterlimit="10" stroke-linecap="round"/><path d="M727.699 484.1c104-53.6 211.9-132.9 271.7-246.6" stroke="#20BCC6" stroke-width="1.375" stroke-miterlimit="10" stroke-linecap="round"/><path d="M713.1 484.1c111.1-56.8 228.1-143.6 286.4-271.5" stroke="#20BCC6" stroke-width="1.5" stroke-miterlimit="10" stroke-linecap="round"/><path d="M698.9 484.1c118.6-60.2 245.7-155.4 300.5-300" stroke="#20BCC6" stroke-width="1.625" stroke-miterlimit="10" stroke-linecap="round"/><path d="M684.301 484.1c127.1-64 266.6-169.4 315.1-335" stroke="#20BCC6" stroke-width="1.75" stroke-miterlimit="10" stroke-linecap="round"/><path d="M670.301 484.099c137.7-68.8 292.5-187.5 329.1-381.4" stroke="#20BCC6" stroke-width="1.875" stroke-miterlimit="10" stroke-linecap="round"/><path d="M656 484.1C812.6 406.5 995.4 262.4 997.6 12" stroke="#20BCC6" stroke-width="2" stroke-miterlimit="10" stroke-linecap="round"/><path d="M10.1 1C7.1 3.1 4 5.2 1 7.3" stroke="#20BCC6" stroke-width=".25" stroke-miterlimit="10" stroke-linecap="round"/><path d="M22.4 1C15.2 5.9 8.1 10.9 1 16.1" stroke="#20BCC6" stroke-width=".375" stroke-miterlimit="10" stroke-linecap="round"/><path d="M35 1C23.5 8.8 12.2 16.9 1 25.3" stroke="#20BCC6" stroke-width=".5" stroke-miterlimit="10" stroke-linecap="round"/><path d="M47.5 1C31.8 11.8 16.2 23.1 1 35" stroke="#20BCC6" stroke-width=".625" stroke-miterlimit="10" stroke-linecap="round"/><path d="M59.8 1C39.9 14.6 20.1 29.2 1 44.8" stroke="#20BCC6" stroke-width=".75" stroke-miterlimit="10" stroke-linecap="round"/><path d="M72.2 1C47.9 17.6 24 35.6 1 55.1" stroke="#20BCC6" stroke-width=".875" stroke-miterlimit="10" stroke-linecap="round"/><path d="M84.2 1C55.8 20.4 27.6 41.9 1 65.5" stroke="#20BCC6" stroke-miterlimit="10" stroke-linecap="round"/><path d="M96.4 1C63.7 23.4 31.2 48.6 1 76.6" stroke="#20BCC6" stroke-width="1.125" stroke-miterlimit="10" stroke-linecap="round"/><path d="M108.3 1C71.3 26.3 34.6 55.3 1 88.1" stroke="#20BCC6" stroke-width="1.25" stroke-miterlimit="10" stroke-linecap="round"/><path d="M120.4 1C79.1 29.3 37.9 62.3 1 100.2" stroke="#20BCC6" stroke-width="1.375" stroke-miterlimit="10" stroke-linecap="round"/><path d="M132.6 1C86.8 32.3 41.1 69.6 1 113" stroke="#20BCC6" stroke-width="1.5" stroke-miterlimit="10" stroke-linecap="round"/><path d="M144.2 1C94.2 35.3 43.9 76.9 1 126.2" stroke="#20BCC6" stroke-width="1.625" stroke-miterlimit="10" stroke-linecap="round"/><path d="M156.3 1C101.7 38.4 46.6 84.7 1 140.6" stroke="#20BCC6" stroke-width="1.75" stroke-miterlimit="10" stroke-linecap="round"/><path d="M167.8 1C108.8 41.5 48.9 92.6 1 155.5" stroke="#20BCC6" stroke-width="1.875" stroke-miterlimit="10" stroke-linecap="round"/><path d="M179.6 1C115.9 44.6 50.9 101.1 1 171.7" stroke="#20BCC6" stroke-width="2" stroke-miterlimit="10" stroke-linecap="round"/><path d="M172.1 1C113.5 34.1 53.3 74.4 1 122.2" stroke="#20BCC6" stroke-width=".25" stroke-miterlimit="10" stroke-linecap="round"/><path d="M184.4 1C121.5 36.5 56.3 80.7 1 133.7" stroke="#20BCC6" stroke-width=".375" stroke-miterlimit="10" stroke-linecap="round"/><path d="M197 1C129.6 39 59.2 87.3 1 146.1" stroke="#20BCC6" stroke-width=".5" stroke-miterlimit="10" stroke-linecap="round"/><path d="M209.6 1C137.7 41.5 61.8 94 1 159.1" stroke="#20BCC6" stroke-width=".625" stroke-miterlimit="10" stroke-linecap="round"/><path d="M221.9 1C145.5 44 64.1 100.9 1 172.6" stroke="#20BCC6" stroke-width=".75" stroke-miterlimit="10" stroke-linecap="round"/><path d="M1 187.2C66 108.2 153.4 46.5 234.3 1" stroke="#20BCC6" stroke-width=".875" stroke-miterlimit="10" stroke-linecap="round"/><path d="M1 202.4C67.4 115.6 160.9 48.9 246.3 1" stroke="#20BCC6" stroke-miterlimit="10" stroke-linecap="round"/><path d="M1 219C68.5 123.5 168.5 51.5 258.5 1" stroke="#20BCC6" stroke-width="1.125" stroke-miterlimit="10" stroke-linecap="round"/><path d="M1 236.8C68.8 131.8 175.8 54 270.5 1" stroke="#20BCC6" stroke-width="1.25" stroke-miterlimit="10" stroke-linecap="round"/><path d="M1 256.5C68.4 140.7 183.1 56.6 282.7 1" stroke="#20BCC6" stroke-width="1.375" stroke-miterlimit="10" stroke-linecap="round"/><path d="M1 278.2C67.1 150.3 190.2 59.3 294.9 1" stroke="#20BCC6" stroke-width="1.5" stroke-miterlimit="10" stroke-linecap="round"/><path d="M1 302.6C64.3 160.8 196.6 62.2 306.7 1" stroke="#20BCC6" stroke-width="1.625" stroke-miterlimit="10" stroke-linecap="round"/><path d="M1 331.5C59.4 173 202.8 65.4 318.8 1" stroke="#20BCC6" stroke-width="1.75" stroke-miterlimit="10" stroke-linecap="round"/><path d="M1 366.8C51.2 187.5 207.5 69 330.4 1" stroke="#20BCC6" stroke-width="1.875" stroke-miterlimit="10" stroke-linecap="round"/><path d="M1 418.7C34.6 208.5 209.8 74.1 342.3 1" stroke="#20BCC6" stroke-width="2" stroke-miterlimit="10" stroke-linecap="round"/></svg>