<?xml version="1.0" standalone="no"?>
<!DOCTYPE svg PUBLIC "-//W3C//DTD SVG 20010904//EN"
 "http://www.w3.org/TR/2001/REC-SVG-20010904/DTD/svg10.dtd">
<svg version="1.0" xmlns="http://www.w3.org/2000/svg"
 width="512.000000pt" height="512.000000pt" viewBox="0 0 512.000000 512.000000"
 preserveAspectRatio="xMidYMid meet">
<metadata>
Created by potrace 1.14, written by Peter Selinger 2001-2017
</metadata>
<g transform="translate(0.000000,512.000000) scale(0.100000,-0.100000)"
fill="#000000" stroke="none">
<path d="M0 2560 l0 -2560 2560 0 2560 0 0 2560 0 2560 -2560 0 -2560 0 0
-2560z m1661 809 c118 -56 176 -149 186 -299 l6 -90 -137 0 -136 0 0 58 c0 32
-5 63 -12 70 -9 9 -140 12 -529 12 -285 0 -524 -3 -533 -6 -14 -5 -16 -62 -16
-539 0 -293 3 -540 6 -549 5 -14 62 -16 533 -16 397 0 530 3 539 12 8 8 12 64
12 185 l0 173 -190 0 -190 0 0 140 0 140 326 0 325 0 -3 -342 -3 -343 -26 -56
c-33 -69 -89 -127 -155 -160 l-49 -24 -580 0 -580 0 -50 25 c-60 29 -124 91
-148 142 -35 74 -38 138 -35 700 l3 553 26 55 c47 100 118 161 210 179 24 5
292 8 594 8 l550 -2 56 -26z m730 -548 c114 -315 210 -575 212 -578 3 -2 17
29 31 69 15 40 109 300 209 578 l183 505 139 0 138 0 210 -578 c115 -317 212
-575 215 -572 3 3 99 263 213 578 l207 572 141 3 c78 1 141 -1 141 -5 0 -5
-134 -379 -298 -833 l-298 -825 -110 -3 -109 -2 -209 582 c-240 668 -241 670
-251 646 -3 -9 -105 -288 -225 -620 l-218 -603 -108 0 -109 0 -297 820 c-163
451 -297 826 -297 833 -1 10 31 12 140 10 l142 -3 208 -574z m2509 -256 l0
-835 -165 0 -165 0 0 835 0 835 165 0 165 0 0 -835z"/>
</g>
</svg>
